<svg width="282" height="282" viewBox="0 0 282 282" fill="none" xmlns="http://www.w3.org/2000/svg">
<rect y="18" width="282" height="252" rx="20" fill="#2F3247"/>
<rect x="21.2637" y="68" width="239.476" height="214" rx="20" fill="#2F3247" fill-opacity="0.3"/>
<rect x="15" y="33" width="251" height="222" rx="10" fill="#2F3247"/>
<rect x="15.5" y="33.5" width="250" height="221" rx="9.5" stroke="#B4C1D2" stroke-opacity="0.4" stroke-dasharray="10 10"/>
<g filter="url(#filter0_b_1979_7464)">
<path d="M53.7882 18.0855C53.5676 16.0961 53.4572 15.1014 53.6492 14.2704C53.9911 12.791 54.9859 11.5459 56.3535 10.886C57.1216 10.5154 58.1161 10.4035 60.1052 10.1797L122.844 3.12177L133.502 30.5509L128.28 52.1323L124.322 70.3906L133.716 101.143L70.9776 108.201C68.9885 108.424 67.994 108.536 67.1636 108.346C65.6852 108.006 64.4421 107.013 63.7845 105.646C63.4152 104.878 63.3048 103.883 63.0842 101.894L53.7882 18.0855Z" fill="url(#paint0_linear_1979_7464)" fill-opacity="0.3"/>
<path d="M216.606 101.899C216.317 103.88 216.173 104.87 215.777 105.625C215.073 106.968 213.797 107.918 212.308 108.206C211.471 108.368 210.481 108.221 208.501 107.928L146.042 98.6916L142.658 69.4349L153.156 49.8995L161.593 33.2545L160.27 1.10743L222.73 10.3441C224.71 10.637 225.7 10.7834 226.455 11.1805C227.799 11.8876 228.75 13.1666 229.041 14.6571C229.204 15.4943 229.06 16.4847 228.771 18.4653L216.606 101.899Z" fill="url(#paint1_linear_1979_7464)" fill-opacity="0.3"/>
</g>
<path d="M80.1599 155.557C76.3692 155.557 73.043 154.721 70.1813 153.049C67.3569 151.376 65.1642 149.035 63.6033 146.025C62.0424 142.977 61.2619 139.41 61.2619 135.322C61.2619 132.237 61.7079 129.468 62.5998 127.015C63.4918 124.525 64.7554 122.407 66.3906 120.66C68.063 118.876 70.0513 117.52 72.3554 116.591C74.6968 115.625 77.2983 115.141 80.1599 115.141C83.9878 115.141 87.314 115.978 90.1385 117.65C92.963 119.285 95.1557 121.608 96.7166 124.618C98.2775 127.629 99.0579 131.178 99.0579 135.266C99.0579 138.35 98.6119 141.138 97.72 143.628C96.8281 146.118 95.5459 148.255 93.8735 150.039C92.2383 151.822 90.25 153.198 87.9086 154.164C85.6045 155.093 83.0216 155.557 80.1599 155.557ZM80.1599 149.425C82.5756 149.425 84.6196 148.868 86.292 147.753C88.0016 146.638 89.3023 145.021 90.1942 142.903C91.1234 140.785 91.5879 138.258 91.5879 135.322C91.5879 130.862 90.5845 127.406 88.5776 124.953C86.6079 122.5 83.802 121.274 80.1599 121.274C77.7814 121.274 75.7374 121.831 74.0278 122.946C72.3183 124.024 70.9989 125.622 70.0698 127.74C69.1779 129.821 68.7319 132.348 68.7319 135.322C68.7319 139.744 69.7354 143.2 71.7422 145.69C73.7491 148.18 76.555 149.425 80.1599 149.425ZM118.076 155.557C115.252 155.557 112.799 154.981 110.718 153.829C108.636 152.677 107.02 151.042 105.868 148.924C104.716 146.768 104.14 144.241 104.14 141.342C104.14 139.149 104.455 137.198 105.087 135.489C105.756 133.742 106.704 132.256 107.93 131.029C109.157 129.766 110.625 128.818 112.334 128.186C114.044 127.517 115.958 127.183 118.076 127.183C120.901 127.183 123.353 127.759 125.435 128.911C127.516 130.063 129.132 131.698 130.285 133.816C131.437 135.935 132.013 138.443 132.013 141.342C132.013 143.535 131.678 145.505 131.009 147.251C130.377 148.998 129.448 150.503 128.222 151.767C126.995 152.993 125.528 153.941 123.818 154.61C122.108 155.242 120.194 155.557 118.076 155.557ZM118.076 150.262C119.451 150.262 120.659 149.927 121.7 149.258C122.74 148.589 123.539 147.604 124.097 146.304C124.691 144.966 124.989 143.312 124.989 141.342C124.989 138.369 124.357 136.158 123.093 134.708C121.83 133.222 120.157 132.479 118.076 132.479C116.701 132.479 115.493 132.813 114.453 133.482C113.412 134.114 112.594 135.099 112 136.436C111.442 137.737 111.164 139.372 111.164 141.342C111.164 144.278 111.795 146.508 113.059 148.032C114.323 149.518 115.995 150.262 118.076 150.262ZM141.22 165.48C140.105 165.48 139.251 165.183 138.656 164.588C138.061 163.994 137.764 163.12 137.764 161.968V130.806C137.764 129.654 138.061 128.781 138.656 128.186C139.251 127.591 140.087 127.294 141.165 127.294C142.28 127.294 143.134 127.591 143.729 128.186C144.324 128.781 144.621 129.654 144.621 130.806V135.154L144.008 133.482C144.565 131.587 145.699 130.063 147.408 128.911C149.155 127.759 151.18 127.183 153.485 127.183C155.863 127.183 157.944 127.759 159.728 128.911C161.549 130.063 162.961 131.698 163.965 133.816C164.968 135.898 165.47 138.406 165.47 141.342C165.47 144.241 164.968 146.768 163.965 148.924C162.961 151.042 161.568 152.677 159.784 153.829C158 154.981 155.9 155.557 153.485 155.557C151.218 155.557 149.229 155 147.52 153.885C145.81 152.733 144.658 151.246 144.063 149.425H144.732V161.968C144.732 163.12 144.416 163.994 143.785 164.588C143.19 165.183 142.335 165.48 141.22 165.48ZM151.533 150.262C152.909 150.262 154.116 149.927 155.157 149.258C156.198 148.589 156.997 147.604 157.554 146.304C158.149 144.966 158.446 143.312 158.446 141.342C158.446 138.369 157.814 136.158 156.551 134.708C155.287 133.222 153.615 132.479 151.533 132.479C150.158 132.479 148.951 132.813 147.91 133.482C146.869 134.114 146.052 135.099 145.457 136.436C144.9 137.737 144.621 139.372 144.621 141.342C144.621 144.278 145.253 146.508 146.516 148.032C147.78 149.518 149.452 150.262 151.533 150.262ZM181.169 155.557C179.571 155.557 177.88 155.39 176.096 155.056C174.312 154.721 172.714 154.145 171.302 153.328C170.707 152.956 170.28 152.529 170.019 152.045C169.796 151.525 169.704 151.023 169.741 150.54C169.815 150.02 170.001 149.574 170.298 149.202C170.633 148.831 171.041 148.589 171.525 148.478C172.045 148.366 172.602 148.459 173.197 148.756C174.684 149.463 176.077 149.964 177.378 150.262C178.679 150.522 179.961 150.652 181.224 150.652C183.008 150.652 184.328 150.354 185.182 149.76C186.074 149.128 186.52 148.31 186.52 147.307C186.52 146.452 186.223 145.802 185.628 145.356C185.071 144.873 184.216 144.52 183.064 144.297L177.489 143.238C175.185 142.792 173.42 141.955 172.194 140.729C171.004 139.465 170.41 137.849 170.41 135.879C170.41 134.095 170.893 132.553 171.859 131.252C172.862 129.951 174.238 128.948 175.984 128.242C177.731 127.536 179.738 127.183 182.005 127.183C183.64 127.183 185.164 127.368 186.576 127.74C188.025 128.075 189.419 128.613 190.757 129.357C191.315 129.654 191.686 130.044 191.872 130.527C192.095 131.011 192.151 131.512 192.039 132.033C191.928 132.516 191.705 132.962 191.37 133.37C191.036 133.742 190.608 133.984 190.088 134.095C189.605 134.169 189.047 134.058 188.416 133.761C187.264 133.166 186.149 132.739 185.071 132.479C184.03 132.218 183.027 132.088 182.061 132.088C180.24 132.088 178.883 132.404 177.991 133.036C177.136 133.668 176.709 134.504 176.709 135.545C176.709 136.325 176.969 136.975 177.489 137.496C178.01 138.016 178.809 138.369 179.887 138.555L185.461 139.614C187.877 140.06 189.698 140.878 190.924 142.067C192.188 143.256 192.82 144.854 192.82 146.861C192.82 149.574 191.76 151.711 189.642 153.272C187.524 154.796 184.699 155.557 181.169 155.557ZM216.889 143.684C216.183 143.684 215.625 143.461 215.217 143.015C214.845 142.569 214.622 141.937 214.548 141.119L212.875 119.824C212.764 118.449 213.061 117.353 213.767 116.535C214.473 115.68 215.514 115.253 216.889 115.253C218.227 115.253 219.23 115.68 219.899 116.535C220.605 117.353 220.903 118.449 220.791 119.824L219.119 141.119C219.082 141.937 218.859 142.569 218.45 143.015C218.078 143.461 217.558 143.684 216.889 143.684ZM216.889 155.279C215.625 155.279 214.603 154.889 213.823 154.108C213.08 153.328 212.708 152.324 212.708 151.098C212.708 149.909 213.08 148.942 213.823 148.199C214.603 147.419 215.625 147.028 216.889 147.028C218.19 147.028 219.193 147.419 219.899 148.199C220.643 148.942 221.014 149.909 221.014 151.098C221.014 152.324 220.643 153.328 219.899 154.108C219.193 154.889 218.19 155.279 216.889 155.279Z" fill="url(#paint2_linear_1979_7464)" fill-opacity="0.5"/>
<path d="M91.8484 194C91.4989 194 91.2294 193.905 91.0401 193.716C90.8508 193.527 90.7561 193.257 90.7561 192.908V179.691C90.7561 179.342 90.8508 179.072 91.0401 178.883C91.2294 178.694 91.4989 178.599 91.8484 178.599H97.0257C98.0888 178.599 98.9918 178.759 99.7345 179.08C100.492 179.4 101.067 179.859 101.46 180.456C101.853 181.053 102.05 181.774 102.05 182.619C102.05 183.565 101.773 184.359 101.22 185C100.667 185.641 99.9092 186.07 98.9481 186.289V185.961C100.026 186.092 100.87 186.493 101.482 187.162C102.108 187.818 102.421 188.677 102.421 189.74C102.421 191.109 101.97 192.165 101.067 192.908C100.179 193.636 98.9189 194 97.2878 194H91.8484ZM92.7222 192.405H97.0694C98.2053 192.405 99.05 192.187 99.6034 191.75C100.157 191.298 100.434 190.614 100.434 189.697C100.434 188.779 100.157 188.102 99.6034 187.665C99.05 187.228 98.2053 187.01 97.0694 187.01H92.7222V192.405ZM92.7222 185.393H96.7199C97.8267 185.393 98.6568 185.175 99.2102 184.738C99.7782 184.286 100.062 183.638 100.062 182.793C100.062 181.949 99.7782 181.308 99.2102 180.871C98.6568 180.42 97.8267 180.194 96.7199 180.194H92.7222V185.393ZM108.707 194.197C107.978 194.197 107.316 194.051 106.719 193.76C106.136 193.468 105.677 193.075 105.342 192.58C105.022 192.085 104.862 191.531 104.862 190.92C104.862 190.133 105.058 189.514 105.452 189.063C105.845 188.612 106.507 188.291 107.44 188.102C108.372 187.898 109.624 187.796 111.197 187.796H112.224V189.063H111.241C110.119 189.063 109.231 189.114 108.575 189.216C107.935 189.318 107.483 189.5 107.221 189.762C106.959 190.01 106.828 190.359 106.828 190.811C106.828 191.379 107.024 191.845 107.418 192.209C107.825 192.573 108.379 192.755 109.078 192.755C109.631 192.755 110.119 192.624 110.542 192.362C110.964 192.085 111.299 191.721 111.546 191.269C111.794 190.803 111.918 190.272 111.918 189.675V187.162C111.918 186.303 111.743 185.684 111.393 185.306C111.044 184.912 110.454 184.716 109.624 184.716C109.143 184.716 108.648 184.781 108.139 184.912C107.629 185.043 107.097 185.247 106.544 185.524C106.325 185.626 106.136 185.662 105.976 185.633C105.816 185.59 105.685 185.502 105.583 185.371C105.495 185.226 105.444 185.073 105.43 184.912C105.43 184.738 105.466 184.57 105.539 184.41C105.626 184.25 105.772 184.133 105.976 184.06C106.617 183.74 107.25 183.514 107.876 183.383C108.517 183.238 109.114 183.165 109.668 183.165C110.614 183.165 111.393 183.318 112.005 183.624C112.617 183.915 113.076 184.374 113.381 185C113.687 185.611 113.84 186.398 113.84 187.359V193.126C113.84 193.461 113.76 193.716 113.6 193.891C113.44 194.066 113.207 194.153 112.901 194.153C112.61 194.153 112.377 194.066 112.202 193.891C112.042 193.716 111.961 193.461 111.961 193.126V191.575H112.158C112.042 192.114 111.823 192.58 111.503 192.973C111.182 193.366 110.782 193.672 110.301 193.891C109.835 194.095 109.304 194.197 108.707 194.197ZM121.032 194.197C120.1 194.197 119.277 193.978 118.563 193.541C117.864 193.09 117.318 192.449 116.925 191.619C116.532 190.774 116.335 189.791 116.335 188.67C116.335 187.534 116.524 186.558 116.903 185.743C117.296 184.912 117.842 184.279 118.541 183.842C119.255 183.391 120.085 183.165 121.032 183.165C121.978 183.165 122.794 183.405 123.478 183.886C124.163 184.352 124.622 184.978 124.855 185.764H124.614V179.451C124.614 179.116 124.694 178.869 124.855 178.708C125.029 178.534 125.277 178.446 125.597 178.446C125.918 178.446 126.165 178.534 126.34 178.708C126.515 178.869 126.602 179.116 126.602 179.451V193.126C126.602 193.461 126.515 193.716 126.34 193.891C126.165 194.066 125.918 194.153 125.597 194.153C125.291 194.153 125.051 194.066 124.876 193.891C124.702 193.716 124.614 193.461 124.614 193.126V191.138L124.855 191.531C124.636 192.347 124.177 192.995 123.478 193.476C122.794 193.956 121.978 194.197 121.032 194.197ZM121.49 192.624C122.131 192.624 122.685 192.471 123.151 192.165C123.631 191.859 123.995 191.415 124.243 190.832C124.505 190.25 124.636 189.529 124.636 188.67C124.636 187.388 124.352 186.412 123.784 185.743C123.216 185.073 122.452 184.738 121.49 184.738C120.864 184.738 120.311 184.891 119.83 185.196C119.364 185.488 119 185.925 118.738 186.507C118.476 187.09 118.345 187.811 118.345 188.67C118.345 189.951 118.629 190.934 119.197 191.619C119.779 192.289 120.544 192.624 121.49 192.624ZM136.469 194.109C136.163 194.109 135.923 194.015 135.748 193.825C135.573 193.636 135.486 193.374 135.486 193.039V184.323C135.486 183.973 135.573 183.711 135.748 183.536C135.923 183.347 136.163 183.252 136.469 183.252C136.789 183.252 137.037 183.347 137.211 183.536C137.386 183.711 137.474 183.973 137.474 184.323V193.039C137.474 193.374 137.386 193.636 137.211 193.825C137.051 194.015 136.804 194.109 136.469 194.109ZM136.469 180.893C136.075 180.893 135.762 180.791 135.529 180.587C135.311 180.369 135.202 180.085 135.202 179.735C135.202 179.356 135.311 179.072 135.529 178.883C135.762 178.679 136.075 178.577 136.469 178.577C136.891 178.577 137.204 178.679 137.408 178.883C137.626 179.072 137.736 179.356 137.736 179.735C137.736 180.085 137.626 180.369 137.408 180.587C137.204 180.791 136.891 180.893 136.469 180.893ZM141.696 194.153C141.39 194.153 141.15 194.066 140.975 193.891C140.801 193.716 140.713 193.461 140.713 193.126V184.213C140.713 183.878 140.801 183.631 140.975 183.471C141.15 183.296 141.39 183.208 141.696 183.208C142.002 183.208 142.235 183.296 142.395 183.471C142.57 183.631 142.657 183.878 142.657 184.213V186.07L142.417 185.677C142.694 184.876 143.138 184.257 143.75 183.82C144.376 183.383 145.119 183.165 145.978 183.165C146.881 183.165 147.609 183.383 148.162 183.82C148.716 184.242 149.087 184.891 149.277 185.764H148.971C149.233 184.963 149.699 184.33 150.369 183.864C151.053 183.398 151.847 183.165 152.75 183.165C153.551 183.165 154.206 183.325 154.716 183.645C155.24 183.951 155.634 184.417 155.896 185.043C156.158 185.655 156.289 186.442 156.289 187.403V193.126C156.289 193.461 156.201 193.716 156.027 193.891C155.852 194.066 155.612 194.153 155.306 194.153C154.985 194.153 154.738 194.066 154.563 193.891C154.388 193.716 154.301 193.461 154.301 193.126V187.49C154.301 186.558 154.141 185.874 153.82 185.437C153.5 185 152.961 184.781 152.204 184.781C151.374 184.781 150.711 185.073 150.216 185.655C149.735 186.223 149.495 187.01 149.495 188.014V193.126C149.495 193.461 149.408 193.716 149.233 193.891C149.073 194.066 148.832 194.153 148.512 194.153C148.192 194.153 147.944 194.066 147.769 193.891C147.594 193.716 147.507 193.461 147.507 193.126V187.49C147.507 186.558 147.347 185.874 147.027 185.437C146.706 185 146.167 184.781 145.41 184.781C144.58 184.781 143.917 185.073 143.422 185.655C142.941 186.223 142.701 187.01 142.701 188.014V193.126C142.701 193.811 142.366 194.153 141.696 194.153ZM162.871 194.197C162.143 194.197 161.481 194.051 160.884 193.76C160.301 193.468 159.842 193.075 159.507 192.58C159.187 192.085 159.027 191.531 159.027 190.92C159.027 190.133 159.223 189.514 159.616 189.063C160.01 188.612 160.672 188.291 161.604 188.102C162.536 187.898 163.789 187.796 165.362 187.796H166.388V189.063H165.405C164.284 189.063 163.396 189.114 162.74 189.216C162.1 189.318 161.648 189.5 161.386 189.762C161.124 190.01 160.993 190.359 160.993 190.811C160.993 191.379 161.189 191.845 161.583 192.209C161.99 192.573 162.544 192.755 163.243 192.755C163.796 192.755 164.284 192.624 164.706 192.362C165.129 192.085 165.464 191.721 165.711 191.269C165.959 190.803 166.083 190.272 166.083 189.675V187.162C166.083 186.303 165.908 185.684 165.558 185.306C165.209 184.912 164.619 184.716 163.789 184.716C163.308 184.716 162.813 184.781 162.303 184.912C161.794 185.043 161.262 185.247 160.709 185.524C160.49 185.626 160.301 185.662 160.141 185.633C159.981 185.59 159.85 185.502 159.748 185.371C159.66 185.226 159.609 185.073 159.595 184.912C159.595 184.738 159.631 184.57 159.704 184.41C159.791 184.25 159.937 184.133 160.141 184.06C160.782 183.74 161.415 183.514 162.041 183.383C162.682 183.238 163.279 183.165 163.833 183.165C164.779 183.165 165.558 183.318 166.17 183.624C166.782 183.915 167.24 184.374 167.546 185C167.852 185.611 168.005 186.398 168.005 187.359V193.126C168.005 193.461 167.925 193.716 167.765 193.891C167.605 194.066 167.372 194.153 167.066 194.153C166.774 194.153 166.541 194.066 166.367 193.891C166.206 193.716 166.126 193.461 166.126 193.126V191.575H166.323C166.206 192.114 165.988 192.58 165.668 192.973C165.347 193.366 164.947 193.672 164.466 193.891C164 194.095 163.469 194.197 162.871 194.197ZM175.917 198.129C175.131 198.129 174.366 198.041 173.624 197.867C172.895 197.692 172.233 197.422 171.636 197.058C171.446 196.942 171.315 196.803 171.243 196.643C171.184 196.498 171.17 196.345 171.199 196.185C171.243 196.024 171.315 195.879 171.417 195.748C171.534 195.631 171.665 195.551 171.811 195.507C171.971 195.478 172.131 195.515 172.291 195.617C172.932 195.981 173.544 196.228 174.126 196.359C174.709 196.49 175.262 196.556 175.786 196.556C176.82 196.556 177.592 196.286 178.102 195.748C178.626 195.223 178.888 194.451 178.888 193.432V191.073H179.085C178.881 191.888 178.422 192.536 177.709 193.017C177.01 193.498 176.194 193.738 175.262 193.738C174.301 193.738 173.463 193.519 172.75 193.083C172.036 192.631 171.483 192.012 171.09 191.226C170.696 190.425 170.5 189.5 170.5 188.451C170.5 187.65 170.609 186.929 170.827 186.289C171.061 185.633 171.381 185.08 171.789 184.628C172.211 184.162 172.713 183.806 173.296 183.558C173.879 183.296 174.534 183.165 175.262 183.165C176.209 183.165 177.032 183.405 177.731 183.886C178.43 184.366 178.881 185.014 179.085 185.83L178.845 186.136V184.213C178.845 183.878 178.932 183.631 179.107 183.471C179.282 183.296 179.529 183.208 179.85 183.208C180.155 183.208 180.396 183.296 180.57 183.471C180.745 183.631 180.833 183.878 180.833 184.213V193.17C180.833 194.816 180.41 196.053 179.566 196.884C178.735 197.714 177.519 198.129 175.917 198.129ZM175.699 192.165C176.354 192.165 176.915 192.019 177.381 191.728C177.862 191.422 178.226 190.993 178.473 190.439C178.735 189.871 178.867 189.209 178.867 188.451C178.867 187.301 178.583 186.398 178.015 185.743C177.447 185.073 176.675 184.738 175.699 184.738C175.044 184.738 174.476 184.891 173.995 185.196C173.529 185.488 173.165 185.91 172.903 186.463C172.641 187.017 172.51 187.679 172.51 188.451C172.51 189.587 172.794 190.49 173.362 191.16C173.944 191.83 174.723 192.165 175.699 192.165ZM188.934 194.197C187.783 194.197 186.793 193.978 185.963 193.541C185.147 193.09 184.514 192.456 184.062 191.641C183.611 190.811 183.385 189.835 183.385 188.713C183.385 187.607 183.603 186.638 184.04 185.808C184.492 184.978 185.104 184.33 185.875 183.864C186.662 183.398 187.557 183.165 188.562 183.165C189.276 183.165 189.917 183.289 190.485 183.536C191.067 183.769 191.562 184.111 191.97 184.563C192.378 185.014 192.684 185.568 192.888 186.223C193.106 186.864 193.215 187.592 193.215 188.408C193.215 188.641 193.143 188.823 192.997 188.954C192.866 189.07 192.669 189.129 192.407 189.129H184.936V187.862H191.905L191.533 188.167C191.533 187.41 191.417 186.769 191.184 186.245C190.965 185.706 190.638 185.298 190.201 185.022C189.778 184.745 189.247 184.607 188.606 184.607C187.907 184.607 187.31 184.774 186.815 185.109C186.32 185.429 185.941 185.888 185.679 186.485C185.417 187.068 185.286 187.745 185.286 188.517V188.648C185.286 189.959 185.599 190.949 186.225 191.619C186.851 192.289 187.754 192.624 188.934 192.624C189.4 192.624 189.873 192.566 190.354 192.449C190.849 192.332 191.322 192.121 191.774 191.815C191.992 191.684 192.189 191.626 192.363 191.641C192.553 191.641 192.706 191.699 192.822 191.815C192.939 191.917 193.011 192.048 193.041 192.209C193.07 192.354 193.048 192.515 192.975 192.689C192.902 192.864 192.764 193.017 192.56 193.148C192.079 193.483 191.504 193.745 190.834 193.934C190.179 194.109 189.545 194.197 188.934 194.197ZM109.57 217.197C108.477 217.197 107.647 216.876 107.079 216.235C106.511 215.58 106.227 214.641 106.227 213.417V202.451C106.227 202.116 106.315 201.869 106.489 201.708C106.664 201.534 106.904 201.446 107.21 201.446C107.531 201.446 107.778 201.534 107.953 201.708C108.128 201.869 108.215 202.116 108.215 202.451V213.264C108.215 214.022 108.368 214.59 108.674 214.968C108.994 215.332 109.446 215.515 110.028 215.515C110.159 215.515 110.276 215.515 110.378 215.515C110.48 215.5 110.582 215.485 110.684 215.471C110.844 215.456 110.96 215.5 111.033 215.602C111.106 215.704 111.142 215.908 111.142 216.214C111.142 216.49 111.077 216.709 110.946 216.869C110.829 217.015 110.633 217.109 110.356 217.153C110.225 217.167 110.094 217.175 109.963 217.175C109.832 217.189 109.701 217.197 109.57 217.197ZM117.213 217.197C116.165 217.197 115.254 216.971 114.482 216.519C113.711 216.068 113.113 215.427 112.691 214.597C112.269 213.767 112.058 212.791 112.058 211.67C112.058 210.825 112.174 210.068 112.407 209.398C112.655 208.713 113.004 208.131 113.456 207.65C113.907 207.17 114.446 206.806 115.072 206.558C115.713 206.296 116.427 206.165 117.213 206.165C118.262 206.165 119.172 206.391 119.944 206.842C120.716 207.293 121.313 207.934 121.735 208.764C122.157 209.58 122.369 210.548 122.369 211.67C122.369 212.514 122.245 213.279 121.997 213.964C121.764 214.648 121.422 215.231 120.97 215.711C120.519 216.192 119.973 216.563 119.332 216.825C118.706 217.073 118 217.197 117.213 217.197ZM117.213 215.624C117.854 215.624 118.407 215.471 118.873 215.165C119.354 214.859 119.718 214.415 119.966 213.832C120.228 213.25 120.359 212.529 120.359 211.67C120.359 210.388 120.075 209.412 119.507 208.743C118.939 208.073 118.174 207.738 117.213 207.738C116.587 207.738 116.033 207.891 115.553 208.196C115.087 208.488 114.723 208.925 114.461 209.507C114.198 210.09 114.067 210.811 114.067 211.67C114.067 212.951 114.351 213.934 114.919 214.619C115.502 215.289 116.266 215.624 117.213 215.624ZM128.301 217.197C127.573 217.197 126.91 217.051 126.313 216.76C125.731 216.468 125.272 216.075 124.937 215.58C124.616 215.085 124.456 214.531 124.456 213.92C124.456 213.133 124.653 212.514 125.046 212.063C125.439 211.612 126.102 211.291 127.034 211.102C127.966 210.898 129.219 210.796 130.791 210.796H131.818V212.063H130.835C129.714 212.063 128.825 212.114 128.17 212.216C127.529 212.318 127.078 212.5 126.816 212.762C126.553 213.01 126.422 213.359 126.422 213.811C126.422 214.379 126.619 214.845 127.012 215.209C127.42 215.573 127.973 215.755 128.672 215.755C129.226 215.755 129.714 215.624 130.136 215.362C130.558 215.085 130.893 214.721 131.141 214.269C131.388 213.803 131.512 213.272 131.512 212.675V210.162C131.512 209.303 131.338 208.684 130.988 208.306C130.638 207.912 130.049 207.716 129.219 207.716C128.738 207.716 128.243 207.781 127.733 207.912C127.223 208.043 126.692 208.247 126.138 208.524C125.92 208.626 125.731 208.662 125.57 208.633C125.41 208.59 125.279 208.502 125.177 208.371C125.09 208.226 125.039 208.073 125.024 207.912C125.024 207.738 125.061 207.57 125.133 207.41C125.221 207.25 125.367 207.133 125.57 207.06C126.211 206.74 126.845 206.514 127.471 206.383C128.112 206.238 128.709 206.165 129.262 206.165C130.209 206.165 130.988 206.318 131.6 206.624C132.211 206.915 132.67 207.374 132.976 208C133.282 208.611 133.435 209.398 133.435 210.359V216.126C133.435 216.461 133.355 216.716 133.194 216.891C133.034 217.066 132.801 217.153 132.495 217.153C132.204 217.153 131.971 217.066 131.796 216.891C131.636 216.716 131.556 216.461 131.556 216.126V214.575H131.753C131.636 215.114 131.418 215.58 131.097 215.973C130.777 216.366 130.376 216.672 129.896 216.891C129.43 217.095 128.898 217.197 128.301 217.197ZM140.626 217.197C139.694 217.197 138.871 216.978 138.158 216.541C137.459 216.09 136.912 215.449 136.519 214.619C136.126 213.774 135.929 212.791 135.929 211.67C135.929 210.534 136.119 209.558 136.497 208.743C136.891 207.912 137.437 207.279 138.136 206.842C138.849 206.391 139.68 206.165 140.626 206.165C141.573 206.165 142.388 206.405 143.073 206.886C143.757 207.352 144.216 207.978 144.449 208.764H144.209V202.451C144.209 202.116 144.289 201.869 144.449 201.708C144.624 201.534 144.871 201.446 145.192 201.446C145.512 201.446 145.76 201.534 145.935 201.708C146.109 201.869 146.197 202.116 146.197 202.451V216.126C146.197 216.461 146.109 216.716 145.935 216.891C145.76 217.066 145.512 217.153 145.192 217.153C144.886 217.153 144.646 217.066 144.471 216.891C144.296 216.716 144.209 216.461 144.209 216.126V214.138L144.449 214.531C144.231 215.347 143.772 215.995 143.073 216.476C142.388 216.956 141.573 217.197 140.626 217.197ZM141.085 215.624C141.726 215.624 142.279 215.471 142.745 215.165C143.226 214.859 143.59 214.415 143.837 213.832C144.1 213.25 144.231 212.529 144.231 211.67C144.231 210.388 143.947 209.412 143.379 208.743C142.811 208.073 142.046 207.738 141.085 207.738C140.459 207.738 139.905 207.891 139.425 208.196C138.959 208.488 138.595 208.925 138.332 209.507C138.07 210.09 137.939 210.811 137.939 211.67C137.939 212.951 138.223 213.934 138.791 214.619C139.374 215.289 140.138 215.624 141.085 215.624ZM150.367 217.109C150.061 217.109 149.821 217.015 149.646 216.825C149.472 216.636 149.384 216.374 149.384 216.039V207.323C149.384 206.973 149.472 206.711 149.646 206.536C149.821 206.347 150.061 206.252 150.367 206.252C150.688 206.252 150.935 206.347 151.11 206.536C151.285 206.711 151.372 206.973 151.372 207.323V216.039C151.372 216.374 151.285 216.636 151.11 216.825C150.95 217.015 150.702 217.109 150.367 217.109ZM150.367 203.893C149.974 203.893 149.661 203.791 149.428 203.587C149.209 203.369 149.1 203.085 149.1 202.735C149.1 202.356 149.209 202.072 149.428 201.883C149.661 201.679 149.974 201.577 150.367 201.577C150.79 201.577 151.103 201.679 151.307 201.883C151.525 202.072 151.634 202.356 151.634 202.735C151.634 203.085 151.525 203.369 151.307 203.587C151.103 203.791 150.79 203.893 150.367 203.893ZM155.551 217.153C155.245 217.153 155.005 217.066 154.83 216.891C154.656 216.716 154.568 216.461 154.568 216.126V207.213C154.568 206.878 154.656 206.631 154.83 206.471C155.005 206.296 155.245 206.208 155.551 206.208C155.857 206.208 156.09 206.296 156.25 206.471C156.425 206.631 156.512 206.878 156.512 207.213V209.005L156.272 208.677C156.578 207.847 157.073 207.221 157.758 206.798C158.457 206.376 159.25 206.165 160.139 206.165C160.998 206.165 161.704 206.318 162.258 206.624C162.811 206.929 163.226 207.395 163.503 208.022C163.78 208.648 163.918 209.442 163.918 210.403V216.126C163.918 216.461 163.83 216.716 163.656 216.891C163.496 217.066 163.255 217.153 162.935 217.153C162.614 217.153 162.367 217.066 162.192 216.891C162.017 216.716 161.93 216.461 161.93 216.126V210.512C161.93 209.565 161.748 208.874 161.384 208.437C161.02 208 160.437 207.781 159.636 207.781C158.704 207.781 157.954 208.073 157.386 208.655C156.833 209.223 156.556 209.995 156.556 210.971V216.126C156.556 216.811 156.221 217.153 155.551 217.153ZM171.853 221.129C171.067 221.129 170.302 221.041 169.56 220.867C168.832 220.692 168.169 220.422 167.572 220.058C167.382 219.942 167.251 219.803 167.179 219.643C167.12 219.498 167.106 219.345 167.135 219.185C167.179 219.024 167.251 218.879 167.353 218.748C167.47 218.631 167.601 218.551 167.747 218.507C167.907 218.478 168.067 218.515 168.227 218.617C168.868 218.981 169.48 219.228 170.062 219.359C170.645 219.49 171.198 219.556 171.722 219.556C172.756 219.556 173.528 219.286 174.038 218.748C174.562 218.223 174.824 217.451 174.824 216.432V214.073H175.021C174.817 214.888 174.358 215.536 173.645 216.017C172.946 216.498 172.13 216.738 171.198 216.738C170.237 216.738 169.4 216.519 168.686 216.083C167.972 215.631 167.419 215.012 167.026 214.226C166.632 213.425 166.436 212.5 166.436 211.451C166.436 210.65 166.545 209.929 166.764 209.289C166.997 208.633 167.317 208.08 167.725 207.628C168.147 207.162 168.649 206.806 169.232 206.558C169.815 206.296 170.47 206.165 171.198 206.165C172.145 206.165 172.968 206.405 173.667 206.886C174.366 207.366 174.817 208.014 175.021 208.83L174.781 209.136V207.213C174.781 206.878 174.868 206.631 175.043 206.471C175.218 206.296 175.465 206.208 175.786 206.208C176.091 206.208 176.332 206.296 176.506 206.471C176.681 206.631 176.769 206.878 176.769 207.213V216.17C176.769 217.816 176.346 219.053 175.502 219.884C174.671 220.714 173.455 221.129 171.853 221.129ZM171.635 215.165C172.29 215.165 172.851 215.019 173.317 214.728C173.798 214.422 174.162 213.993 174.409 213.439C174.671 212.871 174.803 212.209 174.803 211.451C174.803 210.301 174.519 209.398 173.951 208.743C173.383 208.073 172.611 207.738 171.635 207.738C170.98 207.738 170.412 207.891 169.931 208.196C169.465 208.488 169.101 208.91 168.839 209.463C168.577 210.017 168.446 210.679 168.446 211.451C168.446 212.587 168.73 213.49 169.298 214.16C169.88 214.83 170.659 215.165 171.635 215.165Z" fill="#B4C1D2" fill-opacity="0.4"/>
<defs>
<filter id="filter0_b_1979_7464" x="45.5508" y="-6.89258" width="191.559" height="123.335" filterUnits="userSpaceOnUse" color-interpolation-filters="sRGB">
<feFlood flood-opacity="0" result="BackgroundImageFix"/>
<feGaussianBlur in="BackgroundImageFix" stdDeviation="4"/>
<feComposite in2="SourceAlpha" operator="in" result="effect1_backgroundBlur_1979_7464"/>
<feBlend mode="normal" in="SourceGraphic" in2="effect1_backgroundBlur_1979_7464" result="shape"/>
</filter>
<linearGradient id="paint0_linear_1979_7464" x1="91.6827" y1="6.62733" x2="102.708" y2="104.631" gradientUnits="userSpaceOnUse">
<stop stop-color="#92B4E0"/>
<stop offset="1" stop-color="#B4C1D2" stop-opacity="0"/>
</linearGradient>
<linearGradient id="paint1_linear_1979_7464" x1="177.064" y1="103.279" x2="191.491" y2="5.7244" gradientUnits="userSpaceOnUse">
<stop stop-color="#B4C1D2" stop-opacity="0"/>
<stop offset="1" stop-color="#94AFD2"/>
</linearGradient>
<linearGradient id="paint2_linear_1979_7464" x1="141" y1="117.066" x2="141" y2="175" gradientUnits="userSpaceOnUse">
<stop stop-color="#B4C1D2"/>
<stop offset="1" stop-color="#B4C1D2" stop-opacity="0"/>
</linearGradient>
</defs>
</svg>
