<svg width="34" height="34" viewBox="0 0 34 34" fill="none" xmlns="http://www.w3.org/2000/svg">
<path d="M17 33.666C14.6947 33.666 12.528 33.2284 10.5 32.353C8.47201 31.4784 6.70801 30.291 5.20801 28.791C3.70801 27.291 2.52067 25.527 1.64601 23.499C0.770674 21.471 0.333008 19.3044 0.333008 16.999C0.333008 14.6937 0.770674 12.527 1.64601 10.499C2.52067 8.47103 3.70801 6.70703 5.20801 5.20703C6.70801 3.70703 8.47201 2.5197 10.5 1.64503C12.528 0.769698 14.6947 0.332031 17 0.332031C19.3053 0.332031 21.472 0.769698 23.5 1.64503C25.528 2.5197 27.292 3.70703 28.792 5.20703C30.292 6.70703 31.4793 8.47103 32.354 10.499C33.2293 12.527 33.667 14.6937 33.667 16.999C33.667 19.3044 33.2293 21.471 32.354 23.499C31.4793 25.527 30.292 27.291 28.792 28.791C27.292 30.291 25.528 31.4784 23.5 32.353C21.472 33.2284 19.3053 33.666 17 33.666ZM17 30.874C20.8887 30.874 24.1733 29.5337 26.854 26.853C29.5347 24.1724 30.875 20.8877 30.875 16.999C30.875 15.3877 30.604 13.8254 30.062 12.312C29.5207 10.798 28.736 9.4297 27.708 8.20703L17.958 17.957L8.20801 27.707C9.43067 28.735 10.792 29.5197 12.292 30.061C13.792 30.603 15.3613 30.874 17 30.874ZM6.29201 25.791L25.792 6.29103C24.5693 5.26303 23.2013 4.47836 21.688 3.93703C20.174 3.39503 18.6113 3.12403 17 3.12403C13.1113 3.12403 9.82667 4.46436 7.14601 7.14503C4.46534 9.8257 3.12501 13.1104 3.12501 16.999C3.12501 18.6377 3.40967 20.207 3.97901 21.707C4.54834 23.207 5.31934 24.5684 6.29201 25.791Z" fill="#7DA6DC" fill-opacity="0.1"/>
</svg>
