<svg width="37" height="38" viewBox="0 0 37 38" fill="none" xmlns="http://www.w3.org/2000/svg">
<mask id="mask0_1548_1507" style="mask-type:alpha" maskUnits="userSpaceOnUse" x="0" y="0" width="37" height="38">
<rect y="0.949951" width="36.8" height="36.8" fill="#D9D9D9"/>
</mask>
<g mask="url(#mask0_1548_1507)">
<path d="M18.4001 18.3917C17.1223 18.3917 16.0362 17.9444 15.1417 17.05C14.2473 16.1555 13.8001 15.0694 13.8001 13.7917C13.8001 12.5394 14.2473 11.4595 15.1417 10.5517C16.0362 9.64501 17.1223 9.19165 18.4001 9.19165C19.6779 9.19165 20.764 9.64501 21.6584 10.5517C22.5529 11.4595 23.0001 12.5394 23.0001 13.7917C23.0001 15.0694 22.5529 16.1555 21.6584 17.05C20.764 17.9444 19.6779 18.3917 18.4001 18.3917ZM7.66675 29.5083V26.9783C7.66675 26.3394 7.85228 25.745 8.22335 25.1951C8.59339 24.6461 9.08508 24.2183 9.69841 23.9117C11.1551 23.2217 12.6056 22.7039 14.05 22.3584C15.4934 22.0139 16.9434 21.8417 18.4001 21.8417C19.8567 21.8417 21.3073 22.0139 22.7517 22.3584C24.1951 22.7039 25.6451 23.2217 27.1017 23.9117C27.7151 24.2183 28.2073 24.6461 28.5783 25.1951C28.9484 25.745 29.1334 26.3394 29.1334 26.9783V29.5083H7.66675ZM9.20008 27.975H27.6001V26.9783C27.6001 26.6205 27.4917 26.2945 27.275 26C27.0573 25.7067 26.7567 25.4578 26.3734 25.2533C25.0956 24.64 23.7862 24.1739 22.445 23.8549C21.1028 23.535 19.7545 23.375 18.4001 23.375C17.0456 23.375 15.6978 23.535 14.3567 23.8549C13.0145 24.1739 11.7045 24.64 10.4267 25.2533C10.0434 25.4578 9.74339 25.7067 9.52668 26C9.30895 26.2945 9.20008 26.6205 9.20008 26.9783V27.975ZM18.4001 16.8583C19.2434 16.8583 19.9656 16.5578 20.5667 15.9567C21.1667 15.3567 21.4667 14.635 21.4667 13.7917C21.4667 12.9483 21.1667 12.2266 20.5667 11.6266C19.9656 11.0255 19.2434 10.725 18.4001 10.725C17.5567 10.725 16.8351 11.0255 16.235 11.6266C15.6339 12.2266 15.3334 12.9483 15.3334 13.7917C15.3334 14.635 15.6339 15.3567 16.235 15.9567C16.8351 16.5578 17.5567 16.8583 18.4001 16.8583Z" fill="white"/>
</g>
</svg>
