<svg width="24" height="21" viewBox="0 0 24 21" fill="none" xmlns="http://www.w3.org/2000/svg">
<path d="M10.9156 21C9.48923 21 8.14879 20.7373 6.89427 20.212C5.63975 19.6873 4.54849 18.975 3.62049 18.075C2.69249 17.175 1.958 16.1167 1.41701 14.9C0.875331 13.6833 0.604492 12.3833 0.604492 11C0.604492 9.61667 0.875331 8.31667 1.41701 7.1C1.958 5.88333 2.69249 4.825 3.62049 3.925C4.54849 3.025 5.63975 2.31233 6.89427 1.787C8.14879 1.26233 9.48923 1 10.9156 1C11.6546 1 12.3678 1.07067 13.0552 1.212C13.7426 1.354 14.4042 1.55833 15.04 1.825V4.075C14.4386 3.74167 13.79 3.479 13.0943 3.287C12.398 3.09567 11.6718 3 10.9156 3C8.62997 3 6.68392 3.779 5.07745 5.337C3.47029 6.89567 2.66671 8.78333 2.66671 11C2.66671 13.2167 3.47029 15.1043 5.07745 16.663C6.68392 18.221 8.62997 19 10.9156 19C13.2012 19 15.1476 18.221 16.7548 16.663C18.3613 15.1043 19.1645 13.2167 19.1645 11C19.1645 10.4667 19.1085 9.95 18.9964 9.45C18.8851 8.95 18.7349 8.46667 18.5458 8H20.7627C20.9174 8.48333 21.0336 8.97067 21.1112 9.462C21.1882 9.954 21.2267 10.4667 21.2267 11C21.2267 12.3833 20.9559 13.6833 20.4142 14.9C19.8732 16.1167 19.1387 17.175 18.2107 18.075C17.2827 18.975 16.1915 19.6873 14.9369 20.212C13.6824 20.7373 12.342 21 10.9156 21ZM19.1645 6V4H17.1023V2H19.1645V0H21.2267V2H23.2889V4H21.2267V6H19.1645ZM14.5245 10C14.9541 10 15.3191 9.854 15.6195 9.562C15.9206 9.27067 16.0712 8.91667 16.0712 8.5C16.0712 8.08333 15.9206 7.72933 15.6195 7.438C15.3191 7.146 14.9541 7 14.5245 7C14.0949 7 13.7298 7.146 13.4295 7.438C13.1284 7.72933 12.9778 8.08333 12.9778 8.5C12.9778 8.91667 13.1284 9.27067 13.4295 9.562C13.7298 9.854 14.0949 10 14.5245 10ZM7.30671 10C7.73634 10 8.10136 9.854 8.40175 9.562C8.70284 9.27067 8.85338 8.91667 8.85338 8.5C8.85338 8.08333 8.70284 7.72933 8.40175 7.438C8.10136 7.146 7.73634 7 7.30671 7C6.87708 7 6.51207 7.146 6.21167 7.438C5.91059 7.72933 5.76005 8.08333 5.76005 8.5C5.76005 8.91667 5.91059 9.27067 6.21167 9.562C6.51207 9.854 6.87708 10 7.30671 10ZM10.9156 16.5C12.0842 16.5 13.1456 16.1793 14.0997 15.538C15.0531 14.896 15.7446 14.05 16.1743 13H5.65694C6.08657 14.05 6.77844 14.896 7.73256 15.538C8.686 16.1793 9.74701 16.5 10.9156 16.5Z" fill="#B4C1D2" fill-opacity="0.6"/>
</svg>
