<svg width="20" height="18" viewBox="0 0 20 18" fill="none" xmlns="http://www.w3.org/2000/svg">
<path d="M11.7953 0V2H2.51535V16H16.9509V7H19.0131V16C19.0131 16.55 18.8114 17.021 18.4079 17.413C18.0037 17.8043 17.518 18 16.9509 18H2.51535C1.94824 18 1.46258 17.8043 1.05839 17.413C0.654879 17.021 0.453125 16.55 0.453125 16V2C0.453125 1.45 0.654879 0.979 1.05839 0.587C1.46258 0.195667 1.94824 0 2.51535 0H11.7953ZM16.9509 0V2H19.0131V4H16.9509V6H14.8887V4H12.8265V2H14.8887V0H16.9509ZM3.54646 14H15.9198L12.0531 9L8.95979 13L6.63979 10L3.54646 14Z" fill="#B4C1D2" fill-opacity="0.6"/>
</svg>
