<svg width="13" height="14" viewBox="0 0 13 14" fill="none" xmlns="http://www.w3.org/2000/svg">
<path d="M6.5 0.625C6.97396 0.625 7.39714 0.74349 7.76953 0.980469C8.14193 1.21745 8.43815 1.5306 8.6582 1.91992C9.08138 1.78451 9.50456 1.76758 9.92773 1.86914C10.3509 1.9707 10.7402 2.19076 11.0957 2.5293C11.4173 2.86784 11.6289 3.2487 11.7305 3.67188C11.832 4.11198 11.8236 4.54362 11.7051 4.9668C12.0944 5.18685 12.4076 5.48307 12.6445 5.85547C12.8815 6.22786 13 6.65104 13 7.125C13 7.59896 12.8815 8.02214 12.6445 8.39453C12.4076 8.76693 12.0944 9.06315 11.7051 9.2832C11.959 10.1634 11.7559 10.9759 11.0957 11.7207C10.7402 12.0423 10.3509 12.2539 9.92773 12.3555C9.50456 12.457 9.08138 12.4486 8.6582 12.3301C8.43815 12.7194 8.14193 13.0326 7.76953 13.2695C7.39714 13.5065 6.97396 13.625 6.5 13.625C6.02604 13.625 5.60286 13.5065 5.23047 13.2695C4.85807 13.0326 4.56185 12.7194 4.3418 12.3301C3.91862 12.4486 3.48698 12.457 3.04688 12.3555C2.6237 12.2708 2.24284 12.0592 1.9043 11.7207C1.24414 10.9759 1.04102 10.1634 1.29492 9.2832C0.905599 9.06315 0.592448 8.76693 0.355469 8.39453C0.11849 8.02214 0 7.59896 0 7.125C0 6.65104 0.11849 6.22786 0.355469 5.85547C0.592448 5.48307 0.905599 5.18685 1.29492 4.9668C1.15951 4.54362 1.14258 4.11198 1.24414 3.67188C1.3457 3.2487 1.56576 2.86784 1.9043 2.5293C2.24284 2.19076 2.6237 1.9707 3.04688 1.86914C3.48698 1.78451 3.91862 1.80143 4.3418 1.91992C4.56185 1.5306 4.85807 1.21745 5.23047 0.980469C5.60286 0.74349 6.02604 0.625 6.5 0.625ZM8.9375 6.3125C9.19141 6.04167 9.19141 5.76237 8.9375 5.47461C8.66667 5.23763 8.38737 5.23763 8.09961 5.47461L5.6875 7.88672L4.67188 6.89648C4.40104 6.65951 4.12174 6.65951 3.83398 6.89648C3.59701 7.18424 3.59701 7.46354 3.83398 7.73438L5.25586 9.15625C5.54362 9.41016 5.82292 9.41016 6.09375 9.15625L8.9375 6.3125Z" fill="#705CE9"/>
</svg>
