<svg width="18" height="18" viewBox="0 0 18 18" fill="none" xmlns="http://www.w3.org/2000/svg">
<mask id="mask0_1911_4254" style="mask-type:alpha" maskUnits="userSpaceOnUse" x="0" y="0" width="18" height="18">
<rect width="18" height="18" fill="#D9D9D9"/>
</mask>
<g mask="url(#mask0_1911_4254)">
<path d="M3.75 16.5C3.3375 16.5 2.98425 16.3532 2.69025 16.0597C2.39675 15.7657 2.25 15.4125 2.25 15H3.75V16.5ZM2.25 13.875V12.375H3.75V13.875H2.25ZM2.25 11.25V9.75H3.75V11.25H2.25ZM2.25 8.625V7.125H3.75V8.625H2.25ZM2.25 6C2.25 5.5875 2.39675 5.2345 2.69025 4.941C2.98425 4.647 3.3375 4.5 3.75 4.5V6H2.25ZM4.875 16.5V15H6.375V16.5H4.875ZM6.75 13.5C6.3375 13.5 5.9845 13.3532 5.691 13.0597C5.397 12.7657 5.25 12.4125 5.25 12V3C5.25 2.5875 5.397 2.23425 5.691 1.94025C5.9845 1.64675 6.3375 1.5 6.75 1.5H13.5C13.9125 1.5 14.2658 1.64675 14.5598 1.94025C14.8533 2.23425 15 2.5875 15 3V12C15 12.4125 14.8533 12.7657 14.5598 13.0597C14.2658 13.3532 13.9125 13.5 13.5 13.5H6.75ZM6.75 12H13.5V3H6.75V12ZM7.5 16.5V15H9V16.5H7.5ZM10.125 16.5V15H11.625C11.625 15.4125 11.4783 15.7657 11.1848 16.0597C10.8908 16.3532 10.5375 16.5 10.125 16.5Z" fill="#705CE9"/>
</g>
</svg>
