<svg width="24" height="25" viewBox="0 0 24 25" fill="none" xmlns="http://www.w3.org/2000/svg">
<mask id="mask0_1647_2468" style="mask-type:alpha" maskUnits="userSpaceOnUse" x="0" y="0" width="24" height="25">
<rect y="0.818359" width="24" height="24" fill="#D9D9D9"/>
</mask>
<g mask="url(#mask0_1647_2468)">
<path d="M5 22.8184C4.45 22.8184 3.979 22.6227 3.587 22.2314C3.19567 21.8394 3 21.3684 3 20.8184V6.81836H5V20.8184H16V22.8184H5ZM9 18.8184C8.45 18.8184 7.97933 18.6227 7.588 18.2314C7.196 17.8394 7 17.3684 7 16.8184V4.81836C7 4.26836 7.196 3.79736 7.588 3.40536C7.97933 3.01403 8.45 2.81836 9 2.81836H18C18.55 2.81836 19.021 3.01403 19.413 3.40536C19.8043 3.79736 20 4.26836 20 4.81836V16.8184C20 17.3684 19.8043 17.8394 19.413 18.2314C19.021 18.6227 18.55 18.8184 18 18.8184H9Z" fill="#705CE9"/>
</g>
</svg>
