<svg width="37" height="38" viewBox="0 0 37 38" fill="none" xmlns="http://www.w3.org/2000/svg">
<mask id="mask0_1548_1527" style="mask-type:alpha" maskUnits="userSpaceOnUse" x="0" y="0" width="37" height="38">
<rect y="0.950195" width="36.8" height="36.8" fill="#D9D9D9"/>
</mask>
<g mask="url(#mask0_1548_1527)">
<path d="M8.89328 33.1502C8.20328 33.1502 7.62163 32.914 7.14834 32.4418C6.67608 31.9685 6.43994 31.3741 6.43994 30.6585V9.57516C6.43994 8.85961 6.67608 8.2657 7.14834 7.79343C7.62163 7.32014 8.20328 7.0835 8.89328 7.0835H18.7449V8.61683H8.89328C8.66328 8.61683 8.4527 8.71292 8.26154 8.9051C8.06936 9.09625 7.97327 9.31961 7.97327 9.57516V30.6585C7.97327 30.9141 8.06936 31.1374 8.26154 31.3286C8.4527 31.5207 8.66328 31.6168 8.89328 31.6168H18.7449V33.1502H8.89328ZM24.9549 25.5602L23.8816 24.4485L27.4083 20.8835H14.1449V19.3502H27.4083L23.8816 15.7852L24.9549 14.6735L30.3599 20.1168L24.9549 25.5602Z" fill="#DC4964"/>
</g>
</svg>
