<svg width="14" height="16" viewBox="0 0 14 16" fill="none" xmlns="http://www.w3.org/2000/svg">
<path d="M5.481 12.9508L4.5252 11.995L6.0444 10.4758L4.5252 8.95658L5.481 8.00078L7.0002 9.51998L8.5194 8.00078L9.4752 8.95658L7.956 10.4758L9.4752 11.995L8.5194 12.9508L7.0002 11.4316L5.481 12.9508ZM2.0502 15.2008C1.6752 15.2008 1.3566 15.0664 1.0944 14.7976C0.831595 14.5288 0.700195 14.2132 0.700195 13.8508V3.95078C0.700195 3.58838 0.831595 3.27278 1.0944 3.00398C1.3566 2.73518 1.6752 2.60078 2.0502 2.60078H3.4002V0.800781H4.7502V2.60078H9.2502V0.800781H10.6002V2.60078H11.9502C12.3252 2.60078 12.6438 2.73518 12.906 3.00398C13.1688 3.27278 13.3002 3.58838 13.3002 3.95078V13.8508C13.3002 14.2132 13.1688 14.5288 12.906 14.7976C12.6438 15.0664 12.3252 15.2008 11.9502 15.2008H2.0502ZM2.0502 13.8508H11.9502V7.10078H2.0502V13.8508ZM2.0502 5.75078H11.9502V3.95078H2.0502V5.75078Z" fill="#FC175C"/>
</svg>
