<svg width="16" height="18" viewBox="0 0 16 18" fill="none" xmlns="http://www.w3.org/2000/svg">
<path d="M7.0373 15.2339L3.921 12.1165L5.0892 10.9483L7.0373 12.8964L10.9104 9.0002L12.0786 10.1684L7.0373 15.2339ZM1.9498 17.8002C1.49147 17.8002 1.10207 17.6359 0.781605 17.3074C0.460405 16.9789 0.299805 16.5931 0.299805 16.1502V4.0502C0.299805 3.60726 0.460405 3.22153 0.781605 2.893C1.10207 2.56446 1.49147 2.4002 1.9498 2.4002H3.5998V0.200195H5.2498V2.4002H10.7498V0.200195H12.3998V2.4002H14.0498C14.5081 2.4002 14.8975 2.56446 15.218 2.893C15.5392 3.22153 15.6998 3.60726 15.6998 4.0502V16.1502C15.6998 16.5931 15.5392 16.9789 15.218 17.3074C14.8975 17.6359 14.5081 17.8002 14.0498 17.8002H1.9498ZM1.9498 16.1502H14.0498V7.9002H1.9498V16.1502ZM1.9498 6.2502H14.0498V4.0502H1.9498V6.2502Z" fill="#B4C1D2" fill-opacity="0.4"/>
</svg>
