<svg width="16" height="16" viewBox="0 0 16 16" fill="none" xmlns="http://www.w3.org/2000/svg">
<path d="M0.5 11.75V1.25C0.5 1.0375 0.572 0.85925 0.716 0.71525C0.8595 0.57175 1.0375 0.5 1.25 0.5H11C11.2125 0.5 11.3905 0.57175 11.534 0.71525C11.678 0.85925 11.75 1.0375 11.75 1.25V8C11.75 8.2125 11.678 8.3905 11.534 8.534C11.3905 8.678 11.2125 8.75 11 8.75H3.5L0.5 11.75ZM4.25 12.5C4.0375 12.5 3.85925 12.428 3.71525 12.284C3.57175 12.1405 3.5 11.9625 3.5 11.75V10.25H13.25V3.5H14.75C14.9625 3.5 15.1405 3.57175 15.284 3.71525C15.428 3.85925 15.5 4.0375 15.5 4.25V15.5L12.5 12.5H4.25Z" fill="#B4C1D2"/>
</svg>
