<svg width="16" height="16" viewBox="0 0 16 16" fill="none" xmlns="http://www.w3.org/2000/svg">
<path d="M14.7656 14.6738L10.8398 10.748C11.6992 9.67383 12.1387 8.41406 12.1582 6.96875C12.1191 5.25 11.5234 3.81445 10.3711 2.66211C9.21875 1.50977 7.7832 0.914062 6.06445 0.875C4.3457 0.914062 2.91016 1.50977 1.75781 2.66211C0.625 3.81445 0.0390625 5.25 0 6.96875C0.0390625 8.6875 0.634766 10.123 1.78711 11.2754C2.91992 12.4277 4.3457 13.0234 6.06445 13.0625C7.5293 13.043 8.78906 12.6035 9.84375 11.7441L13.7695 15.6699C13.9453 15.8066 14.1211 15.875 14.2969 15.875C14.4922 15.875 14.6582 15.8066 14.7949 15.6699C15.0684 15.3379 15.0586 15.0059 14.7656 14.6738ZM1.40625 6.96875C1.44531 5.64062 1.9043 4.53711 2.7832 3.6582C3.66211 2.7793 4.76562 2.32031 6.09375 2.28125C7.42188 2.32031 8.52539 2.7793 9.4043 3.6582C10.2832 4.53711 10.7422 5.64062 10.7812 6.96875C10.7422 8.29688 10.2832 9.40039 9.4043 10.2793C8.52539 11.1582 7.42188 11.6172 6.09375 11.6562C4.76562 11.6172 3.66211 11.1582 2.7832 10.2793C1.9043 9.40039 1.44531 8.29688 1.40625 6.96875Z" fill="#B4C1D2"/>
</svg>
