<svg width="20" height="20" viewBox="0 0 20 20" fill="none" xmlns="http://www.w3.org/2000/svg">
<path d="M2 20C1.45 20 0.979333 19.8043 0.588 19.413C0.196 19.021 0 18.55 0 18V2C0 1.45 0.196 0.979 0.588 0.587C0.979333 0.195667 1.45 0 2 0H18C18.55 0 19.021 0.195667 19.413 0.587C19.8043 0.979 20 1.45 20 2V18C20 18.55 19.8043 19.021 19.413 19.413C19.021 19.8043 18.55 20 18 20H2ZM2 14V18H6V14H2ZM8 14V18H12V14H8ZM14 18H18V14H14V18ZM2 12H6V8H2V12ZM8 12H12V8H8V12ZM14 12H18V8H14V12ZM6 2H2V6H6V2ZM8 6H12V2H8V6ZM14 6H18V2H14V6Z" fill="white"/>
</svg>
