<svg width="22" height="24" viewBox="0 0 22 24" fill="none" xmlns="http://www.w3.org/2000/svg">
<path d="M10.5508 1.33043L1.84432 5.62518C1.32733 5.8802 1 6.40666 1 6.98312V17.0169C1 17.5933 1.32733 18.1198 1.84432 18.3748L10.5508 22.6696C10.9731 22.8779 11.4682 22.8779 11.8905 22.6696L20.597 18.3748C21.114 18.1198 21.4413 17.5933 21.4413 17.0169V6.98312C21.4413 6.40666 21.114 5.8802 20.597 5.62518L11.8905 1.33043C11.4682 1.12212 10.9731 1.12212 10.5508 1.33043Z" stroke="#705CE9" stroke-width="0.757085"/>
<path d="M5.19211 14.991C5.01545 14.991 4.87918 14.943 4.78328 14.8471C4.69243 14.7462 4.647 14.6049 4.647 14.4232V10.1078C4.647 9.916 4.69243 9.76963 4.78328 9.66868C4.87918 9.56774 5.00536 9.51726 5.16182 9.51726C5.2981 9.51726 5.40157 9.54502 5.47223 9.60054C5.54794 9.65102 5.63374 9.73682 5.72964 9.85795L8.387 13.2421H8.18259V10.0775C8.18259 9.90085 8.22802 9.76458 8.31887 9.66868C8.41476 9.56774 8.55104 9.51726 8.72769 9.51726C8.90435 9.51726 9.0381 9.56774 9.12895 9.66868C9.22485 9.76458 9.27279 9.90085 9.27279 10.0775V14.4459C9.27279 14.6124 9.22989 14.7462 9.14409 14.8471C9.05829 14.943 8.9422 14.991 8.79583 14.991C8.65451 14.991 8.54094 14.9632 8.45514 14.9077C8.37439 14.8522 8.28606 14.7639 8.19016 14.6427L5.54036 11.2586H5.73721V14.4232C5.73721 14.6049 5.69178 14.7462 5.60093 14.8471C5.51008 14.943 5.37381 14.991 5.19211 14.991ZM10.9454 14.991C10.7536 14.991 10.6047 14.938 10.4987 14.832C10.3978 14.726 10.3473 14.5721 10.3473 14.3702V10.1986C10.3473 10.0018 10.4003 9.85038 10.5063 9.74439C10.6123 9.6384 10.7637 9.5854 10.9606 9.5854H13.5498C13.7012 9.5854 13.8148 9.62578 13.8905 9.70654C13.9712 9.78224 14.0116 9.89328 14.0116 10.0397C14.0116 10.1911 13.9712 10.3072 13.8905 10.3879C13.8148 10.4636 13.7012 10.5015 13.5498 10.5015H11.5208V11.8037H13.3832C13.5347 11.8037 13.6507 11.844 13.7315 11.9248C13.8122 12.0005 13.8526 12.1115 13.8526 12.2579C13.8526 12.4043 13.8122 12.5178 13.7315 12.5986C13.6507 12.6794 13.5347 12.7197 13.3832 12.7197H11.5208V14.3702C11.5208 14.7841 11.329 14.991 10.9454 14.991ZM16.6162 14.991C16.4244 14.991 16.2781 14.938 16.1771 14.832C16.0762 14.726 16.0257 14.5771 16.0257 14.3853V10.5545H14.6857C14.5292 10.5545 14.4081 10.5116 14.3223 10.4258C14.2365 10.34 14.1936 10.2214 14.1936 10.0699C14.1936 9.91347 14.2365 9.79486 14.3223 9.71411C14.4081 9.6283 14.5292 9.5854 14.6857 9.5854H18.5392C18.6957 9.5854 18.8168 9.6283 18.9026 9.71411C18.9884 9.79486 19.0313 9.91347 19.0313 10.0699C19.0313 10.2214 18.9884 10.34 18.9026 10.4258C18.8168 10.5116 18.6957 10.5545 18.5392 10.5545H17.1992V14.3853C17.1992 14.5771 17.1487 14.726 17.0478 14.832C16.9519 14.938 16.808 14.991 16.6162 14.991Z" fill="white"/>
</svg>
