<svg width="15" height="12" viewBox="0 0 15 12" fill="none" xmlns="http://www.w3.org/2000/svg">
<path d="M6.2001 11.3996C5.7003 11.3996 5.2722 11.2247 4.9158 10.8749C4.5594 10.5245 4.3875 10.0994 4.4001 9.59961V8.24961H6.2001V7.01211C5.8377 6.99951 5.5095 6.93381 5.2155 6.81501C4.9221 6.69621 4.6503 6.52431 4.4001 6.29931V5.09961H3.2004L0.350098 2.39961C0.825298 1.92441 1.3815 1.56201 2.0187 1.31241C2.6565 1.06221 3.3129 0.937109 3.9879 0.937109C4.3755 0.937109 4.7535 0.987209 5.1219 1.08741C5.4909 1.18701 5.8503 1.32441 6.2001 1.49961V0.599609H14.3001V9.59961C14.3001 10.0994 14.1252 10.5245 13.7754 10.8749C13.425 11.2247 12.9999 11.3996 12.5001 11.3996H6.2001ZM7.5501 8.24961H11.6001V9.37461C11.6001 9.56181 11.6658 9.72111 11.7972 9.85251C11.9286 9.98391 12.0879 10.0496 12.2751 10.0496C12.4623 10.0496 12.6216 9.98391 12.753 9.85251C12.8844 9.72111 12.9501 9.56181 12.9501 9.37461V1.94961H7.5501V2.45541L11.6001 6.50541V7.46211H10.6443L8.7687 5.56851L8.1315 6.22461C8.0439 6.31221 7.9533 6.38721 7.8597 6.44961C7.7661 6.51201 7.6629 6.57441 7.5501 6.63681V8.24961ZM3.744 3.74961H5.7501V5.56851C5.8251 5.59311 5.9001 5.61171 5.9751 5.62431C6.0501 5.63691 6.1314 5.64321 6.219 5.64321C6.3936 5.64321 6.5622 5.61201 6.7248 5.54961C6.8874 5.48721 7.0374 5.38731 7.1748 5.24991L7.794 4.63071L6.5376 3.35541C6.1998 3.01821 5.8092 2.75901 5.3658 2.57781C4.9218 2.39661 4.4625 2.30601 3.9879 2.30601C3.7377 2.30601 3.4971 2.32791 3.2661 2.37171C3.0345 2.41551 2.8062 2.48721 2.5812 2.58681L3.744 3.74961ZM10.2501 9.59961H5.7501C5.7501 9.69981 5.7783 9.79971 5.8347 9.89931C5.8911 9.99951 6.0066 10.0496 6.1812 10.0496H10.3626C10.3374 9.97461 10.3155 9.89961 10.2969 9.82461C10.2783 9.74961 10.2627 9.67461 10.2501 9.59961Z" fill="#FFDA56"/>
</svg>
