<svg width="175" height="44" viewBox="0 0 175 44" fill="none" xmlns="http://www.w3.org/2000/svg">
<path d="M40.1727 22.132C40.1673 18.4258 39.0421 14.8077 36.9445 11.7522C34.8469 8.69662 31.8749 6.34629 28.4182 5.00939C24.9615 3.67248 21.1814 3.41142 17.5737 4.26041C13.966 5.1094 10.6991 7.02883 8.20139 9.76698L8.14925 9.82584C8.08367 9.89815 8.01977 9.97215 7.95418 10.0461C6.65358 11.5384 5.60299 13.2313 4.84316 15.0591C4.68638 15.4352 4.62493 15.8442 4.66426 16.2497C4.7036 16.6553 4.8425 17.0448 5.06863 17.3838C5.29476 17.7227 5.60111 18.0005 5.96047 18.1926C6.31982 18.3846 6.72105 18.4849 7.1285 18.4846H7.40933C7.89742 18.4903 8.37593 18.349 8.78262 18.0791C9.18931 17.8092 9.50536 17.4231 9.68963 16.9711C10.3501 15.409 11.3073 13.9899 12.5081 12.7922C12.5753 12.7233 12.6459 12.656 12.7166 12.5888L12.7923 12.5148L12.9049 12.4105L13.0731 12.2625L13.1017 12.2373C14.1671 11.2939 15.3785 10.5294 16.6886 9.97382L16.7828 9.93178C20.0046 8.6016 23.6222 8.6016 26.844 9.93178L26.9348 9.97214C28.0392 10.441 29.0745 11.0583 30.0122 11.8068L30.0761 11.8573L30.214 11.9716C30.2712 12.0187 30.3284 12.0658 30.3822 12.1145L30.4377 12.1616L30.6546 12.355C31.7548 13.3542 32.6782 14.5323 33.3856 15.8394C33.5898 16.2164 33.6925 16.64 33.6838 17.0686C33.675 17.4973 33.5551 17.9163 33.3358 18.2847C33.1164 18.6531 32.8051 18.9582 32.4324 19.1701C32.0597 19.382 31.6383 19.4935 31.2095 19.4936H30.9136C30.4716 19.5001 30.0364 19.3852 29.6554 19.1613C29.2743 18.9374 28.962 18.6131 28.7527 18.2239C27.8962 16.687 26.5538 15.4778 24.9361 14.786C23.3183 14.0941 21.5167 13.9589 19.8137 14.4013C18.1108 14.8438 16.6029 15.8389 15.5265 17.2307C14.4501 18.6225 13.8661 20.3322 13.8661 22.0917C13.8661 23.8512 14.4501 25.5609 15.5265 26.9527C16.6029 28.3445 18.1108 29.3396 19.8137 29.7821C21.5167 30.2245 23.3183 30.0892 24.9361 29.3974C26.5538 28.7056 27.8962 27.4964 28.7527 25.9594C28.9623 25.5705 29.2747 25.2464 29.6557 25.0226C30.0366 24.7987 30.4717 24.6837 30.9136 24.6898H31.2095C31.6383 24.6903 32.0597 24.802 32.4323 25.0141C32.805 25.2263 33.1162 25.5315 33.3355 25.9C33.5549 26.2684 33.6748 26.6875 33.6835 27.1162C33.6923 27.5449 33.5896 27.9686 33.3856 28.3457C31.9617 30.9757 29.6866 33.0438 26.9331 34.2112C26.4814 34.3959 26.0956 34.712 25.8257 35.1186C25.5558 35.5252 25.4144 36.0036 25.4197 36.4915V36.7808C25.42 37.1881 25.5207 37.589 25.7129 37.9481C25.905 38.3072 26.1827 38.6134 26.5213 38.8397C26.86 39.066 27.2492 39.2053 27.6545 39.2454C28.0598 39.2855 28.4687 39.2251 28.8452 39.0695C32.139 37.7022 34.9636 35.4056 36.9741 32.4601C38.9847 29.5145 40.0944 26.0474 40.1676 22.4818C40.1676 22.4381 40.1676 22.3961 40.1676 22.354C40.171 22.275 40.1727 22.2027 40.1727 22.132Z" fill="#705CE9"/>
<path d="M21.8882 35.2671C21.3762 35.2668 20.8757 35.4183 20.4499 35.7024C20.0241 35.9866 19.6921 36.3907 19.4959 36.8636C19.2998 37.3365 19.2483 37.8568 19.348 38.359C19.4477 38.8611 19.694 39.3224 20.0559 39.6845C20.4178 40.0467 20.8789 40.2933 21.381 40.3933C21.8831 40.4933 22.4035 40.4421 22.8765 40.2463C23.3495 40.0505 23.7538 39.7188 24.0383 39.2931C24.3227 38.8675 24.4745 38.367 24.4745 37.8551C24.4745 37.169 24.2021 36.511 23.7171 36.0257C23.2321 35.5404 22.5743 35.2675 21.8882 35.2671Z" fill="#705CE9"/>
<path d="M18.1987 36.6007C18.1987 36.0888 18.0468 35.5884 17.7624 35.1627C17.4779 34.7371 17.0736 34.4054 16.6006 34.2095C16.1276 34.0137 15.6072 33.9626 15.1051 34.0626C14.603 34.1625 14.1419 34.4092 13.78 34.7713C13.4181 35.1334 13.1718 35.5947 13.0721 36.0969C12.9724 36.599 13.0239 37.1194 13.2201 37.5923C13.4162 38.0652 13.7482 38.4693 14.174 38.7534C14.5998 39.0376 15.1004 39.1891 15.6123 39.1888C16.2984 39.1883 16.9562 38.9155 17.4412 38.4302C17.9262 37.9449 18.1987 37.2868 18.1987 36.6007Z" fill="#705CE9"/>
<path d="M12.9822 32.9938C12.9822 32.4819 12.8304 31.9815 12.5461 31.5559C12.2617 31.1303 11.8575 30.7986 11.3846 30.6028C10.9117 30.4069 10.3913 30.3556 9.88929 30.4555C9.38726 30.5554 8.92612 30.8018 8.56417 31.1638C8.20223 31.5257 7.95574 31.9869 7.85588 32.4889C7.75602 32.9909 7.80727 33.5113 8.00316 33.9842C8.19904 34.4571 8.53075 34.8613 8.95635 35.1457C9.38196 35.4301 9.88233 35.5819 10.3942 35.5819C11.0806 35.5819 11.7389 35.3092 12.2242 34.8238C12.7096 34.3385 12.9822 33.6802 12.9822 32.9938Z" fill="#705CE9"/>
<path d="M9.72832 27.8175C9.72832 27.3056 9.57649 26.8052 9.29204 26.3795C9.00759 25.9539 8.6033 25.6222 8.1303 25.4263C7.6573 25.2305 7.13684 25.1794 6.63476 25.2793C6.13269 25.3793 5.67155 25.626 5.30967 25.9881C4.94779 26.3502 4.70144 26.8115 4.60177 27.3137C4.5021 27.8158 4.55359 28.3362 4.74973 28.8091C4.94587 29.282 5.27785 29.6861 5.70367 29.9702C6.12949 30.2544 6.63003 30.4059 7.14197 30.4056C7.82807 30.4051 8.48591 30.1323 8.9709 29.647C9.45588 29.1617 9.72832 28.5036 9.72832 27.8175Z" fill="#705CE9"/>
<path d="M8.5982 21.841C8.5982 21.3291 8.44641 20.8288 8.16203 20.4032C7.87765 19.9776 7.47346 19.6458 7.00056 19.4499C6.52765 19.254 6.00729 19.2028 5.50526 19.3027C5.00323 19.4025 4.54208 19.649 4.18014 20.011C3.8182 20.3729 3.57171 20.834 3.47185 21.3361C3.37199 21.8381 3.42324 22.3585 3.61912 22.8314C3.81501 23.3043 4.14672 23.7085 4.57232 23.9928C4.99792 24.2772 5.49829 24.429 6.01016 24.429C6.69641 24.4286 7.35443 24.1558 7.83968 23.6705C8.32494 23.1853 8.59775 22.5272 8.5982 21.841Z" fill="#705CE9"/>
<path d="M63.04 28.22C62.3947 28.22 61.7493 28.1687 61.104 28.066C60.4587 27.978 59.85 27.8387 59.278 27.648C58.706 27.4427 58.1927 27.1933 57.738 26.9C57.474 26.724 57.2907 26.5113 57.188 26.262C57.0853 26.0127 57.0487 25.7707 57.078 25.536C57.122 25.2867 57.2173 25.074 57.364 24.898C57.5253 24.7073 57.7233 24.59 57.958 24.546C58.1927 24.502 58.4493 24.568 58.728 24.744C59.3733 25.1253 60.0553 25.404 60.774 25.58C61.4927 25.756 62.248 25.844 63.04 25.844C64.1987 25.844 65.042 25.6533 65.57 25.272C66.098 24.876 66.362 24.37 66.362 23.754C66.362 23.2407 66.1713 22.8373 65.79 22.544C65.4233 22.2507 64.7853 22.0087 63.876 21.818L61.456 21.312C60.0627 21.0187 59.0213 20.5273 58.332 19.838C57.6573 19.134 57.32 18.21 57.32 17.066C57.32 16.3473 57.4667 15.6947 57.76 15.108C58.0533 14.5213 58.464 14.0153 58.992 13.59C59.5347 13.1647 60.1727 12.842 60.906 12.622C61.654 12.3873 62.4753 12.27 63.37 12.27C64.25 12.27 65.086 12.38 65.878 12.6C66.67 12.82 67.3813 13.1427 68.012 13.568C68.2467 13.7293 68.4007 13.9273 68.474 14.162C68.562 14.3967 68.584 14.6313 68.54 14.866C68.496 15.086 68.3933 15.2767 68.232 15.438C68.0707 15.5993 67.8653 15.6947 67.616 15.724C67.3813 15.7533 67.11 15.68 66.802 15.504C66.2593 15.196 65.7093 14.976 65.152 14.844C64.5947 14.712 63.9933 14.646 63.348 14.646C62.6733 14.646 62.094 14.7413 61.61 14.932C61.126 15.1227 60.752 15.394 60.488 15.746C60.2387 16.0833 60.114 16.4867 60.114 16.956C60.114 17.484 60.29 17.9093 60.642 18.232C60.994 18.54 61.5953 18.782 62.446 18.958L64.844 19.464C66.296 19.772 67.374 20.256 68.078 20.916C68.7967 21.576 69.156 22.456 69.156 23.556C69.156 24.26 69.0093 24.898 68.716 25.47C68.4373 26.042 68.0267 26.5333 67.484 26.944C66.956 27.3547 66.318 27.67 65.57 27.89C64.822 28.11 63.9787 28.22 63.04 28.22ZM72.6729 28.154C72.2329 28.154 71.8956 28.022 71.6609 27.758C71.4262 27.494 71.3089 27.1273 71.3089 26.658V18.584C71.3089 18.1 71.4262 17.7333 71.6609 17.484C71.8956 17.22 72.2329 17.088 72.6729 17.088C73.1129 17.088 73.4502 17.22 73.6849 17.484C73.9342 17.7333 74.0589 18.1 74.0589 18.584V26.658C74.0589 27.1273 73.9416 27.494 73.7069 27.758C73.4722 28.022 73.1276 28.154 72.6729 28.154ZM72.6729 15.042C72.1596 15.042 71.7562 14.9173 71.4629 14.668C71.1842 14.404 71.0449 14.0447 71.0449 13.59C71.0449 13.1207 71.1842 12.7613 71.4629 12.512C71.7562 12.2627 72.1596 12.138 72.6729 12.138C73.2009 12.138 73.6042 12.2627 73.8829 12.512C74.1616 12.7613 74.3009 13.1207 74.3009 13.59C74.3009 14.0447 74.1616 14.404 73.8829 14.668C73.6042 14.9173 73.2009 15.042 72.6729 15.042ZM81.0523 28.22C80.1137 28.22 79.285 27.9927 78.5663 27.538C77.8623 27.0833 77.3123 26.438 76.9163 25.602C76.5203 24.7513 76.3223 23.754 76.3223 22.61C76.3223 21.4513 76.5203 20.4613 76.9163 19.64C77.3123 18.804 77.8623 18.1587 78.5663 17.704C79.285 17.2493 80.1137 17.022 81.0523 17.022C81.947 17.022 82.7243 17.242 83.3843 17.682C84.059 18.122 84.5137 18.7013 84.7483 19.42H84.5063V13.7C84.5063 13.2453 84.6237 12.9007 84.8583 12.666C85.093 12.4313 85.4303 12.314 85.8703 12.314C86.3103 12.314 86.6477 12.4313 86.8823 12.666C87.1317 12.9007 87.2563 13.2453 87.2563 13.7V26.768C87.2563 27.2227 87.139 27.5747 86.9043 27.824C86.6697 28.0587 86.3323 28.176 85.8923 28.176C85.4523 28.176 85.115 28.0587 84.8803 27.824C84.6457 27.5747 84.5283 27.2227 84.5283 26.768V25.052L84.7703 25.712C84.5503 26.4747 84.103 27.0833 83.4283 27.538C82.7537 27.9927 81.9617 28.22 81.0523 28.22ZM81.8223 26.13C82.365 26.13 82.8417 25.998 83.2523 25.734C83.663 25.47 83.9783 25.0813 84.1983 24.568C84.433 24.04 84.5503 23.3873 84.5503 22.61C84.5503 21.4367 84.301 20.564 83.8023 19.992C83.3037 19.4053 82.6437 19.112 81.8223 19.112C81.2797 19.112 80.803 19.244 80.3923 19.508C79.9817 19.7573 79.659 20.146 79.4243 20.674C79.2043 21.1873 79.0943 21.8327 79.0943 22.61C79.0943 23.7687 79.3437 24.6487 79.8423 25.25C80.341 25.8367 81.001 26.13 81.8223 26.13ZM95.4097 28.22C94.1924 28.22 93.1437 27.9927 92.2637 27.538C91.3837 27.0833 90.7017 26.438 90.2177 25.602C89.7484 24.766 89.5137 23.776 89.5137 22.632C89.5137 21.5173 89.7411 20.542 90.1957 19.706C90.6651 18.87 91.3031 18.2173 92.1097 17.748C92.9311 17.264 93.8624 17.022 94.9037 17.022C95.6664 17.022 96.3484 17.1467 96.9497 17.396C97.5657 17.6453 98.0864 18.0047 98.5117 18.474C98.9517 18.9433 99.2817 19.5153 99.5017 20.19C99.7364 20.85 99.8537 21.598 99.8537 22.434C99.8537 22.698 99.7584 22.9033 99.5677 23.05C99.3917 23.182 99.1351 23.248 98.7977 23.248H91.7357V21.664H97.9177L97.5657 21.994C97.5657 21.3193 97.4631 20.7547 97.2577 20.3C97.0671 19.8453 96.7811 19.5007 96.3997 19.266C96.0331 19.0167 95.5711 18.892 95.0137 18.892C94.3977 18.892 93.8697 19.0387 93.4297 19.332C93.0044 19.6107 92.6744 20.014 92.4397 20.542C92.2197 21.0553 92.1097 21.6713 92.1097 22.39V22.544C92.1097 23.7467 92.3884 24.6487 92.9457 25.25C93.5177 25.8367 94.3537 26.13 95.4537 26.13C95.8351 26.13 96.2604 26.086 96.7297 25.998C97.2137 25.8953 97.6684 25.7267 98.0937 25.492C98.4017 25.316 98.6731 25.2427 98.9077 25.272C99.1424 25.2867 99.3257 25.3673 99.4577 25.514C99.6044 25.6607 99.6924 25.844 99.7217 26.064C99.7511 26.2693 99.7071 26.482 99.5897 26.702C99.4871 26.922 99.3037 27.1127 99.0397 27.274C98.5264 27.5967 97.9324 27.8387 97.2577 28C96.5977 28.1467 95.9817 28.22 95.4097 28.22ZM107.642 28.22C106.996 28.22 106.351 28.1687 105.706 28.066C105.06 27.978 104.452 27.8387 103.88 27.648C103.308 27.4427 102.794 27.1933 102.34 26.9C102.076 26.724 101.892 26.5113 101.79 26.262C101.687 26.0127 101.65 25.7707 101.68 25.536C101.724 25.2867 101.819 25.074 101.966 24.898C102.127 24.7073 102.325 24.59 102.56 24.546C102.794 24.502 103.051 24.568 103.33 24.744C103.975 25.1253 104.657 25.404 105.376 25.58C106.094 25.756 106.85 25.844 107.642 25.844C108.8 25.844 109.644 25.6533 110.172 25.272C110.7 24.876 110.964 24.37 110.964 23.754C110.964 23.2407 110.773 22.8373 110.392 22.544C110.025 22.2507 109.387 22.0087 108.478 21.818L106.058 21.312C104.664 21.0187 103.623 20.5273 102.934 19.838C102.259 19.134 101.922 18.21 101.922 17.066C101.922 16.3473 102.068 15.6947 102.362 15.108C102.655 14.5213 103.066 14.0153 103.594 13.59C104.136 13.1647 104.774 12.842 105.508 12.622C106.256 12.3873 107.077 12.27 107.972 12.27C108.852 12.27 109.688 12.38 110.48 12.6C111.272 12.82 111.983 13.1427 112.614 13.568C112.848 13.7293 113.002 13.9273 113.076 14.162C113.164 14.3967 113.186 14.6313 113.142 14.866C113.098 15.086 112.995 15.2767 112.834 15.438C112.672 15.5993 112.467 15.6947 112.218 15.724C111.983 15.7533 111.712 15.68 111.404 15.504C110.861 15.196 110.311 14.976 109.754 14.844C109.196 14.712 108.595 14.646 107.95 14.646C107.275 14.646 106.696 14.7413 106.212 14.932C105.728 15.1227 105.354 15.394 105.09 15.746C104.84 16.0833 104.716 16.4867 104.716 16.956C104.716 17.484 104.892 17.9093 105.244 18.232C105.596 18.54 106.197 18.782 107.048 18.958L109.446 19.464C110.898 19.772 111.976 20.256 112.68 20.916C113.398 21.576 113.758 22.456 113.758 23.556C113.758 24.26 113.611 24.898 113.318 25.47C113.039 26.042 112.628 26.5333 112.086 26.944C111.558 27.3547 110.92 27.67 110.172 27.89C109.424 28.11 108.58 28.22 107.642 28.22ZM117.274 32.136C116.834 32.136 116.497 32.0187 116.262 31.784C116.028 31.5493 115.91 31.2047 115.91 30.75V18.452C115.91 17.9973 116.028 17.6527 116.262 17.418C116.497 17.1833 116.827 17.066 117.252 17.066C117.692 17.066 118.03 17.1833 118.264 17.418C118.499 17.6527 118.616 17.9973 118.616 18.452V20.168L118.374 19.508C118.594 18.76 119.042 18.1587 119.716 17.704C120.406 17.2493 121.205 17.022 122.114 17.022C123.053 17.022 123.874 17.2493 124.578 17.704C125.297 18.1587 125.854 18.804 126.25 19.64C126.646 20.4613 126.844 21.4513 126.844 22.61C126.844 23.754 126.646 24.7513 126.25 25.602C125.854 26.438 125.304 27.0833 124.6 27.538C123.896 27.9927 123.068 28.22 122.114 28.22C121.22 28.22 120.435 28 119.76 27.56C119.086 27.1053 118.631 26.5187 118.396 25.8H118.66V30.75C118.66 31.2047 118.536 31.5493 118.286 31.784C118.052 32.0187 117.714 32.136 117.274 32.136ZM121.344 26.13C121.887 26.13 122.364 25.998 122.774 25.734C123.185 25.47 123.5 25.0813 123.72 24.568C123.955 24.04 124.072 23.3873 124.072 22.61C124.072 21.4367 123.823 20.564 123.324 19.992C122.826 19.4053 122.166 19.112 121.344 19.112C120.802 19.112 120.325 19.244 119.914 19.508C119.504 19.7573 119.181 20.146 118.946 20.674C118.726 21.1873 118.616 21.8327 118.616 22.61C118.616 23.7687 118.866 24.6487 119.364 25.25C119.863 25.8367 120.523 26.13 121.344 26.13ZM134.404 28.22C133.187 28.22 132.138 27.9927 131.258 27.538C130.378 27.0833 129.696 26.438 129.212 25.602C128.743 24.766 128.508 23.776 128.508 22.632C128.508 21.5173 128.735 20.542 129.19 19.706C129.659 18.87 130.297 18.2173 131.104 17.748C131.925 17.264 132.857 17.022 133.898 17.022C134.661 17.022 135.343 17.1467 135.944 17.396C136.56 17.6453 137.081 18.0047 137.506 18.474C137.946 18.9433 138.276 19.5153 138.496 20.19C138.731 20.85 138.848 21.598 138.848 22.434C138.848 22.698 138.753 22.9033 138.562 23.05C138.386 23.182 138.129 23.248 137.792 23.248H130.73V21.664H136.912L136.56 21.994C136.56 21.3193 136.457 20.7547 136.252 20.3C136.061 19.8453 135.775 19.5007 135.394 19.266C135.027 19.0167 134.565 18.892 134.008 18.892C133.392 18.892 132.864 19.0387 132.424 19.332C131.999 19.6107 131.669 20.014 131.434 20.542C131.214 21.0553 131.104 21.6713 131.104 22.39V22.544C131.104 23.7467 131.383 24.6487 131.94 25.25C132.512 25.8367 133.348 26.13 134.448 26.13C134.829 26.13 135.255 26.086 135.724 25.998C136.208 25.8953 136.663 25.7267 137.088 25.492C137.396 25.316 137.667 25.2427 137.902 25.272C138.137 25.2867 138.32 25.3673 138.452 25.514C138.599 25.6607 138.687 25.844 138.716 26.064C138.745 26.2693 138.701 26.482 138.584 26.702C138.481 26.922 138.298 27.1127 138.034 27.274C137.521 27.5967 136.927 27.8387 136.252 28C135.592 28.1467 134.976 28.22 134.404 28.22ZM146.328 28.22C145.11 28.22 144.062 27.9927 143.182 27.538C142.302 27.0833 141.62 26.438 141.136 25.602C140.666 24.766 140.432 23.776 140.432 22.632C140.432 21.5173 140.659 20.542 141.114 19.706C141.583 18.87 142.221 18.2173 143.028 17.748C143.849 17.264 144.78 17.022 145.822 17.022C146.584 17.022 147.266 17.1467 147.868 17.396C148.484 17.6453 149.004 18.0047 149.43 18.474C149.87 18.9433 150.2 19.5153 150.42 20.19C150.654 20.85 150.772 21.598 150.772 22.434C150.772 22.698 150.676 22.9033 150.486 23.05C150.31 23.182 150.053 23.248 149.716 23.248H142.654V21.664H148.836L148.484 21.994C148.484 21.3193 148.381 20.7547 148.176 20.3C147.985 19.8453 147.699 19.5007 147.318 19.266C146.951 19.0167 146.489 18.892 145.932 18.892C145.316 18.892 144.788 19.0387 144.348 19.332C143.922 19.6107 143.592 20.014 143.358 20.542C143.138 21.0553 143.028 21.6713 143.028 22.39V22.544C143.028 23.7467 143.306 24.6487 143.864 25.25C144.436 25.8367 145.272 26.13 146.372 26.13C146.753 26.13 147.178 26.086 147.648 25.998C148.132 25.8953 148.586 25.7267 149.012 25.492C149.32 25.316 149.591 25.2427 149.826 25.272C150.06 25.2867 150.244 25.3673 150.376 25.514C150.522 25.6607 150.61 25.844 150.64 26.064C150.669 26.2693 150.625 26.482 150.508 26.702C150.405 26.922 150.222 27.1127 149.958 27.274C149.444 27.5967 148.85 27.8387 148.176 28C147.516 28.1467 146.9 28.22 146.328 28.22ZM157.922 28.22C156.792 28.22 155.81 27.9927 154.974 27.538C154.138 27.0687 153.492 26.4087 153.038 25.558C152.583 24.7073 152.356 23.71 152.356 22.566C152.356 21.7007 152.48 20.9307 152.73 20.256C152.994 19.5667 153.368 18.9873 153.852 18.518C154.336 18.034 154.922 17.6673 155.612 17.418C156.301 17.154 157.071 17.022 157.922 17.022C158.406 17.022 158.926 17.088 159.484 17.22C160.056 17.352 160.591 17.572 161.09 17.88C161.324 18.0267 161.478 18.2027 161.552 18.408C161.625 18.6133 161.64 18.826 161.596 19.046C161.552 19.2513 161.456 19.4347 161.31 19.596C161.178 19.7427 161.009 19.838 160.804 19.882C160.598 19.9113 160.371 19.86 160.122 19.728C159.799 19.5373 159.469 19.398 159.132 19.31C158.794 19.2073 158.472 19.156 158.164 19.156C157.68 19.156 157.254 19.2367 156.888 19.398C156.521 19.5447 156.206 19.7647 155.942 20.058C155.692 20.3367 155.502 20.6887 155.37 21.114C155.238 21.5393 155.172 22.0307 155.172 22.588C155.172 23.6733 155.428 24.5313 155.942 25.162C156.47 25.778 157.21 26.086 158.164 26.086C158.472 26.086 158.787 26.042 159.11 25.954C159.447 25.866 159.784 25.7267 160.122 25.536C160.371 25.404 160.591 25.36 160.782 25.404C160.987 25.448 161.156 25.5507 161.288 25.712C161.42 25.8587 161.5 26.042 161.53 26.262C161.559 26.4673 161.53 26.6727 161.442 26.878C161.368 27.0833 161.222 27.252 161.002 27.384C160.518 27.6773 160.004 27.89 159.462 28.022C158.919 28.154 158.406 28.22 157.922 28.22ZM164.69 28.176C164.25 28.176 163.913 28.0587 163.678 27.824C163.444 27.5747 163.326 27.2227 163.326 26.768V13.7C163.326 13.2453 163.444 12.9007 163.678 12.666C163.913 12.4313 164.25 12.314 164.69 12.314C165.13 12.314 165.468 12.4313 165.702 12.666C165.952 12.9007 166.076 13.2453 166.076 13.7V19.398H165.768C166.091 18.6207 166.59 18.034 167.264 17.638C167.954 17.2273 168.731 17.022 169.596 17.022C170.462 17.022 171.173 17.1833 171.73 17.506C172.288 17.8287 172.706 18.32 172.984 18.98C173.263 19.6253 173.402 20.4467 173.402 21.444V26.768C173.402 27.2227 173.285 27.5747 173.05 27.824C172.816 28.0587 172.478 28.176 172.038 28.176C171.598 28.176 171.254 28.0587 171.004 27.824C170.77 27.5747 170.652 27.2227 170.652 26.768V21.576C170.652 20.74 170.491 20.1313 170.168 19.75C169.86 19.3687 169.376 19.178 168.716 19.178C167.91 19.178 167.264 19.4347 166.78 19.948C166.311 20.4467 166.076 21.114 166.076 21.95V26.768C166.076 27.7067 165.614 28.176 164.69 28.176Z" fill="white"/>
<path d="M60.45 39.07C60.3233 39.07 60.22 39.04 60.14 38.98C60.06 38.92 59.9967 38.83 59.95 38.71L57.2 32.42C57.1533 32.3067 57.14 32.2133 57.16 32.14C57.18 32.06 57.2233 31.9967 57.29 31.95C57.3633 31.9033 57.4467 31.88 57.54 31.88C57.6667 31.88 57.76 31.91 57.82 31.97C57.8867 32.0233 57.94 32.1033 57.98 32.21L60.62 38.34H60.3L62.93 32.2C62.9767 32.1 63.0333 32.0233 63.1 31.97C63.1667 31.91 63.26 31.88 63.38 31.88C63.4733 31.88 63.55 31.9033 63.61 31.95C63.6767 31.9967 63.7167 32.06 63.73 32.14C63.75 32.22 63.7367 32.3133 63.69 32.42L60.94 38.71C60.8933 38.83 60.83 38.92 60.75 38.98C60.6767 39.04 60.5767 39.07 60.45 39.07ZM64.527 39.04C64.3603 39.04 64.227 38.99 64.127 38.89C64.027 38.7833 63.977 38.65 63.977 38.49C63.977 38.33 64.027 38.2 64.127 38.1C64.227 37.9933 64.3603 37.94 64.527 37.94C64.6936 37.94 64.8236 37.9933 64.917 38.1C65.017 38.2 65.067 38.33 65.067 38.49C65.067 38.65 65.017 38.7833 64.917 38.89C64.8236 38.99 64.6936 39.04 64.527 39.04ZM67.2023 39C67.0823 39 66.989 38.97 66.9223 38.91C66.8557 38.8433 66.8223 38.7533 66.8223 38.64C66.8223 38.5267 66.8557 38.4433 66.9223 38.39C66.989 38.33 67.0823 38.3 67.2023 38.3H68.5023V32.63H68.9323L67.4823 33.59C67.3957 33.6367 67.3123 33.6567 67.2323 33.65C67.159 33.6433 67.0957 33.6167 67.0423 33.57C66.9957 33.5167 66.9623 33.4567 66.9423 33.39C66.9223 33.3167 66.9257 33.2433 66.9523 33.17C66.979 33.09 67.0357 33.0233 67.1223 32.97L68.5023 32.06C68.589 32.0067 68.6723 31.9633 68.7523 31.93C68.8323 31.8967 68.9123 31.88 68.9923 31.88C69.0857 31.88 69.1623 31.91 69.2223 31.97C69.289 32.0233 69.3223 32.11 69.3223 32.23V38.3H70.5223C70.6423 38.3 70.7357 38.33 70.8023 38.39C70.869 38.4433 70.9023 38.5267 70.9023 38.64C70.9023 38.76 70.869 38.85 70.8023 38.91C70.7357 38.97 70.6423 39 70.5223 39H67.2023ZM72.7984 39.04C72.6318 39.04 72.4984 38.99 72.3984 38.89C72.2984 38.7833 72.2484 38.65 72.2484 38.49C72.2484 38.33 72.2984 38.2 72.3984 38.1C72.4984 37.9933 72.6318 37.94 72.7984 37.94C72.9651 37.94 73.0951 37.9933 73.1884 38.1C73.2884 38.2 73.3384 38.33 73.3384 38.49C73.3384 38.65 73.2884 38.7833 73.1884 38.89C73.0951 38.99 72.9651 39.04 72.7984 39.04ZM76.9238 39.09C76.1172 39.09 75.5038 38.78 75.0838 38.16C74.6638 37.54 74.4538 36.6433 74.4538 35.47C74.4538 34.6833 74.5472 34.0233 74.7338 33.49C74.9205 32.95 75.1972 32.5433 75.5638 32.27C75.9372 31.9967 76.3905 31.86 76.9238 31.86C77.7372 31.86 78.3505 32.1667 78.7638 32.78C79.1838 33.3867 79.3938 34.28 79.3938 35.46C79.3938 36.2467 79.3005 36.91 79.1138 37.45C78.9272 37.99 78.6505 38.4 78.2838 38.68C77.9172 38.9533 77.4638 39.09 76.9238 39.09ZM76.9238 38.38C77.4838 38.38 77.8972 38.1433 78.1638 37.67C78.4372 37.19 78.5738 36.4533 78.5738 35.46C78.5738 34.46 78.4372 33.73 78.1638 33.27C77.8972 32.8033 77.4838 32.57 76.9238 32.57C76.3705 32.57 75.9572 32.8033 75.6838 33.27C75.4105 33.7367 75.2738 34.4667 75.2738 35.46C75.2738 36.4533 75.4105 37.19 75.6838 37.67C75.9572 38.1433 76.3705 38.38 76.9238 38.38ZM81.0699 39.04C80.9033 39.04 80.7699 38.99 80.6699 38.89C80.5699 38.7833 80.5199 38.65 80.5199 38.49C80.5199 38.33 80.5699 38.2 80.6699 38.1C80.7699 37.9933 80.9033 37.94 81.0699 37.94C81.2366 37.94 81.3666 37.9933 81.4599 38.1C81.5599 38.2 81.6099 38.33 81.6099 38.49C81.6099 38.65 81.5599 38.7833 81.4599 38.89C81.3666 38.99 81.2366 39.04 81.0699 39.04ZM85.1953 39.09C84.3886 39.09 83.7753 38.78 83.3553 38.16C82.9353 37.54 82.7253 36.6433 82.7253 35.47C82.7253 34.6833 82.8186 34.0233 83.0053 33.49C83.192 32.95 83.4686 32.5433 83.8353 32.27C84.2086 31.9967 84.662 31.86 85.1953 31.86C86.0086 31.86 86.622 32.1667 87.0353 32.78C87.4553 33.3867 87.6653 34.28 87.6653 35.46C87.6653 36.2467 87.572 36.91 87.3853 37.45C87.1986 37.99 86.922 38.4 86.5553 38.68C86.1886 38.9533 85.7353 39.09 85.1953 39.09ZM85.1953 38.38C85.7553 38.38 86.1686 38.1433 86.4353 37.67C86.7086 37.19 86.8453 36.4533 86.8453 35.46C86.8453 34.46 86.7086 33.73 86.4353 33.27C86.1686 32.8033 85.7553 32.57 85.1953 32.57C84.642 32.57 84.2286 32.8033 83.9553 33.27C83.682 33.7367 83.5453 34.4667 83.5453 35.46C83.5453 36.4533 83.682 37.19 83.9553 37.67C84.2286 38.1433 84.642 38.38 85.1953 38.38Z" fill="#B4C1D2" fill-opacity="0.4"/>
</svg>
