<svg width="790" height="700" viewBox="0 0 790 700" fill="none" xmlns="http://www.w3.org/2000/svg">
<path d="M721.281 352.34C721.166 285.812 700.954 220.872 663.293 166.03C625.632 111.187 572.281 69.0026 510.232 45.0054C448.182 21.0082 380.331 16.3178 315.569 31.549C250.808 46.7803 192.16 81.2225 147.312 130.361C147.01 130.723 146.678 131.056 146.376 131.388C145.198 132.716 144.021 134.015 142.873 135.343C119.479 162.133 100.584 192.539 86.9257 225.378C84.1109 232.131 83.0076 239.475 83.7138 246.756C84.4201 254.037 86.914 261.032 90.9741 267.117C95.0341 273.203 100.534 278.191 106.987 281.639C113.439 285.087 120.642 286.888 127.958 286.882H132.97C141.734 286.989 150.328 284.454 157.63 279.607C164.933 274.76 170.607 267.826 173.912 259.708C185.801 231.687 202.982 206.222 224.515 184.708C225.753 183.471 226.991 182.233 228.259 181.055L229.648 179.727L231.671 177.855L234.69 175.168L235.234 174.745C254.349 157.802 276.089 144.077 299.605 134.105L301.326 133.35C359.16 109.453 424.108 109.453 481.941 133.35L483.602 134.075C503.442 142.47 522.034 153.555 538.855 167.016L539.972 167.922L542.478 169.975C543.474 170.82 544.531 171.665 545.497 172.541L546.463 173.386L550.389 176.829C570.126 194.795 586.702 215.954 599.422 239.419C603.088 246.188 604.933 253.793 604.776 261.489C604.619 269.186 602.466 276.709 598.527 283.323C594.589 289.937 589 295.415 582.308 299.22C575.616 303.025 568.05 305.026 560.352 305.028H554.918C546.981 305.134 539.167 303.066 532.323 299.048C525.478 295.029 519.864 289.214 516.089 282.232C500.713 254.646 476.615 232.943 447.575 220.527C418.535 208.112 386.196 205.686 355.629 213.63C325.062 221.574 297.996 239.437 278.675 264.421C259.355 289.404 248.873 320.094 248.873 351.676C248.873 383.258 259.355 413.948 278.675 438.931C297.996 463.915 325.062 481.778 355.629 489.722C386.196 497.666 418.535 495.24 447.575 482.825C476.615 470.409 500.713 448.706 516.089 421.12C519.872 414.149 525.49 408.346 532.334 404.339C539.178 400.332 546.987 398.272 554.918 398.384H560.231C567.93 398.392 575.495 400.399 582.186 404.207C588.877 408.016 594.465 413.496 598.403 420.111C602.341 426.727 604.494 434.252 604.651 441.949C604.809 449.646 602.965 457.253 599.301 464.024C573.709 511.223 532.869 548.349 483.451 569.338C475.335 572.646 468.403 578.32 463.557 585.622C458.711 592.924 456.174 601.515 456.277 610.279V615.291C456.281 622.604 458.087 629.803 461.538 636.251C464.988 642.699 469.974 648.196 476.056 652.256C482.138 656.317 489.127 658.816 496.405 659.53C503.683 660.245 511.025 659.153 517.78 656.353V656.353C576.919 631.796 627.632 590.556 663.731 537.666C699.829 484.775 719.753 422.521 721.07 358.5C721.07 357.745 721.07 356.99 721.07 356.235C721.251 354.937 721.281 353.638 721.281 352.34Z" fill="#1B1D30" fill-opacity="0.7"/>
<path d="M392.962 588.208C383.777 588.208 374.798 590.93 367.159 596.031C359.52 601.131 353.564 608.381 350.044 616.865C346.523 625.349 345.596 634.685 347.379 643.696C349.162 652.706 353.576 660.986 360.062 667.489C366.549 673.992 374.817 678.428 383.823 680.234C392.829 682.041 402.168 681.138 410.661 677.639C419.153 674.141 426.419 668.204 431.539 660.578C436.66 652.953 439.405 643.981 439.429 634.796C439.445 628.683 438.255 622.628 435.927 616.976C433.599 611.325 430.178 606.188 425.862 601.861C421.546 597.533 416.418 594.099 410.772 591.757C405.127 589.414 399.074 588.208 392.962 588.208V588.208Z" fill="#1B1D30" fill-opacity="0.7"/>
<path d="M326.749 612.151C326.749 602.966 324.027 593.986 318.926 586.348C313.825 578.709 306.575 572.753 298.092 569.233C289.608 565.712 280.271 564.785 271.261 566.568C262.25 568.351 253.971 572.765 247.467 579.251C240.964 585.738 236.529 594.006 234.722 603.012C232.916 612.018 233.819 621.357 237.317 629.849C240.816 638.342 246.753 645.608 254.378 650.728C262.004 655.848 270.976 658.594 280.161 658.618C286.273 658.633 292.329 657.444 297.98 655.115C303.632 652.787 308.769 649.367 313.096 645.051C317.424 640.734 320.857 635.606 323.2 629.961C325.543 624.315 326.749 618.263 326.749 612.151V612.151Z" fill="#1B1D30" fill-opacity="0.7"/>
<path d="M233.09 547.387C233.09 538.2 230.366 529.218 225.263 521.578C220.16 513.938 212.906 507.982 204.419 504.463C195.932 500.945 186.592 500.021 177.58 501.809C168.568 503.597 160.288 508.016 153.787 514.509C147.286 521.001 142.856 529.275 141.056 538.285C139.256 547.295 140.168 556.635 143.676 565.127C147.183 573.619 153.13 580.881 160.763 585.994C168.397 591.107 177.375 593.842 186.563 593.854C192.669 593.858 198.716 592.659 204.359 590.326C210.001 587.993 215.129 584.572 219.45 580.257C223.77 575.942 227.199 570.819 229.539 565.179C231.879 559.539 233.086 553.493 233.09 547.387V547.387Z" fill="#1B1D30" fill-opacity="0.7"/>
<path d="M174.667 454.453C174.667 445.261 171.941 436.276 166.833 428.634C161.726 420.992 154.467 415.036 145.975 411.52C137.482 408.004 128.138 407.086 119.123 408.881C110.109 410.677 101.829 415.105 95.3316 421.606C88.8343 428.108 84.4111 436.39 82.6216 445.406C80.8321 454.422 81.7566 463.766 85.2782 472.256C88.7998 480.747 94.7603 488.002 102.406 493.104C110.051 498.206 119.038 500.926 128.23 500.92C140.548 500.912 152.36 496.013 161.067 487.3C169.775 478.586 174.667 466.772 174.667 454.453V454.453Z" fill="#1B1D30" fill-opacity="0.7"/>
<path d="M154.347 347.116C154.341 337.92 151.606 328.931 146.488 321.29C141.371 313.649 134.101 307.698 125.599 304.191C117.097 300.684 107.746 299.779 98.7291 301.59C89.7124 303.401 81.436 307.847 74.9477 314.365C68.4595 320.883 64.0513 329.179 62.2813 338.204C60.5113 347.228 61.4592 356.576 65.0048 365.062C68.5505 373.548 74.5345 380.79 82.1991 385.873C89.8637 390.955 98.8642 393.65 108.061 393.614C120.358 393.566 132.136 388.645 140.812 379.929C149.488 371.213 154.355 359.414 154.347 347.116V347.116Z" fill="#1B1D30" fill-opacity="0.7"/>
</svg>
