<svg width="100" height="100" viewBox="0 0 100 100" fill="none" xmlns="http://www.w3.org/2000/svg">
<path d="M91.3014 50.2962C91.2868 41.875 88.7283 33.6546 83.9611 26.7126C79.194 19.7705 72.4406 14.4307 64.5863 11.3931C56.7319 8.35546 48.1431 7.76174 39.9455 9.68974C31.7479 11.6177 24.3241 15.9775 18.6471 22.1976C18.6088 22.2435 18.5668 22.2855 18.5286 22.3276C18.3795 22.4957 18.2305 22.6601 18.0852 22.8283C15.1239 26.2193 12.7322 30.0682 11.0033 34.2251C10.647 35.0798 10.5073 36.0094 10.5967 36.9311C10.6861 37.8528 11.0018 38.7382 11.5157 39.5085C12.0296 40.2788 12.7259 40.9102 13.5426 41.3467C14.3593 41.7831 15.2712 42.0112 16.1972 42.0104H16.8317C17.9411 42.0239 19.0288 41.703 19.9532 41.0895C20.8776 40.476 21.5958 39.5982 22.0142 38.5707C23.5191 35.0237 25.694 31.8003 28.4197 29.077C28.5764 28.9203 28.7331 28.7636 28.8936 28.6146L29.0694 28.4464L29.3255 28.2094L29.7076 27.8693L29.7764 27.8158C32.1961 25.6712 34.948 23.9338 37.9247 22.6715L38.1426 22.576C45.4633 19.551 53.6845 19.551 61.0052 22.576L61.2154 22.6677C63.7269 23.7304 66.0803 25.1335 68.2095 26.8374L68.3509 26.9521L68.6681 27.212C68.7942 27.319 68.928 27.4259 69.0503 27.5368L69.1726 27.6438L69.6694 28.0796C72.1679 30.3538 74.2661 33.0321 75.8762 36.0023C76.3402 36.8592 76.5738 37.8219 76.5539 38.7961C76.5341 39.7703 76.2615 40.7226 75.763 41.5599C75.2644 42.3971 74.5569 43.0905 73.7098 43.5722C72.8628 44.0538 71.9051 44.3071 70.9307 44.3073H70.2427C69.2381 44.3208 68.249 44.059 67.3826 43.5503C66.5162 43.0417 65.8056 42.3055 65.3278 41.4218C63.3813 37.9298 60.331 35.1826 56.6551 33.611C52.9792 32.0395 48.8856 31.7324 45.0163 32.738C41.1471 33.7435 37.721 36.0047 35.2754 39.1672C32.8297 42.3296 31.5029 46.2144 31.5029 50.2121C31.5029 54.2099 32.8297 58.0947 35.2754 61.2571C37.721 64.4196 41.1471 66.6808 45.0163 67.6863C48.8856 68.6919 52.9792 68.3848 56.6551 66.8132C60.331 65.2417 63.3813 62.4945 65.3278 59.0025C65.8066 58.1202 66.5177 57.3856 67.384 56.8784C68.2503 56.3711 69.2389 56.1104 70.2427 56.1246H70.9154C71.8899 56.1256 72.8475 56.3796 73.6945 56.8617C74.5414 57.3437 75.2487 58.0374 75.7472 58.8749C76.2457 59.7123 76.5182 60.6648 76.5381 61.6391C76.558 62.6135 76.3247 63.5763 75.8609 64.4334C72.6214 70.4079 67.4517 75.1075 61.1963 77.7643C60.169 78.1831 59.2916 78.9013 58.6781 79.8256C58.0646 80.7499 57.7435 81.8374 57.7566 82.9467V83.5812C57.757 84.5068 57.9858 85.4181 58.4225 86.2343C58.8592 87.0505 59.4904 87.7463 60.2603 88.2603C61.0301 88.7743 61.9148 89.0906 62.8361 89.1811C63.7573 89.2715 64.6867 89.1333 65.5418 88.7789C73.0278 85.6704 79.4471 80.4502 84.0165 73.7552C88.586 67.0602 91.1079 59.1799 91.2746 51.0759C91.2746 50.9804 91.2746 50.8848 91.2746 50.7893C91.2976 50.6249 91.3014 50.4606 91.3014 50.2962Z" fill="#705CE9"/>
<path d="M49.742 80.1529C48.5793 80.1529 47.4427 80.4974 46.4758 81.1431C45.5088 81.7887 44.7549 82.7065 44.3093 83.7803C43.8637 84.8542 43.7463 86.0361 43.972 87.1767C44.1977 88.3172 44.7564 89.3653 45.5775 90.1885C46.3986 91.0117 47.4452 91.5731 48.5852 91.8018C49.7251 92.0304 50.9073 91.9162 51.9823 91.4733C53.0574 91.0305 53.9771 90.279 54.6252 89.3137C55.2733 88.3484 55.6209 87.2127 55.6239 86.0501C55.6259 85.2764 55.4753 84.5098 55.1806 83.7944C54.8859 83.079 54.4529 82.4289 53.9065 81.8811C53.3602 81.3333 52.7111 80.8986 51.9964 80.6021C51.2818 80.3055 50.5157 80.1529 49.742 80.1529Z" fill="#705CE9"/>
<path d="M41.3606 83.1837C41.3606 82.021 41.016 80.8844 40.3704 79.9174C39.7247 78.9505 38.807 78.1966 37.7331 77.751C36.6592 77.3054 35.4774 77.188 34.3368 77.4137C33.1963 77.6394 32.1482 78.1981 31.325 79.0191C30.5018 79.8402 29.9404 80.8869 29.7117 82.0268C29.483 83.1668 29.5973 84.349 30.0402 85.424C30.483 86.499 31.2345 87.4187 32.1998 88.0669C33.165 88.715 34.3007 89.0625 35.4634 89.0655C36.2371 89.0675 37.0036 88.9169 37.719 88.6222C38.4344 88.3275 39.0846 87.8946 39.6324 87.3482C40.1802 86.8018 40.6149 86.1527 40.9114 85.4381C41.208 84.7235 41.3606 83.9574 41.3606 83.1837Z" fill="#705CE9"/>
<path d="M29.505 74.9857C29.505 73.8227 29.1602 72.6858 28.5143 71.7187C27.8683 70.7516 26.9501 69.9977 25.8758 69.5523C24.8015 69.1069 23.6192 68.9899 22.4784 69.2163C21.3377 69.4426 20.2896 70.0021 19.4667 70.8239C18.6438 71.6457 18.083 72.6931 17.8552 73.8335C17.6273 74.974 17.7427 76.1564 18.1868 77.2313C18.6308 78.3062 19.3835 79.2254 20.3497 79.8726C21.316 80.5199 22.4525 80.8661 23.6155 80.8676C24.3884 80.8681 25.1539 80.7163 25.8681 80.421C26.5824 80.1257 27.2315 79.6926 27.7784 79.1464C28.3253 78.6002 28.7593 77.9517 29.0555 77.2378C29.3518 76.5239 29.5045 75.7586 29.505 74.9857Z" fill="#705CE9"/>
<path d="M22.1096 63.2219C22.1096 62.0584 21.7646 60.9211 21.1181 59.9537C20.4716 58.9863 19.5528 58.2324 18.4778 57.7874C17.4028 57.3423 16.2199 57.2261 15.0788 57.4533C13.9377 57.6806 12.8897 58.2411 12.0672 59.0641C11.2448 59.8871 10.6849 60.9355 10.4584 62.0767C10.2319 63.218 10.3489 64.4008 10.7947 65.4755C11.2404 66.5502 11.9949 67.4686 12.9627 68.1144C13.9305 68.7603 15.0681 69.1045 16.2316 69.1038C17.7909 69.1028 19.286 68.4827 20.3882 67.3797C21.4905 66.2768 22.1096 64.7812 22.1096 63.2219Z" fill="#705CE9"/>
<path d="M19.5375 49.635C19.5367 48.4708 19.1905 47.3331 18.5427 46.3658C17.8949 45.3986 16.9747 44.6453 15.8985 44.2013C14.8223 43.7574 13.6386 43.6429 12.4973 43.8722C11.3559 44.1014 10.3083 44.6641 9.48699 45.4892C8.66569 46.3142 8.10769 47.3644 7.88365 48.5068C7.6596 49.6491 7.77958 50.8324 8.2284 51.9065C8.67721 52.9807 9.43468 53.8974 10.4049 54.5408C11.3751 55.1842 12.5144 55.5253 13.6785 55.5207C15.2352 55.5147 16.726 54.8917 17.8242 53.7885C18.9224 52.6852 19.5385 51.1916 19.5375 49.635Z" fill="#705CE9"/>
</svg>
