<svg width="18" height="14" viewBox="0 0 18 14" fill="none" xmlns="http://www.w3.org/2000/svg">
<path d="M2.33317 13.6667C1.87484 13.6667 1.48262 13.5037 1.1565 13.1775C0.829837 12.8509 0.666504 12.4584 0.666504 12V2.00004C0.666504 1.54171 0.829837 1.14948 1.1565 0.823374C1.48262 0.496707 1.87484 0.333374 2.33317 0.333374H15.6665C16.1248 0.333374 16.5173 0.496707 16.844 0.823374C17.1701 1.14948 17.3332 1.54171 17.3332 2.00004V12C17.3332 12.4584 17.1701 12.8509 16.844 13.1775C16.5173 13.5037 16.1248 13.6667 15.6665 13.6667H2.33317ZM8.99984 7.83337L15.6665 3.66671V2.00004L8.99984 6.16671L2.33317 2.00004V3.66671L8.99984 7.83337Z" fill="#B4C1D2" fill-opacity="0.4"/>
</svg>
