<svg width="20" height="20" viewBox="0 0 20 20" fill="none" xmlns="http://www.w3.org/2000/svg">
<path d="M2 15.3125C1.45 15.3125 0.979333 15.1168 0.588 14.7255C0.196 14.3335 0 13.8625 0 13.3125V5.4625C0 5.2125 0.0710001 4.9665 0.213 4.7245C0.354333 4.48317 0.55 4.29583 0.8 4.1625L8.5 0.3125L16.05 4.1625C16.25 4.2625 16.4207 4.42083 16.562 4.6375C16.704 4.85417 16.8 5.07917 16.85 5.3125H13.925L8.5 2.5625L2 5.7875V15.3125ZM5 19.3125C4.45 19.3125 3.97933 19.1168 3.588 18.7255C3.196 18.3335 3 17.8625 3 17.3125V8.3125C3 7.7625 3.196 7.2915 3.588 6.8995C3.97933 6.50817 4.45 6.3125 5 6.3125H18C18.55 6.3125 19.021 6.50817 19.413 6.8995C19.8043 7.2915 20 7.7625 20 8.3125V17.3125C20 17.8625 19.8043 18.3335 19.413 18.7255C19.021 19.1168 18.55 19.3125 18 19.3125H5ZM11.5 13.6625L5 10.3125V17.3125H18V10.3125L11.5 13.6625ZM11.5 11.6625L18 8.3125H5L11.5 11.6625Z" fill="#B4C1D2" fill-opacity="0.4"/>
</svg>
