<svg width="14" height="18" viewBox="0 0 14 18" fill="none" xmlns="http://www.w3.org/2000/svg">
<path d="M0.333496 14.8333V13.1666H2.00016V7.33329C2.00016 6.18051 2.34738 5.15607 3.04183 4.25996C3.73627 3.3644 4.63905 2.77774 5.75016 2.49996V1.91663C5.75016 1.5694 5.87183 1.2744 6.11516 1.03163C6.35794 0.788293 6.65294 0.666626 7.00016 0.666626C7.34738 0.666626 7.64239 0.788293 7.88516 1.03163C8.1285 1.2744 8.25016 1.5694 8.25016 1.91663V2.49996C9.36127 2.77774 10.2641 3.3644 10.9585 4.25996C11.6529 5.15607 12.0002 6.18051 12.0002 7.33329V13.1666H13.6668V14.8333H0.333496ZM7.00016 17.3333C6.54183 17.3333 6.14961 17.1702 5.8235 16.8441C5.49683 16.5175 5.3335 16.125 5.3335 15.6666H8.66683C8.66683 16.125 8.50377 16.5175 8.17766 16.8441C7.851 17.1702 7.4585 17.3333 7.00016 17.3333Z" fill="#B4C1D2" fill-opacity="0.4"/>
</svg>
