<svg width="37" height="37" viewBox="0 0 37 37" fill="none" xmlns="http://www.w3.org/2000/svg">
<mask id="mask0_1470_2852" style="mask-type:alpha" maskUnits="userSpaceOnUse" x="0" y="0" width="37" height="37">
<rect width="36.8" height="36.8" fill="#D9D9D9"/>
</mask>
<g mask="url(#mask0_1470_2852)">
<path d="M18.3234 32.2001C16.4579 32.2001 14.6884 31.8362 13.015 31.1084C11.3406 30.3795 9.88396 29.3951 8.64503 28.1552C7.40508 26.9162 6.42068 25.4534 5.69183 23.7668C4.96401 22.0801 4.6001 20.2912 4.6001 18.4001C4.6001 16.4834 4.97065 14.6818 5.71176 12.9951C6.45288 11.3084 7.46232 9.84512 8.7401 8.60516C10.0179 7.36623 11.5195 6.38899 13.245 5.67343C14.9695 4.95788 16.8157 4.6001 18.7834 4.6001C20.5723 4.6001 22.2718 4.90012 23.8818 5.50016C25.4918 6.10123 26.9101 6.93843 28.1368 8.01176C29.3634 9.0851 30.3473 10.3629 31.0884 11.8451C31.8295 13.3273 32.2001 14.9501 32.2001 16.7134C32.2001 19.0901 31.5167 20.9879 30.15 22.4067C28.7823 23.8245 26.9101 24.5334 24.5334 24.5334H21.8118C21.1729 24.5334 20.6362 24.7573 20.2018 25.205C19.7673 25.6517 19.5501 26.1818 19.5501 26.7951C19.5501 27.434 19.7418 27.9773 20.1251 28.425C20.5084 28.8717 20.7001 29.389 20.7001 29.9768C20.7001 30.7179 20.4895 31.2735 20.0684 31.6435C19.6462 32.0146 19.0645 32.2001 18.3234 32.2001ZM9.96676 19.1668C10.4012 19.1668 10.7656 19.0196 11.06 18.7252C11.3534 18.4318 11.5001 18.0679 11.5001 17.6334C11.5001 17.199 11.3534 16.8346 11.06 16.5402C10.7656 16.2468 10.4012 16.1001 9.96676 16.1001C9.53232 16.1001 9.1679 16.2468 8.8735 16.5402C8.58012 16.8346 8.43343 17.199 8.43343 17.6334C8.43343 18.0679 8.58012 18.4318 8.8735 18.7252C9.1679 19.0196 9.53232 19.1668 9.96676 19.1668ZM14.5668 13.0334C15.0012 13.0334 15.3656 12.8867 15.66 12.5934C15.9534 12.299 16.1001 11.9345 16.1001 11.5001C16.1001 11.0657 15.9534 10.7012 15.66 10.4068C15.3656 10.1135 15.0012 9.96676 14.5668 9.96676C14.1323 9.96676 13.7684 10.1135 13.475 10.4068C13.1806 10.7012 13.0334 11.0657 13.0334 11.5001C13.0334 11.9345 13.1806 12.299 13.475 12.5934C13.7684 12.8867 14.1323 13.0334 14.5668 13.0334ZM22.2334 13.0334C22.6679 13.0334 23.0323 12.8867 23.3267 12.5934C23.6201 12.299 23.7668 11.9345 23.7668 11.5001C23.7668 11.0657 23.6201 10.7012 23.3267 10.4068C23.0323 10.1135 22.6679 9.96676 22.2334 9.96676C21.799 9.96676 21.4351 10.1135 21.1417 10.4068C20.8473 10.7012 20.7001 11.0657 20.7001 11.5001C20.7001 11.9345 20.8473 12.299 21.1417 12.5934C21.4351 12.8867 21.799 13.0334 22.2334 13.0334ZM26.8334 19.1668C27.2679 19.1668 27.6318 19.0196 27.9252 18.7252C28.2196 18.4318 28.3668 18.0679 28.3668 17.6334C28.3668 17.199 28.2196 16.8346 27.9252 16.5402C27.6318 16.2468 27.2679 16.1001 26.8334 16.1001C26.399 16.1001 26.0351 16.2468 25.7417 16.5402C25.4473 16.8346 25.3001 17.199 25.3001 17.6334C25.3001 18.0679 25.4473 18.4318 25.7417 18.7252C26.0351 19.0196 26.399 19.1668 26.8334 19.1668ZM18.3234 30.6668C18.6045 30.6668 18.8156 30.609 18.9567 30.4935C19.0967 30.379 19.1668 30.2068 19.1668 29.9768C19.1668 29.619 18.9751 29.2357 18.5918 28.8268C18.2084 28.4179 18.0168 27.7534 18.0168 26.8334C18.0168 25.709 18.3873 24.789 19.1284 24.0734C19.8695 23.3579 20.7768 23.0001 21.8501 23.0001H24.5334C26.4501 23.0001 27.9517 22.4312 29.0384 21.2935C30.124 20.1568 30.6668 18.6301 30.6668 16.7134C30.6668 13.5957 29.4723 11.0529 27.0834 9.0851C24.6934 7.11732 21.9268 6.13343 18.7834 6.13343C15.2312 6.13343 12.2351 7.32176 9.79503 9.69843C7.35396 12.0751 6.13343 14.9757 6.13343 18.4001C6.13343 21.799 7.32841 24.6934 9.71836 27.0834C12.1073 29.4723 14.9757 30.6668 18.3234 30.6668Z" fill="#B4C1D2"/>
</g>
</svg>
