<svg width="37" height="38" viewBox="0 0 37 38" fill="none" xmlns="http://www.w3.org/2000/svg">
<mask id="mask0_1548_1539" style="mask-type:alpha" maskUnits="userSpaceOnUse" x="0" y="0" width="37" height="38">
<rect y="0.949951" width="36.8" height="36.8" fill="#D9D9D9"/>
</mask>
<g mask="url(#mask0_1548_1539)">
<path d="M16.7901 23.72L24.3801 16.13L23.3067 15.0184L16.7901 21.535L13.4934 18.2767L12.4201 19.35L16.7901 23.72ZM18.4001 33.0734C15.3079 32.1789 12.7457 30.3195 10.7135 27.4951C8.68233 24.6717 7.66675 21.4967 7.66675 17.97V9.69004L18.4001 5.66504L29.1334 9.69004V17.97C29.1334 21.4967 28.1173 24.6717 26.0851 27.4951C24.054 30.3195 21.4923 32.1789 18.4001 33.0734ZM18.4001 31.4634C21.0579 30.62 23.2556 28.9334 24.9934 26.4034C26.7312 23.8734 27.6001 21.0623 27.6001 17.97V10.725L18.4001 7.31337L9.20008 10.725V17.97C9.20008 21.0623 10.069 23.8734 11.8067 26.4034C13.5445 28.9334 15.7423 30.62 18.4001 31.4634Z" fill="#B4C1D2"/>
</g>
</svg>
