<svg width="37" height="37" viewBox="0 0 37 37" fill="none" xmlns="http://www.w3.org/2000/svg">
<mask id="mask0_1470_2858" style="mask-type:alpha" maskUnits="userSpaceOnUse" x="0" y="0" width="37" height="37">
<rect width="36.8" height="36.8" fill="#D9D9D9"/>
</mask>
<g mask="url(#mask0_1470_2858)">
<path d="M16.7898 22.7701L24.3798 15.1801L23.3065 14.0684L16.7898 20.5851L13.4932 17.3268L12.4198 18.4001L16.7898 22.7701ZM18.3998 32.1234C15.3076 31.229 12.7454 29.3696 10.7132 26.5452C8.68208 23.7218 7.6665 20.5468 7.6665 17.0201V8.74009L18.3998 4.71509L29.1332 8.74009V17.0201C29.1332 20.5468 28.1171 23.7218 26.0849 26.5452C24.0537 29.3696 21.4921 31.229 18.3998 32.1234ZM18.3998 30.5134C21.0576 29.6701 23.2554 27.9834 24.9932 25.4534C26.7309 22.9234 27.5998 20.1123 27.5998 17.0201V9.77509L18.3998 6.36342L9.19984 9.77509V17.0201C9.19984 20.1123 10.0687 22.9234 11.8065 25.4534C13.5443 27.9834 15.7421 29.6701 18.3998 30.5134Z" fill="#B4C1D2"/>
</g>
</svg>
