<svg width="37" height="37" viewBox="0 0 37 37" fill="none" xmlns="http://www.w3.org/2000/svg">
<path d="M36.7504 18.3605C36.7451 14.6543 35.6198 11.0362 33.5223 7.98068C31.4247 4.92514 28.4527 2.57481 24.9959 1.2379C21.5392 -0.0990033 17.7592 -0.360068 14.1515 0.488925C10.5438 1.33792 7.27688 3.25734 4.77914 5.9955L4.72701 6.05435C4.66143 6.12666 4.59753 6.20067 4.53194 6.27466C3.23134 7.76691 2.18075 9.45978 1.42092 11.2876C1.26414 11.6637 1.20269 12.0727 1.24202 12.4782C1.28136 12.8838 1.42026 13.2733 1.64639 13.6123C1.87252 13.9512 2.17887 14.2291 2.53823 14.4211C2.89758 14.6132 3.29881 14.7134 3.70626 14.7131H3.98709C4.47518 14.7188 4.95369 14.5776 5.36038 14.3076C5.76707 14.0377 6.08311 13.6516 6.26739 13.1996C6.92787 11.6376 7.88502 10.2184 9.08581 9.02076C9.15308 8.95181 9.22371 8.88455 9.29434 8.81729L9.37001 8.74329L9.48268 8.63903L9.65084 8.49104L9.67943 8.46583C10.7448 7.52239 11.9562 6.75796 13.2664 6.20234L13.3605 6.1603C16.5824 4.83012 20.1999 4.83012 23.4218 6.1603L23.5126 6.20065C24.617 6.66956 25.6523 7.2868 26.59 8.03533L26.6539 8.08578L26.7918 8.20012C26.8489 8.24721 26.9061 8.29429 26.9599 8.34306L27.0154 8.39015L27.2324 8.58354C28.3326 9.58273 29.2559 10.7608 29.9633 12.0679C30.1675 12.4449 30.2703 12.8685 30.2615 13.2971C30.2528 13.7258 30.1329 14.1449 29.9135 14.5132C29.6941 14.8816 29.3829 15.1867 29.0101 15.3986C28.6374 15.6105 28.216 15.722 27.7873 15.7221H27.4913C27.0494 15.7286 26.6142 15.6137 26.2331 15.3898C25.8521 15.1659 25.5398 14.8417 25.3304 14.4524C24.474 12.9155 23.1316 11.7063 21.5138 11.0145C19.8961 10.3227 18.0944 10.1874 16.3915 10.6298C14.6886 11.0723 13.1807 12.0674 12.1043 13.4592C11.0279 14.851 10.4439 16.5607 10.4439 18.3202C10.4439 20.0797 11.0279 21.7894 12.1043 23.1812C13.1807 24.573 14.6886 25.5681 16.3915 26.0106C18.0944 26.453 19.8961 26.3178 21.5138 25.6259C23.1316 24.9341 24.474 23.7249 25.3304 22.188C25.5401 21.799 25.8524 21.475 26.2334 21.2511C26.6144 21.0273 27.0495 20.9122 27.4913 20.9184H27.7873C28.2161 20.9188 28.6374 21.0305 29.0101 21.2427C29.3828 21.4548 29.694 21.76 29.9133 22.1285C30.1326 22.4969 30.2525 22.916 30.2613 23.3447C30.2701 23.7734 30.1674 24.1971 29.9633 24.5742C28.5394 27.2042 26.2643 29.2724 23.5109 30.4398C23.0592 30.6244 22.6733 30.9406 22.4035 31.3472C22.1336 31.7538 21.9921 32.2321 21.9974 32.7201V33.0093C21.9978 33.4166 22.0985 33.8175 22.2906 34.1766C22.4828 34.5357 22.7604 34.842 23.0991 35.0682C23.4377 35.2945 23.8269 35.4338 24.2323 35.4739C24.6376 35.514 25.0465 35.4536 25.4229 35.298C28.7167 33.9307 31.5413 31.6342 33.5519 28.6886C35.5625 25.7431 36.6721 22.2759 36.7454 18.7103C36.7454 18.6666 36.7454 18.6246 36.7454 18.5825C36.7487 18.5035 36.7504 18.4312 36.7504 18.3605Z" fill="#705CE9"/>
<path d="M18.4659 31.4961C17.954 31.4958 17.4535 31.6473 17.0276 31.9314C16.6018 32.2156 16.2698 32.6197 16.0737 33.0926C15.8776 33.5655 15.8261 34.0858 15.9257 34.588C16.0254 35.0901 16.2718 35.5514 16.6336 35.9136C16.9955 36.2757 17.4567 36.5223 17.9587 36.6223C18.4608 36.7223 18.9813 36.6711 19.4543 36.4753C19.9273 36.2795 20.3316 35.9478 20.616 35.5221C20.9005 35.0965 21.0523 34.5961 21.0523 34.0841C21.0523 33.398 20.7799 32.74 20.2949 32.2547C19.8099 31.7694 19.152 31.4965 18.4659 31.4961Z" fill="#705CE9"/>
<path d="M14.7764 32.8292C14.7764 32.3173 14.6246 31.8169 14.3401 31.3912C14.0557 30.9656 13.6514 30.6339 13.1784 30.438C12.7054 30.2422 12.1849 30.1911 11.6829 30.2911C11.1808 30.3911 10.7196 30.6377 10.3578 30.9998C9.99589 31.362 9.74954 31.8232 9.64987 32.3254C9.5502 32.8275 9.60169 33.3479 9.79783 33.8208C9.99397 34.2937 10.3259 34.6978 10.7518 34.982C11.1776 35.2661 11.6781 35.4176 12.1901 35.4173C12.8762 35.4169 13.534 35.144 14.019 34.6587C14.504 34.1734 14.7764 33.5153 14.7764 32.8292Z" fill="#705CE9"/>
<path d="M9.56011 29.2218C9.56011 28.71 9.40833 28.2096 9.12395 27.784C8.83957 27.3584 8.43537 27.0267 7.96247 26.8308C7.48957 26.6349 6.9692 26.5837 6.46717 26.6835C5.96514 26.7834 5.504 27.0299 5.14205 27.3918C4.78011 27.7538 4.53362 28.2149 4.43376 28.7169C4.3339 29.219 4.38515 29.7393 4.58104 30.2122C4.77692 30.6851 5.10863 31.0893 5.53424 31.3737C5.95984 31.6581 6.46021 31.8099 6.97207 31.8099C7.65846 31.8099 8.31674 31.5372 8.80209 31.0518C9.28744 30.5665 9.56011 29.9082 9.56011 29.2218Z" fill="#705CE9"/>
<path d="M6.3062 24.046C6.3062 23.5341 6.15437 23.0337 5.86992 22.608C5.58547 22.1824 5.18118 21.8507 4.70818 21.6548C4.23518 21.459 3.71472 21.4079 3.21265 21.5079C2.71057 21.6079 2.24943 21.8545 1.88755 22.2166C1.52568 22.5788 1.27932 23.04 1.17965 23.5422C1.07998 24.0443 1.13147 24.5647 1.32761 25.0376C1.52375 25.5105 1.85573 25.9146 2.28155 26.1987C2.70737 26.4829 3.20791 26.6344 3.71985 26.6341C4.40595 26.6337 5.06379 26.3608 5.54878 25.8755C6.03377 25.3902 6.3062 24.7321 6.3062 24.046Z" fill="#705CE9"/>
<path d="M5.17608 18.0695C5.17608 17.5576 5.02429 17.0573 4.73991 16.6317C4.45553 16.2061 4.05134 15.8743 3.57844 15.6784C3.10554 15.4826 2.58517 15.4313 2.08314 15.5312C1.58111 15.631 1.11996 15.8775 0.75802 16.2395C0.396077 16.6014 0.14959 17.0625 0.0497296 17.5646C-0.0501304 18.0666 0.00112119 18.587 0.197004 19.0599C0.392886 19.5328 0.724601 19.937 1.1502 20.2214C1.5758 20.5057 2.07617 20.6575 2.58804 20.6575C3.27429 20.6571 3.93231 20.3843 4.41756 19.899C4.90282 19.4138 5.17563 18.7557 5.17608 18.0695Z" fill="#705CE9"/>
</svg>
