<svg width="25" height="26" viewBox="0 0 25 26" fill="none" xmlns="http://www.w3.org/2000/svg">
<mask id="mask0_1692_6814" style="mask-type:alpha" maskUnits="userSpaceOnUse" x="0" y="0" width="25" height="26">
<rect y="0.614014" width="24.4757" height="24.4757" fill="#D9D9D9"/>
</mask>
<g mask="url(#mask0_1692_6814)">
<path d="M19.9886 22.0303L13.5637 15.6055C13.0538 16.0134 12.4674 16.3363 11.8045 16.5743C11.1416 16.8123 10.4363 16.9312 9.6884 16.9312C7.83573 16.9312 6.26792 16.2898 4.98499 15.0068C3.70138 13.7232 3.05957 12.1551 3.05957 10.3024C3.05957 8.44974 3.70138 6.8816 4.98499 5.59798C6.26792 4.31505 7.83573 3.67358 9.6884 3.67358C11.5411 3.67358 13.1092 4.31505 14.3928 5.59798C15.6758 6.8816 16.3172 8.44974 16.3172 10.3024C16.3172 11.0503 16.1982 11.7557 15.9603 12.4185C15.7223 13.0814 15.3994 13.6678 14.9915 14.1777L21.4163 20.6026L19.9886 22.0303ZM9.6884 14.8916C10.9632 14.8916 12.0469 14.4456 12.9396 13.5536C13.8316 12.6609 14.2776 11.5772 14.2776 10.3024C14.2776 9.02764 13.8316 7.94391 12.9396 7.05123C12.0469 6.15922 10.9632 5.71322 9.6884 5.71322C8.41362 5.71322 7.3299 6.15922 6.43721 7.05123C5.54521 7.94391 5.09921 9.02764 5.09921 10.3024C5.09921 11.5772 5.54521 12.6609 6.43721 13.5536C7.3299 14.4456 8.41362 14.8916 9.6884 14.8916Z" fill="#B4C1D2" fill-opacity="0.4"/>
</g>
</svg>
