<svg width="20" height="19" viewBox="0 0 20 19" fill="none" xmlns="http://www.w3.org/2000/svg">
<path d="M18.9648 1.55078L16.7148 16.1406C16.6797 16.4922 16.4688 16.8086 16.1523 16.9844C15.9766 17.0547 15.8008 17.125 15.5898 17.125C15.4492 17.125 15.3086 17.0898 15.168 17.0195L10.8789 15.2266L9.08594 17.8984C8.94531 18.1445 8.69922 18.25 8.45312 18.25C8.06641 18.25 7.75 17.9336 7.75 17.5469V14.1719C7.75 13.8906 7.82031 13.6445 7.96094 13.4688L15.625 3.625L5.28906 12.9414L1.66797 11.4297C1.28125 11.2539 1 10.9023 1 10.4453C0.964844 9.95312 1.17578 9.60156 1.5625 9.39062L17.3125 0.425781C17.6641 0.214844 18.1562 0.214844 18.5078 0.460938C18.8594 0.707031 19.0352 1.12891 18.9648 1.55078Z" fill="#C1C7CF"/>
</svg>
