<svg width="37" height="38" viewBox="0 0 37 38" fill="none" xmlns="http://www.w3.org/2000/svg">
<mask id="mask0_1548_1533" style="mask-type:alpha" maskUnits="userSpaceOnUse" x="0" y="0" width="37" height="38">
<rect y="0.949951" width="36.8" height="36.8" fill="#D9D9D9"/>
</mask>
<g mask="url(#mask0_1548_1533)">
<path d="M15.5251 33.15L14.9884 28.7034C14.5028 28.5756 13.9728 28.3522 13.3983 28.0333C12.8228 27.7134 12.3434 27.3745 11.9601 27.0167L7.8584 28.7417L4.9834 23.7584L8.5484 21.075C8.49729 20.8195 8.45282 20.5445 8.415 20.2501C8.37615 19.9567 8.35673 19.6695 8.35673 19.3884C8.35673 19.1328 8.37615 18.8578 8.415 18.5634C8.45282 18.2701 8.49729 17.9573 8.5484 17.625L4.9834 14.9417L7.8584 10.035L11.9217 11.7217C12.3817 11.3384 12.8739 10.9934 13.3983 10.6867C13.9217 10.38 14.439 10.15 14.9501 9.99672L15.5251 5.55005H21.2751L21.8117 9.99672C22.3995 10.2267 22.9173 10.4695 23.365 10.725C23.8117 10.9806 24.2778 11.3128 24.7634 11.7217L28.9417 10.035L31.8167 14.9417L28.1367 17.7017C28.239 18.0084 28.2901 18.2961 28.2901 18.565V19.35C28.2901 19.58 28.2839 19.8295 28.2717 20.0983C28.2584 20.3661 28.2134 20.6917 28.1367 21.075L31.7401 23.7584L28.8651 28.7417L24.7634 26.9784C24.2778 27.3873 23.7989 27.7323 23.3267 28.0134C22.8534 28.2945 22.3484 28.5245 21.8117 28.7034L21.2751 33.15H15.5251ZM18.3617 23.1834C19.4351 23.1834 20.3423 22.8128 21.0834 22.0717C21.8245 21.3306 22.1951 20.4234 22.1951 19.35C22.1951 18.2767 21.8245 17.3695 21.0834 16.6284C20.3423 15.8873 19.4351 15.5167 18.3617 15.5167C17.2884 15.5167 16.3812 15.8873 15.6401 16.6284C14.899 17.3695 14.5284 18.2767 14.5284 19.35C14.5284 20.4234 14.899 21.3306 15.6401 22.0717C16.3812 22.8128 17.2884 23.1834 18.3617 23.1834ZM18.3617 21.65C17.7228 21.65 17.18 21.4262 16.7333 20.9784C16.2856 20.5317 16.0617 19.9889 16.0617 19.35C16.0617 18.7112 16.2856 18.1684 16.7333 17.7216C17.18 17.2739 17.7228 17.05 18.3617 17.05C19.0006 17.05 19.5439 17.2739 19.9917 17.7216C20.4384 18.1684 20.6617 18.7112 20.6617 19.35C20.6617 19.9889 20.4384 20.5317 19.9917 20.9784C19.5439 21.4262 19.0006 21.65 18.3617 21.65ZM16.8667 31.6167H19.8567L20.4317 27.4767C21.1984 27.2723 21.895 26.9912 22.5217 26.6334C23.1473 26.2756 23.7795 25.7773 24.4184 25.1384L28.2134 26.7867L29.7467 24.18L26.4117 21.65C26.5395 21.2156 26.6228 20.8128 26.6617 20.4418C26.6995 20.0717 26.7184 19.7078 26.7184 19.35C26.7184 18.9667 26.6995 18.6023 26.6617 18.2568C26.6228 17.9123 26.5395 17.5228 26.4117 17.0884L29.8234 14.52L28.2901 11.9134L24.3801 13.5617C23.9201 13.0506 23.3134 12.5712 22.56 12.1234C21.8056 11.6767 21.0834 11.3767 20.3934 11.2234L19.9334 7.08338H16.8667L16.4067 11.2234C15.6401 11.3767 14.9306 11.6384 14.2785 12.0084C13.6273 12.3795 12.9823 12.8845 12.3434 13.5234L8.51007 11.9134L6.97673 14.52L10.3117 17.0117C10.184 17.3439 10.0945 17.7145 10.0434 18.1234C9.99229 18.5323 9.96673 18.9539 9.96673 19.3884C9.96673 19.7717 9.99229 20.155 10.0434 20.5384C10.0945 20.9217 10.1712 21.2923 10.2734 21.65L6.97673 24.18L8.51007 26.7867L12.3051 25.1767C12.9184 25.79 13.5445 26.2756 14.1834 26.6334C14.8223 26.9912 15.5506 27.2723 16.3684 27.4767L16.8667 31.6167Z" fill="#B4C1D2"/>
</g>
</svg>
