<svg width="29" height="29" viewBox="0 0 29 29" fill="none" xmlns="http://www.w3.org/2000/svg">
<mask id="mask0_1462_1590" style="mask-type:alpha" maskUnits="userSpaceOnUse" x="0" y="0" width="29" height="29">
<rect width="28.2109" height="28.2109" fill="#D9D9D9"/>
</mask>
<g mask="url(#mask0_1462_1590)">
<path d="M10.8731 25.8599L10.4029 22.0985C10.1482 22.0005 9.90841 21.883 9.6835 21.7459C9.45781 21.6087 9.23722 21.4618 9.02172 21.3051L5.52474 22.7744L2.29224 17.191L5.31903 14.8988C5.29944 14.7617 5.28965 14.6292 5.28965 14.5015V13.7081C5.28965 13.5811 5.29944 13.4491 5.31903 13.312L2.29224 11.0198L5.52474 5.4364L9.02172 6.90572C9.23722 6.74899 9.46252 6.60206 9.69761 6.46493C9.9327 6.32779 10.1678 6.21024 10.4029 6.11229L10.8731 2.35083H17.3381L17.8083 6.11229C18.0629 6.21024 18.3031 6.32779 18.5288 6.46493C18.7537 6.60206 18.9739 6.74899 19.1894 6.90572L22.6864 5.4364L25.9189 11.0198L22.8921 13.312C22.9117 13.4491 22.9215 13.5811 22.9215 13.7081V14.5015C22.9215 14.6292 22.9019 14.7617 22.8627 14.8988L25.8895 17.191L22.657 22.7744L19.1894 21.3051C18.9739 21.4618 18.7486 21.6087 18.5135 21.7459C18.2784 21.883 18.0433 22.0005 17.8083 22.0985L17.3381 25.8599H10.8731ZM14.1643 18.2195C15.3006 18.2195 16.2704 17.8179 17.0736 17.0146C17.8768 16.2114 18.2784 15.2417 18.2784 14.1054C18.2784 12.9691 17.8768 11.9994 17.0736 11.1961C16.2704 10.3929 15.3006 9.99129 14.1643 9.99129C13.0085 9.99129 12.0336 10.3929 11.2398 11.1961C10.4468 11.9994 10.0502 12.9691 10.0502 14.1054C10.0502 15.2417 10.4468 16.2114 11.2398 17.0146C12.0336 17.8179 13.0085 18.2195 14.1643 18.2195Z" fill="#B4C1D2"/>
</g>
</svg>
