<svg width="21" height="22" viewBox="0 0 21 22" fill="none" xmlns="http://www.w3.org/2000/svg">
	<path d="M20.3438 7.47461C20.4531 7.85742 20.3711 8.18555 20.0977 8.45898L18.293 10.0996C18.3477 10.4277 18.375 10.7695 18.375 11.125C18.375 11.4805 18.3477 11.8223 18.293 12.1504L20.0977 13.791C20.3711 14.0645 20.4531 14.3926 20.3438 14.7754C20.1523 15.2676 19.9336 15.7461 19.6875 16.2109L19.5234 16.5391C19.25 16.9766 18.9355 17.4004 18.5801 17.8105C18.3066 18.1113 17.9785 18.207 17.5957 18.0977L15.2988 17.3594C14.7246 17.7969 14.123 18.1523 13.4941 18.4258L13.002 20.7637C12.8926 21.1465 12.6465 21.3926 12.2637 21.502C11.6895 21.584 11.0879 21.625 10.459 21.625C9.88477 21.625 9.32422 21.584 8.77734 21.502C8.36719 21.3926 8.10742 21.1465 7.99805 20.7637L7.50586 18.4258C6.84961 18.1523 6.24805 17.7969 5.70117 17.3594L3.4043 18.0977C3.02148 18.207 2.69336 18.1113 2.41992 17.8105C2.06445 17.4004 1.76367 16.9766 1.51758 16.5391L1.3125 16.2109C1.06641 15.7461 0.847656 15.2676 0.65625 14.7754C0.546875 14.3926 0.628906 14.0645 0.902344 13.791L2.70703 12.1504C2.65234 11.8223 2.625 11.4805 2.625 11.125C2.625 10.7695 2.65234 10.4277 2.70703 10.0996L0.902344 8.45898C0.628906 8.18555 0.546875 7.85742 0.65625 7.47461C0.847656 6.98242 1.06641 6.50391 1.3125 6.03906L1.51758 5.71094C1.76367 5.27344 2.06445 4.84961 2.41992 4.43945C2.69336 4.13867 3.02148 4.04297 3.4043 4.15234L5.70117 4.89062C6.24805 4.45312 6.84961 4.09766 7.50586 3.82422L7.99805 1.48633C8.10742 1.10352 8.36719 0.871094 8.77734 0.789062C9.32422 0.679687 9.89844 0.625 10.5 0.625C11.1016 0.625 11.6895 0.679687 12.2637 0.789062C12.6465 0.871094 12.8926 1.10352 13.002 1.48633L13.4941 3.82422C14.123 4.09766 14.7246 4.45312 15.2988 4.89062L17.5957 4.15234C17.9785 4.04297 18.3066 4.13867 18.5801 4.43945C18.9355 4.84961 19.25 5.27344 19.5234 5.71094L19.6875 6.03906C19.9336 6.50391 20.1523 6.98242 20.3438 7.47461ZM10.5 14.4062C11.4297 14.3789 12.209 14.0508 12.8379 13.4219C13.4395 12.8203 13.7539 12.041 13.7812 11.084C13.7539 10.1816 13.4395 9.41602 12.8379 8.78711C12.209 8.1582 11.4297 7.83008 10.5 7.80273C9.57031 7.83008 8.79102 8.1582 8.16211 8.78711C7.56055 9.41602 7.24609 10.1816 7.21875 11.084C7.24609 12.041 7.56055 12.8203 8.16211 13.4219C8.79102 14.0508 9.57031 14.3789 10.5 14.4062Z" fill="#333333" />
</svg>
