<svg width="37" height="37" viewBox="0 0 37 37" fill="none" xmlns="http://www.w3.org/2000/svg">
<mask id="mask0_1543_1937" style="mask-type:alpha" maskUnits="userSpaceOnUse" x="0" y="0" width="37" height="37">
<rect width="36.8" height="36.8" fill="#D9D9D9"/>
</mask>
<g mask="url(#mask0_1543_1937)">
<path d="M13.0332 26.8334H23.7665V25.3001H13.0332V26.8334ZM13.0332 20.7001H23.7665V19.1668H13.0332V20.7001ZM10.1582 32.2001C9.44262 32.2001 8.8487 31.964 8.37644 31.4917C7.90315 31.0184 7.6665 30.424 7.6665 29.7084V7.09176C7.6665 6.37621 7.90315 5.78179 8.37644 5.3085C8.8487 4.83623 9.44262 4.6001 10.1582 4.6001H22.2332L29.1332 11.5001V29.7084C29.1332 30.424 28.897 31.0184 28.4248 31.4917C27.9515 31.964 27.3571 32.2001 26.6415 32.2001H10.1582ZM21.4665 12.2668V6.13343H10.1582C9.90262 6.13343 9.67926 6.22952 9.4881 6.4217C9.29593 6.61285 9.19984 6.83621 9.19984 7.09176V29.7084C9.19984 29.964 9.29593 30.1873 9.4881 30.3785C9.67926 30.5707 9.90262 30.6668 10.1582 30.6668H26.6415C26.8971 30.6668 27.1204 30.5707 27.3116 30.3785C27.5037 30.1873 27.5998 29.964 27.5998 29.7084V12.2668H21.4665Z" fill="#B4C1D2"/>
</g>
</svg>
