<svg width="37" height="38" viewBox="0 0 37 38" fill="none" xmlns="http://www.w3.org/2000/svg">
<mask id="mask0_1548_1520" style="mask-type:alpha" maskUnits="userSpaceOnUse" x="0" y="0" width="37" height="38">
<rect y="0.950195" width="36.8" height="36.8" fill="#D9D9D9"/>
</mask>
<g mask="url(#mask0_1548_1520)">
<path d="M13.0334 27.7836H23.7667V26.2503H13.0334V27.7836ZM13.0334 21.6503H23.7667V20.117H13.0334V21.6503ZM10.1584 33.1503C9.44286 33.1503 8.84895 32.9142 8.37668 32.4419C7.90339 31.9686 7.66675 31.3742 7.66675 30.6586V8.04196C7.66675 7.3264 7.90339 6.73198 8.37668 6.25869C8.84895 5.78643 9.44286 5.55029 10.1584 5.55029H22.2334L29.1334 12.4503V30.6586C29.1334 31.3742 28.8973 31.9686 28.425 32.4419C27.9517 32.9142 27.3573 33.1503 26.6417 33.1503H10.1584ZM21.4667 13.217V7.08363H10.1584C9.90286 7.08363 9.6795 7.17972 9.48835 7.37189C9.29617 7.56305 9.20008 7.7864 9.20008 8.04196V30.6586C9.20008 30.9142 9.29617 31.1375 9.48835 31.3287C9.6795 31.5209 9.90286 31.617 10.1584 31.617H26.6417C26.8973 31.617 27.1207 31.5209 27.3118 31.3287C27.504 31.1375 27.6001 30.9142 27.6001 30.6586V13.217H21.4667Z" fill="#B4C1D2"/>
</g>
</svg>
