<svg width="37" height="38" viewBox="0 0 37 38" fill="none" xmlns="http://www.w3.org/2000/svg">
<mask id="mask0_1548_1513" style="mask-type:alpha" maskUnits="userSpaceOnUse" x="0" y="0" width="37" height="38">
<rect y="0.949951" width="36.8" height="36.8" fill="#D9D9D9"/>
</mask>
<g mask="url(#mask0_1548_1513)">
<path d="M18.3234 33.15C16.4579 33.15 14.6884 32.7861 13.015 32.0583C11.3406 31.3295 9.88396 30.3451 8.64503 29.1051C7.40508 27.8662 6.42068 26.4034 5.69183 24.7167C4.96401 23.03 4.6001 21.2412 4.6001 19.35C4.6001 17.4334 4.97065 15.6317 5.71176 13.945C6.45288 12.2584 7.46232 10.7951 8.7401 9.55512C10.0179 8.31618 11.5195 7.33894 13.245 6.62338C14.9695 5.90783 16.8157 5.55005 18.7834 5.55005C20.5723 5.55005 22.2718 5.85007 23.8818 6.45012C25.4918 7.05118 26.9101 7.88838 28.1368 8.96172C29.3634 10.035 30.3473 11.3128 31.0884 12.795C31.8295 14.2773 32.2001 15.9 32.2001 17.6634C32.2001 20.04 31.5167 21.9378 30.15 23.3566C28.7823 24.7745 26.9101 25.4834 24.5334 25.4834H21.8118C21.1729 25.4834 20.6362 25.7072 20.2018 26.155C19.7673 26.6017 19.5501 27.1317 19.5501 27.745C19.5501 28.3839 19.7418 28.9272 20.1251 29.375C20.5084 29.8217 20.7001 30.3389 20.7001 30.9267C20.7001 31.6678 20.4895 32.2234 20.0684 32.5934C19.6462 32.9645 19.0645 33.15 18.3234 33.15ZM9.96676 20.1167C10.4012 20.1167 10.7656 19.9695 11.06 19.6751C11.3534 19.3817 11.5001 19.0178 11.5001 18.5834C11.5001 18.1489 11.3534 17.7845 11.06 17.4901C10.7656 17.1967 10.4012 17.05 9.96676 17.05C9.53232 17.05 9.1679 17.1967 8.8735 17.4901C8.58012 17.7845 8.43343 18.1489 8.43343 18.5834C8.43343 19.0178 8.58012 19.3817 8.8735 19.6751C9.1679 19.9695 9.53232 20.1167 9.96676 20.1167ZM14.5668 13.9834C15.0012 13.9834 15.3656 13.8367 15.66 13.5433C15.9534 13.2489 16.1001 12.8845 16.1001 12.45C16.1001 12.0156 15.9534 11.6512 15.66 11.3568C15.3656 11.0634 15.0012 10.9167 14.5668 10.9167C14.1323 10.9167 13.7684 11.0634 13.475 11.3568C13.1806 11.6512 13.0334 12.0156 13.0334 12.45C13.0334 12.8845 13.1806 13.2489 13.475 13.5433C13.7684 13.8367 14.1323 13.9834 14.5668 13.9834ZM22.2334 13.9834C22.6679 13.9834 23.0323 13.8367 23.3267 13.5433C23.6201 13.2489 23.7668 12.8845 23.7668 12.45C23.7668 12.0156 23.6201 11.6512 23.3267 11.3568C23.0323 11.0634 22.6679 10.9167 22.2334 10.9167C21.799 10.9167 21.4351 11.0634 21.1417 11.3568C20.8473 11.6512 20.7001 12.0156 20.7001 12.45C20.7001 12.8845 20.8473 13.2489 21.1417 13.5433C21.4351 13.8367 21.799 13.9834 22.2334 13.9834ZM26.8334 20.1167C27.2679 20.1167 27.6318 19.9695 27.9252 19.6751C28.2196 19.3817 28.3668 19.0178 28.3668 18.5834C28.3668 18.1489 28.2196 17.7845 27.9252 17.4901C27.6318 17.1967 27.2679 17.05 26.8334 17.05C26.399 17.05 26.0351 17.1967 25.7417 17.4901C25.4473 17.7845 25.3001 18.1489 25.3001 18.5834C25.3001 19.0178 25.4473 19.3817 25.7417 19.6751C26.0351 19.9695 26.399 20.1167 26.8334 20.1167ZM18.3234 31.6167C18.6045 31.6167 18.8156 31.559 18.9567 31.4434C19.0967 31.329 19.1668 31.1567 19.1668 30.9267C19.1668 30.5689 18.9751 30.1856 18.5918 29.7767C18.2084 29.3678 18.0168 28.7034 18.0168 27.7834C18.0168 26.6589 18.3873 25.7389 19.1284 25.0234C19.8695 24.3078 20.7768 23.95 21.8501 23.95H24.5334C26.4501 23.95 27.9517 23.3812 29.0384 22.2434C30.124 21.1067 30.6668 19.58 30.6668 17.6634C30.6668 14.5456 29.4723 12.0028 27.0834 10.035C24.6934 8.06727 21.9268 7.08338 18.7834 7.08338C15.2312 7.08338 12.2351 8.27172 9.79503 10.6484C7.35396 13.025 6.13343 15.9256 6.13343 19.35C6.13343 22.7489 7.32841 25.6434 9.71836 28.0333C12.1073 30.4222 14.9757 31.6167 18.3234 31.6167Z" fill="#B4C1D2"/>
</g>
</svg>
