<svg width="687" height="442" viewBox="0 0 687 442" fill="none" xmlns="http://www.w3.org/2000/svg">
<rect x="74.1958" y="81.8384" width="568.62" height="328.511" rx="20" fill="black" fill-opacity="0.2"/>
<g filter="url(#filter0_b_1470_2392)">
<rect x="41.4541" y="59.5664" width="148.43" height="148.43" rx="10" transform="rotate(-4.89008 41.4541 59.5664)" fill="#7DA6DC" fill-opacity="0.1"/>
</g>
<g filter="url(#filter1_b_1470_2392)">
<rect x="63.2822" y="141.151" width="106.844" height="31.4944" rx="10" transform="rotate(-4.89008 63.2822 141.151)" fill="#7DA6DC" fill-opacity="0.1"/>
</g>
<g filter="url(#filter2_b_1470_2392)">
<rect x="273.922" y="38.7297" width="148.43" height="148.43" rx="10" transform="rotate(-1.05394 273.922 38.7297)" fill="#7DA6DC" fill-opacity="0.1"/>
</g>
<g filter="url(#filter3_b_1470_2392)">
<rect x="302.593" y="127.677" width="106.844" height="31.4944" rx="10" transform="rotate(0.536502 302.593 127.677)" fill="#7DA6DC" fill-opacity="0.1"/>
</g>
<g filter="url(#filter4_b_1470_2392)">
<rect x="508.496" y="55.6448" width="148.43" height="148.43" rx="10" transform="rotate(10.9909 508.496 55.6448)" fill="#7DA6DC" fill-opacity="0.1"/>
</g>
<g filter="url(#filter5_b_1470_2392)">
<rect x="515.42" y="145.933" width="106.844" height="31.4944" rx="10" transform="rotate(10.9909 515.42 145.933)" fill="#7DA6DC" fill-opacity="0.1"/>
</g>
<g filter="url(#filter6_b_1470_2392)">
<rect x="103.664" y="293.569" width="148.43" height="148.43" rx="10" fill="#7DA6DC" fill-opacity="0.1"/>
</g>
<g filter="url(#filter7_b_1470_2392)">
<rect x="124.4" y="378.699" width="106.844" height="31.4944" rx="10" fill="#7DA6DC" fill-opacity="0.1"/>
</g>
<g filter="url(#filter8_b_1470_2392)">
<rect x="284.836" y="293.569" width="148.43" height="148.43" rx="10" fill="#7DA6DC" fill-opacity="0.1"/>
</g>
<g filter="url(#filter9_b_1470_2392)">
<rect x="305.573" y="378.699" width="106.844" height="31.4944" rx="10" fill="#7DA6DC" fill-opacity="0.1"/>
</g>
<g filter="url(#filter10_b_1470_2392)">
<rect x="466.009" y="293.569" width="148.43" height="148.43" rx="10" fill="#7DA6DC" fill-opacity="0.1"/>
</g>
<g filter="url(#filter11_b_1470_2392)">
<rect x="490.02" y="378.699" width="106.844" height="31.4944" rx="10" fill="#7DA6DC" fill-opacity="0.1"/>
</g>
<path d="M278.492 248.02C276.292 248.02 274.402 247.58 272.822 246.7C271.262 245.8 270.062 244.54 269.222 242.92C268.382 241.28 267.962 239.35 267.962 237.13C267.962 235.47 268.202 233.98 268.682 232.66C269.162 231.32 269.852 230.18 270.752 229.24C271.652 228.28 272.752 227.55 274.052 227.05C275.372 226.53 276.852 226.27 278.492 226.27C279.592 226.27 280.672 226.41 281.732 226.69C282.792 226.97 283.722 227.37 284.522 227.89C284.942 228.15 285.222 228.47 285.362 228.85C285.502 229.21 285.532 229.57 285.452 229.93C285.372 230.27 285.202 230.56 284.942 230.8C284.702 231.04 284.392 231.18 284.012 231.22C283.652 231.24 283.252 231.11 282.812 230.83C282.192 230.43 281.522 230.14 280.802 229.96C280.082 229.78 279.352 229.69 278.612 229.69C277.192 229.69 275.992 229.98 275.012 230.56C274.032 231.14 273.292 231.98 272.792 233.08C272.292 234.18 272.042 235.53 272.042 237.13C272.042 238.71 272.292 240.06 272.792 241.18C273.292 242.3 274.032 243.15 275.012 243.73C275.992 244.31 277.192 244.6 278.612 244.6C279.372 244.6 280.122 244.51 280.862 244.33C281.602 244.13 282.302 243.83 282.962 243.43C283.402 243.17 283.792 243.06 284.132 243.1C284.492 243.12 284.792 243.24 285.032 243.46C285.272 243.68 285.432 243.96 285.512 244.3C285.592 244.62 285.572 244.96 285.452 245.32C285.332 245.66 285.092 245.96 284.732 246.22C283.932 246.8 282.972 247.25 281.852 247.57C280.752 247.87 279.632 248.02 278.492 248.02ZM294.317 248.02C292.797 248.02 291.477 247.71 290.357 247.09C289.237 246.47 288.367 245.59 287.747 244.45C287.127 243.29 286.817 241.93 286.817 240.37C286.817 239.19 286.987 238.14 287.327 237.22C287.687 236.28 288.197 235.48 288.857 234.82C289.517 234.14 290.307 233.63 291.227 233.29C292.147 232.93 293.177 232.75 294.317 232.75C295.837 232.75 297.157 233.06 298.277 233.68C299.397 234.3 300.267 235.18 300.887 236.32C301.507 237.46 301.817 238.81 301.817 240.37C301.817 241.55 301.637 242.61 301.277 243.55C300.937 244.49 300.437 245.3 299.777 245.98C299.117 246.64 298.327 247.15 297.407 247.51C296.487 247.85 295.457 248.02 294.317 248.02ZM294.317 245.17C295.057 245.17 295.707 244.99 296.267 244.63C296.827 244.27 297.257 243.74 297.557 243.04C297.877 242.32 298.037 241.43 298.037 240.37C298.037 238.77 297.697 237.58 297.017 236.8C296.337 236 295.437 235.6 294.317 235.6C293.577 235.6 292.927 235.78 292.367 236.14C291.807 236.48 291.367 237.01 291.047 237.73C290.747 238.43 290.597 239.31 290.597 240.37C290.597 241.95 290.937 243.15 291.617 243.97C292.297 244.77 293.197 245.17 294.317 245.17ZM306.833 247.96C306.233 247.96 305.773 247.8 305.453 247.48C305.133 247.14 304.973 246.66 304.973 246.04V234.7C304.973 234.08 305.133 233.61 305.453 233.29C305.773 232.97 306.223 232.81 306.803 232.81C307.383 232.81 307.833 232.97 308.153 233.29C308.473 233.61 308.633 234.08 308.633 234.7V236.89L308.303 235.99C308.703 234.99 309.323 234.2 310.163 233.62C311.003 233.04 312.003 232.75 313.163 232.75C314.343 232.75 315.313 233.03 316.073 233.59C316.833 234.15 317.363 235.01 317.663 236.17H317.243C317.643 235.11 318.303 234.28 319.223 233.68C320.143 233.06 321.203 232.75 322.403 232.75C323.523 232.75 324.443 232.97 325.163 233.41C325.903 233.85 326.453 234.52 326.813 235.42C327.173 236.3 327.353 237.42 327.353 238.78V246.04C327.353 246.66 327.183 247.14 326.843 247.48C326.523 247.8 326.063 247.96 325.463 247.96C324.863 247.96 324.403 247.8 324.083 247.48C323.763 247.14 323.603 246.66 323.603 246.04V238.93C323.603 237.81 323.413 236.99 323.033 236.47C322.673 235.95 322.053 235.69 321.173 235.69C320.193 235.69 319.423 236.04 318.863 236.74C318.303 237.42 318.023 238.37 318.023 239.59V246.04C318.023 246.66 317.863 247.14 317.543 247.48C317.223 247.8 316.763 247.96 316.163 247.96C315.563 247.96 315.093 247.8 314.753 247.48C314.433 247.14 314.273 246.66 314.273 246.04V238.93C314.273 237.81 314.083 236.99 313.703 236.47C313.343 235.95 312.733 235.69 311.873 235.69C310.893 235.69 310.123 236.04 309.563 236.74C309.003 237.42 308.723 238.37 308.723 239.59V246.04C308.723 247.32 308.093 247.96 306.833 247.96ZM333.081 247.93C332.481 247.93 332.021 247.75 331.701 247.39C331.381 247.03 331.221 246.53 331.221 245.89V234.88C331.221 234.22 331.381 233.72 331.701 233.38C332.021 233.02 332.481 232.84 333.081 232.84C333.681 232.84 334.141 233.02 334.461 233.38C334.801 233.72 334.971 234.22 334.971 234.88V245.89C334.971 246.53 334.811 247.03 334.491 247.39C334.171 247.75 333.701 247.93 333.081 247.93ZM333.081 230.05C332.381 230.05 331.831 229.88 331.431 229.54C331.051 229.18 330.861 228.69 330.861 228.07C330.861 227.43 331.051 226.94 331.431 226.6C331.831 226.26 332.381 226.09 333.081 226.09C333.801 226.09 334.351 226.26 334.731 226.6C335.111 226.94 335.301 227.43 335.301 228.07C335.301 228.69 335.111 229.18 334.731 229.54C334.351 229.88 333.801 230.05 333.081 230.05ZM340.728 247.96C340.128 247.96 339.668 247.8 339.348 247.48C339.028 247.14 338.868 246.66 338.868 246.04V234.7C338.868 234.08 339.028 233.61 339.348 233.29C339.668 232.97 340.118 232.81 340.698 232.81C341.278 232.81 341.728 232.97 342.048 233.29C342.368 233.61 342.528 234.08 342.528 234.7V236.74L342.198 235.99C342.638 234.93 343.318 234.13 344.238 233.59C345.178 233.03 346.238 232.75 347.418 232.75C348.598 232.75 349.568 232.97 350.328 233.41C351.088 233.85 351.658 234.52 352.038 235.42C352.418 236.3 352.608 237.42 352.608 238.78V246.04C352.608 246.66 352.448 247.14 352.128 247.48C351.808 247.8 351.348 247.96 350.748 247.96C350.148 247.96 349.678 247.8 349.338 247.48C349.018 247.14 348.858 246.66 348.858 246.04V238.96C348.858 237.82 348.638 236.99 348.198 236.47C347.778 235.95 347.118 235.69 346.218 235.69C345.118 235.69 344.238 236.04 343.578 236.74C342.938 237.42 342.618 238.33 342.618 239.47V246.04C342.618 247.32 341.988 247.96 340.728 247.96ZM363.257 253.42C362.177 253.42 361.127 253.32 360.107 253.12C359.107 252.92 358.197 252.61 357.377 252.19C356.997 251.99 356.737 251.75 356.597 251.47C356.477 251.19 356.437 250.9 356.477 250.6C356.537 250.32 356.657 250.07 356.837 249.85C357.037 249.63 357.277 249.48 357.557 249.4C357.837 249.32 358.127 249.36 358.427 249.52C359.307 249.96 360.137 250.24 360.917 250.36C361.717 250.5 362.397 250.57 362.957 250.57C364.297 250.57 365.297 250.24 365.957 249.58C366.637 248.94 366.977 247.98 366.977 246.7V244H367.247C366.947 245.02 366.317 245.84 365.357 246.46C364.417 247.06 363.347 247.36 362.147 247.36C360.827 247.36 359.677 247.06 358.697 246.46C357.717 245.84 356.957 244.98 356.417 243.88C355.877 242.78 355.607 241.5 355.607 240.04C355.607 238.94 355.757 237.95 356.057 237.07C356.377 236.17 356.817 235.4 357.377 234.76C357.957 234.12 358.647 233.63 359.447 233.29C360.267 232.93 361.167 232.75 362.147 232.75C363.387 232.75 364.467 233.06 365.387 233.68C366.327 234.28 366.937 235.08 367.217 236.08L366.917 236.83V234.7C366.917 234.08 367.077 233.61 367.397 233.29C367.737 232.97 368.197 232.81 368.777 232.81C369.377 232.81 369.837 232.97 370.157 233.29C370.477 233.61 370.637 234.08 370.637 234.7V246.25C370.637 248.63 370.007 250.42 368.747 251.62C367.487 252.82 365.657 253.42 363.257 253.42ZM363.167 244.51C363.947 244.51 364.617 244.33 365.177 243.97C365.737 243.61 366.167 243.1 366.467 242.44C366.787 241.76 366.947 240.96 366.947 240.04C366.947 238.66 366.607 237.58 365.927 236.8C365.247 236 364.327 235.6 363.167 235.6C362.387 235.6 361.717 235.78 361.157 236.14C360.597 236.5 360.157 237.01 359.837 237.67C359.537 238.33 359.387 239.12 359.387 240.04C359.387 241.42 359.727 242.51 360.407 243.31C361.087 244.11 362.007 244.51 363.167 244.51ZM390.317 248.02C389.437 248.02 388.557 247.95 387.677 247.81C386.797 247.69 385.967 247.5 385.187 247.24C384.407 246.96 383.707 246.62 383.087 246.22C382.727 245.98 382.477 245.69 382.337 245.35C382.197 245.01 382.147 244.68 382.187 244.36C382.247 244.02 382.377 243.73 382.577 243.49C382.797 243.23 383.067 243.07 383.387 243.01C383.707 242.95 384.057 243.04 384.437 243.28C385.317 243.8 386.247 244.18 387.227 244.42C388.207 244.66 389.237 244.78 390.317 244.78C391.897 244.78 393.047 244.52 393.767 244C394.487 243.46 394.847 242.77 394.847 241.93C394.847 241.23 394.587 240.68 394.067 240.28C393.567 239.88 392.697 239.55 391.457 239.29L388.157 238.6C386.257 238.2 384.837 237.53 383.897 236.59C382.977 235.63 382.517 234.37 382.517 232.81C382.517 231.83 382.717 230.94 383.117 230.14C383.517 229.34 384.077 228.65 384.797 228.07C385.537 227.49 386.407 227.05 387.407 226.75C388.427 226.43 389.547 226.27 390.767 226.27C391.967 226.27 393.107 226.42 394.187 226.72C395.267 227.02 396.237 227.46 397.097 228.04C397.417 228.26 397.627 228.53 397.727 228.85C397.847 229.17 397.877 229.49 397.817 229.81C397.757 230.11 397.617 230.37 397.397 230.59C397.177 230.81 396.897 230.94 396.557 230.98C396.237 231.02 395.867 230.92 395.447 230.68C394.707 230.26 393.957 229.96 393.197 229.78C392.437 229.6 391.617 229.51 390.737 229.51C389.817 229.51 389.027 229.64 388.367 229.9C387.707 230.16 387.197 230.53 386.837 231.01C386.497 231.47 386.327 232.02 386.327 232.66C386.327 233.38 386.567 233.96 387.047 234.4C387.527 234.82 388.347 235.15 389.507 235.39L392.777 236.08C394.757 236.5 396.227 237.16 397.187 238.06C398.167 238.96 398.657 240.16 398.657 241.66C398.657 242.62 398.457 243.49 398.057 244.27C397.677 245.05 397.117 245.72 396.377 246.28C395.657 246.84 394.787 247.27 393.767 247.57C392.747 247.87 391.597 248.02 390.317 248.02ZM408.282 248.02C406.762 248.02 405.442 247.71 404.322 247.09C403.202 246.47 402.332 245.59 401.712 244.45C401.092 243.29 400.782 241.93 400.782 240.37C400.782 239.19 400.952 238.14 401.292 237.22C401.652 236.28 402.162 235.48 402.822 234.82C403.482 234.14 404.272 233.63 405.192 233.29C406.112 232.93 407.142 232.75 408.282 232.75C409.802 232.75 411.122 233.06 412.242 233.68C413.362 234.3 414.232 235.18 414.852 236.32C415.472 237.46 415.782 238.81 415.782 240.37C415.782 241.55 415.602 242.61 415.242 243.55C414.902 244.49 414.402 245.3 413.742 245.98C413.082 246.64 412.292 247.15 411.372 247.51C410.452 247.85 409.422 248.02 408.282 248.02ZM408.282 245.17C409.022 245.17 409.672 244.99 410.232 244.63C410.792 244.27 411.222 243.74 411.522 243.04C411.842 242.32 412.002 241.43 412.002 240.37C412.002 238.77 411.662 237.58 410.982 236.8C410.302 236 409.402 235.6 408.282 235.6C407.542 235.6 406.892 235.78 406.332 236.14C405.772 236.48 405.332 237.01 405.012 237.73C404.712 238.43 404.562 239.31 404.562 240.37C404.562 241.95 404.902 243.15 405.582 243.97C406.262 244.77 407.162 245.17 408.282 245.17ZM425.567 248.02C424.047 248.02 422.727 247.71 421.607 247.09C420.487 246.47 419.617 245.59 418.997 244.45C418.377 243.29 418.067 241.93 418.067 240.37C418.067 239.19 418.237 238.14 418.577 237.22C418.937 236.28 419.447 235.48 420.107 234.82C420.767 234.14 421.557 233.63 422.477 233.29C423.397 232.93 424.427 232.75 425.567 232.75C427.087 232.75 428.407 233.06 429.527 233.68C430.647 234.3 431.517 235.18 432.137 236.32C432.757 237.46 433.067 238.81 433.067 240.37C433.067 241.55 432.887 242.61 432.527 243.55C432.187 244.49 431.687 245.3 431.027 245.98C430.367 246.64 429.577 247.15 428.657 247.51C427.737 247.85 426.707 248.02 425.567 248.02ZM425.567 245.17C426.307 245.17 426.957 244.99 427.517 244.63C428.077 244.27 428.507 243.74 428.807 243.04C429.127 242.32 429.287 241.43 429.287 240.37C429.287 238.77 428.947 237.58 428.267 236.8C427.587 236 426.687 235.6 425.567 235.6C424.827 235.6 424.177 235.78 423.617 236.14C423.057 236.48 422.617 237.01 422.297 237.73C421.997 238.43 421.847 239.31 421.847 240.37C421.847 241.95 422.187 243.15 422.867 243.97C423.547 244.77 424.447 245.17 425.567 245.17ZM438.023 247.96C437.423 247.96 436.963 247.8 436.643 247.48C436.323 247.14 436.163 246.66 436.163 246.04V234.7C436.163 234.08 436.323 233.61 436.643 233.29C436.963 232.97 437.413 232.81 437.993 232.81C438.573 232.81 439.023 232.97 439.343 233.29C439.663 233.61 439.823 234.08 439.823 234.7V236.74L439.493 235.99C439.933 234.93 440.613 234.13 441.533 233.59C442.473 233.03 443.533 232.75 444.713 232.75C445.893 232.75 446.863 232.97 447.623 233.41C448.383 233.85 448.953 234.52 449.333 235.42C449.713 236.3 449.903 237.42 449.903 238.78V246.04C449.903 246.66 449.743 247.14 449.423 247.48C449.103 247.8 448.643 247.96 448.043 247.96C447.443 247.96 446.973 247.8 446.633 247.48C446.313 247.14 446.153 246.66 446.153 246.04V238.96C446.153 237.82 445.933 236.99 445.493 236.47C445.073 235.95 444.413 235.69 443.513 235.69C442.413 235.69 441.533 236.04 440.873 236.74C440.233 237.42 439.913 238.33 439.913 239.47V246.04C439.913 247.32 439.283 247.96 438.023 247.96Z" fill="#B4C1D2" fill-opacity="0.4"/>
<g filter="url(#filter12_b_1470_2392)">
<path d="M615.889 34.634C621.653 32.4649 627.604 37.3486 626.6 43.4248L618.061 95.1337C617.058 101.21 609.853 103.921 605.093 100.014L564.581 66.7647C559.821 62.8577 561.075 55.2626 566.839 53.0935L615.889 34.634Z" fill="#7DA6DC" fill-opacity="0.1"/>
</g>
<g filter="url(#filter13_b_1470_2392)">
<path d="M78.0981 301.033L87.6267 336.594L61.594 362.626L26.0328 353.098L16.5042 317.537L42.5368 291.504L78.0981 301.033Z" fill="#7DA6DC" fill-opacity="0.1"/>
</g>
<circle cx="670.371" cy="276.371" r="16.371" fill="#7DA6DC" fill-opacity="0.1"/>
<defs>
<filter id="filter0_b_1470_2392" x="12.2695" y="17.729" width="218.912" height="218.912" filterUnits="userSpaceOnUse" color-interpolation-filters="sRGB">
<feFlood flood-opacity="0" result="BackgroundImageFix"/>
<feGaussianBlur in="BackgroundImageFix" stdDeviation="15"/>
<feComposite in2="SourceAlpha" operator="in" result="effect1_backgroundBlur_1470_2392"/>
<feBlend mode="normal" in="SourceGraphic" in2="effect1_backgroundBlur_1470_2392" result="shape"/>
</filter>
<filter id="filter1_b_1470_2392" x="34.0977" y="102.858" width="167.509" height="98.8569" filterUnits="userSpaceOnUse" color-interpolation-filters="sRGB">
<feFlood flood-opacity="0" result="BackgroundImageFix"/>
<feGaussianBlur in="BackgroundImageFix" stdDeviation="15"/>
<feComposite in2="SourceAlpha" operator="in" result="effect1_backgroundBlur_1470_2392"/>
<feBlend mode="normal" in="SourceGraphic" in2="effect1_backgroundBlur_1470_2392" result="shape"/>
</filter>
<filter id="filter2_b_1470_2392" x="244.104" y="6.18164" width="210.771" height="210.771" filterUnits="userSpaceOnUse" color-interpolation-filters="sRGB">
<feFlood flood-opacity="0" result="BackgroundImageFix"/>
<feGaussianBlur in="BackgroundImageFix" stdDeviation="15"/>
<feComposite in2="SourceAlpha" operator="in" result="effect1_backgroundBlur_1470_2392"/>
<feBlend mode="normal" in="SourceGraphic" in2="effect1_backgroundBlur_1470_2392" result="shape"/>
</filter>
<filter id="filter3_b_1470_2392" x="272.392" y="97.7705" width="166.948" height="92.3071" filterUnits="userSpaceOnUse" color-interpolation-filters="sRGB">
<feFlood flood-opacity="0" result="BackgroundImageFix"/>
<feGaussianBlur in="BackgroundImageFix" stdDeviation="15"/>
<feComposite in2="SourceAlpha" operator="in" result="effect1_backgroundBlur_1470_2392"/>
<feBlend mode="normal" in="SourceGraphic" in2="effect1_backgroundBlur_1470_2392" result="shape"/>
</filter>
<filter id="filter4_b_1470_2392" x="451.918" y="27.366" width="230.564" height="230.564" filterUnits="userSpaceOnUse" color-interpolation-filters="sRGB">
<feFlood flood-opacity="0" result="BackgroundImageFix"/>
<feGaussianBlur in="BackgroundImageFix" stdDeviation="15"/>
<feComposite in2="SourceAlpha" operator="in" result="effect1_backgroundBlur_1470_2392"/>
<feBlend mode="normal" in="SourceGraphic" in2="effect1_backgroundBlur_1470_2392" result="shape"/>
</filter>
<filter id="filter5_b_1470_2392" x="481.137" y="117.654" width="167.446" height="107.844" filterUnits="userSpaceOnUse" color-interpolation-filters="sRGB">
<feFlood flood-opacity="0" result="BackgroundImageFix"/>
<feGaussianBlur in="BackgroundImageFix" stdDeviation="15"/>
<feComposite in2="SourceAlpha" operator="in" result="effect1_backgroundBlur_1470_2392"/>
<feBlend mode="normal" in="SourceGraphic" in2="effect1_backgroundBlur_1470_2392" result="shape"/>
</filter>
<filter id="filter6_b_1470_2392" x="73.6641" y="263.569" width="208.431" height="208.431" filterUnits="userSpaceOnUse" color-interpolation-filters="sRGB">
<feFlood flood-opacity="0" result="BackgroundImageFix"/>
<feGaussianBlur in="BackgroundImageFix" stdDeviation="15"/>
<feComposite in2="SourceAlpha" operator="in" result="effect1_backgroundBlur_1470_2392"/>
<feBlend mode="normal" in="SourceGraphic" in2="effect1_backgroundBlur_1470_2392" result="shape"/>
</filter>
<filter id="filter7_b_1470_2392" x="94.4004" y="348.699" width="166.844" height="91.4946" filterUnits="userSpaceOnUse" color-interpolation-filters="sRGB">
<feFlood flood-opacity="0" result="BackgroundImageFix"/>
<feGaussianBlur in="BackgroundImageFix" stdDeviation="15"/>
<feComposite in2="SourceAlpha" operator="in" result="effect1_backgroundBlur_1470_2392"/>
<feBlend mode="normal" in="SourceGraphic" in2="effect1_backgroundBlur_1470_2392" result="shape"/>
</filter>
<filter id="filter8_b_1470_2392" x="254.836" y="263.569" width="208.431" height="208.431" filterUnits="userSpaceOnUse" color-interpolation-filters="sRGB">
<feFlood flood-opacity="0" result="BackgroundImageFix"/>
<feGaussianBlur in="BackgroundImageFix" stdDeviation="15"/>
<feComposite in2="SourceAlpha" operator="in" result="effect1_backgroundBlur_1470_2392"/>
<feBlend mode="normal" in="SourceGraphic" in2="effect1_backgroundBlur_1470_2392" result="shape"/>
</filter>
<filter id="filter9_b_1470_2392" x="275.573" y="348.699" width="166.844" height="91.4946" filterUnits="userSpaceOnUse" color-interpolation-filters="sRGB">
<feFlood flood-opacity="0" result="BackgroundImageFix"/>
<feGaussianBlur in="BackgroundImageFix" stdDeviation="15"/>
<feComposite in2="SourceAlpha" operator="in" result="effect1_backgroundBlur_1470_2392"/>
<feBlend mode="normal" in="SourceGraphic" in2="effect1_backgroundBlur_1470_2392" result="shape"/>
</filter>
<filter id="filter10_b_1470_2392" x="436.009" y="263.569" width="208.431" height="208.431" filterUnits="userSpaceOnUse" color-interpolation-filters="sRGB">
<feFlood flood-opacity="0" result="BackgroundImageFix"/>
<feGaussianBlur in="BackgroundImageFix" stdDeviation="15"/>
<feComposite in2="SourceAlpha" operator="in" result="effect1_backgroundBlur_1470_2392"/>
<feBlend mode="normal" in="SourceGraphic" in2="effect1_backgroundBlur_1470_2392" result="shape"/>
</filter>
<filter id="filter11_b_1470_2392" x="460.02" y="348.699" width="166.844" height="91.4946" filterUnits="userSpaceOnUse" color-interpolation-filters="sRGB">
<feFlood flood-opacity="0" result="BackgroundImageFix"/>
<feGaussianBlur in="BackgroundImageFix" stdDeviation="15"/>
<feComposite in2="SourceAlpha" operator="in" result="effect1_backgroundBlur_1470_2392"/>
<feBlend mode="normal" in="SourceGraphic" in2="effect1_backgroundBlur_1470_2392" result="shape"/>
</filter>
<filter id="filter12_b_1470_2392" x="531.654" y="4.11011" width="125.058" height="127.728" filterUnits="userSpaceOnUse" color-interpolation-filters="sRGB">
<feFlood flood-opacity="0" result="BackgroundImageFix"/>
<feGaussianBlur in="BackgroundImageFix" stdDeviation="15"/>
<feComposite in2="SourceAlpha" operator="in" result="effect1_backgroundBlur_1470_2392"/>
<feBlend mode="normal" in="SourceGraphic" in2="effect1_backgroundBlur_1470_2392" result="shape"/>
</filter>
<filter id="filter13_b_1470_2392" x="-13.4956" y="261.504" width="131.122" height="131.123" filterUnits="userSpaceOnUse" color-interpolation-filters="sRGB">
<feFlood flood-opacity="0" result="BackgroundImageFix"/>
<feGaussianBlur in="BackgroundImageFix" stdDeviation="15"/>
<feComposite in2="SourceAlpha" operator="in" result="effect1_backgroundBlur_1470_2392"/>
<feBlend mode="normal" in="SourceGraphic" in2="effect1_backgroundBlur_1470_2392" result="shape"/>
</filter>
</defs>
</svg>
