<svg width="25" height="21" viewBox="0 0 25 21" fill="none" xmlns="http://www.w3.org/2000/svg">
<path d="M7.74055 20.499C17.0288 20.499 22.1091 12.8038 22.1091 6.13047C22.1091 5.9119 22.1091 5.69431 22.0943 5.47771C23.0827 4.76284 23.9358 3.87769 24.6138 2.86372C23.6922 3.27231 22.7145 3.54014 21.7133 3.65825C22.7676 3.02721 23.5566 2.03455 23.9335 0.86508C22.9422 1.45336 21.8577 1.86791 20.7268 2.09085C19.9654 1.28124 18.9584 0.74513 17.8616 0.565494C16.7648 0.385857 15.6394 0.572704 14.6595 1.09712C13.6797 1.62154 12.8999 2.45428 12.441 3.4665C11.9821 4.47872 11.8695 5.61397 12.1208 6.69658C10.1131 6.59587 8.14897 6.07409 6.35596 5.16512C4.56294 4.25614 2.98111 2.98029 1.71312 1.42037C1.06735 2.53209 0.869557 3.84814 1.16003 5.10056C1.4505 6.35299 2.20739 7.44763 3.27659 8.1616C2.4729 8.13805 1.68671 7.92124 0.984552 7.52952V7.59351C0.984871 8.75944 1.38848 9.88936 2.12691 10.7916C2.86535 11.6939 3.89315 12.313 5.03599 12.5438C4.29253 12.7466 3.51247 12.7763 2.75576 12.6305C3.07859 13.6338 3.70687 14.5112 4.55277 15.14C5.39868 15.7688 6.41992 16.1175 7.47374 16.1375C6.4267 16.9605 5.22768 17.5689 3.94526 17.9281C2.66284 18.2873 1.32219 18.3901 0 18.2306C2.30942 19.7126 4.99653 20.4987 7.74055 20.4951" fill="#1DA1F2"/>
</svg>
