<svg width="18" height="15" viewBox="0 0 18 15" fill="none" xmlns="http://www.w3.org/2000/svg">
<path d="M12.075 7.97498L10.9875 6.88748C11.1 6.29998 10.9313 5.74998 10.4813 5.23748C10.0312 4.72498 9.45 4.52498 8.7375 4.63748L7.65 3.54998C7.8625 3.44998 8.078 3.37498 8.2965 3.32498C8.5155 3.27498 8.75 3.24998 9 3.24998C9.9375 3.24998 10.7345 3.57798 11.391 4.23398C12.047 4.89048 12.375 5.68748 12.375 6.62498C12.375 6.87498 12.35 7.10948 12.3 7.32847C12.25 7.54698 12.175 7.76248 12.075 7.97498ZM14.475 10.3375L13.3875 9.28748C13.8625 8.92498 14.2845 8.52798 14.6535 8.09648C15.022 7.66548 15.3375 7.17498 15.6 6.62498C14.975 5.36248 14.078 4.35923 12.909 3.61523C11.7405 2.87173 10.4375 2.49998 9 2.49998C8.6375 2.49998 8.28125 2.52498 7.93125 2.57498C7.58125 2.62498 7.2375 2.69998 6.9 2.79998L5.7375 1.63748C6.25 1.42498 6.775 1.26548 7.3125 1.15898C7.85 1.05298 8.4125 0.999976 9 0.999976C10.8875 0.999976 12.5688 1.52173 14.0438 2.56523C15.5188 3.60923 16.5875 4.96248 17.25 6.62498C16.9625 7.36248 16.5845 8.04698 16.116 8.67848C15.647 9.30947 15.1 9.86248 14.475 10.3375ZM14.85 14.95L11.7 11.8375C11.2625 11.975 10.822 12.0782 10.3785 12.1472C9.9345 12.2157 9.475 12.25 9 12.25C7.1125 12.25 5.43125 11.7282 3.95625 10.6847C2.48125 9.64073 1.4125 8.28748 0.75 6.62498C1.0125 5.96248 1.34375 5.34673 1.74375 4.77773C2.14375 4.20923 2.6 3.69998 3.1125 3.24998L1.05 1.14998L2.1 0.0999756L15.9 13.9L14.85 14.95ZM4.1625 4.29998C3.8 4.62498 3.46875 4.98123 3.16875 5.36873C2.86875 5.75623 2.6125 6.17498 2.4 6.62498C3.025 7.88748 3.92175 8.89048 5.09025 9.63398C6.25925 10.378 7.5625 10.75 9 10.75C9.25 10.75 9.49375 10.7345 9.73125 10.7035C9.96875 10.672 10.2125 10.6375 10.4625 10.6L9.7875 9.88748C9.65 9.92498 9.51875 9.95298 9.39375 9.97148C9.26875 9.99048 9.1375 9.99998 9 9.99998C8.0625 9.99998 7.2655 9.67198 6.609 9.01597C5.953 8.35948 5.625 7.56248 5.625 6.62498C5.625 6.48748 5.63425 6.35623 5.65275 6.23123C5.67175 6.10623 5.7 5.97498 5.7375 5.83748L4.1625 4.29998Z" fill="#B4C1D2" fill-opacity="0.4"/>
</svg>
