<svg width="18" height="12" viewBox="0 0 18 12" fill="none" xmlns="http://www.w3.org/2000/svg">
<path d="M9 9C9.9375 9 10.7345 8.672 11.391 8.016C12.047 7.3595 12.375 6.5625 12.375 5.625C12.375 4.6875 12.047 3.8905 11.391 3.234C10.7345 2.578 9.9375 2.25 9 2.25C8.0625 2.25 7.2655 2.578 6.609 3.234C5.953 3.8905 5.625 4.6875 5.625 5.625C5.625 6.5625 5.953 7.3595 6.609 8.016C7.2655 8.672 8.0625 9 9 9ZM9 7.65C8.4375 7.65 7.9595 7.453 7.566 7.059C7.172 6.6655 6.975 6.1875 6.975 5.625C6.975 5.0625 7.172 4.58425 7.566 4.19025C7.9595 3.79675 8.4375 3.6 9 3.6C9.5625 3.6 10.0408 3.79675 10.4347 4.19025C10.8282 4.58425 11.025 5.0625 11.025 5.625C11.025 6.1875 10.8282 6.6655 10.4347 7.059C10.0408 7.453 9.5625 7.65 9 7.65ZM9 11.25C7.175 11.25 5.5125 10.7405 4.0125 9.7215C2.5125 8.703 1.425 7.3375 0.75 5.625C1.425 3.9125 2.5125 2.54675 4.0125 1.52775C5.5125 0.50925 7.175 0 9 0C10.825 0 12.4875 0.50925 13.9875 1.52775C15.4875 2.54675 16.575 3.9125 17.25 5.625C16.575 7.3375 15.4875 8.703 13.9875 9.7215C12.4875 10.7405 10.825 11.25 9 11.25ZM9 9.75C10.4125 9.75 11.7095 9.378 12.891 8.634C14.072 7.8905 14.975 6.8875 15.6 5.625C14.975 4.3625 14.072 3.35925 12.891 2.61525C11.7095 1.87175 10.4125 1.5 9 1.5C7.5875 1.5 6.2905 1.87175 5.109 2.61525C3.928 3.35925 3.025 4.3625 2.4 5.625C3.025 6.8875 3.928 7.8905 5.109 8.634C6.2905 9.378 7.5875 9.75 9 9.75Z" fill="white"/>
</svg>
