<svg width="20" height="18" viewBox="0 0 20 18" fill="none" xmlns="http://www.w3.org/2000/svg">
<path d="M13.5 10.5C13.9333 10.5 14.2917 10.3583 14.575 10.075C14.8583 9.79167 15 9.43333 15 9C15 8.56667 14.8583 8.20833 14.575 7.925C14.2917 7.64167 13.9333 7.5 13.5 7.5C13.0667 7.5 12.7083 7.64167 12.425 7.925C12.1417 8.20833 12 8.56667 12 9C12 9.43333 12.1417 9.79167 12.425 10.075C12.7083 10.3583 13.0667 10.5 13.5 10.5ZM2.5 18C1.95 18 1.479 17.8043 1.087 17.413C0.695667 17.021 0.5 16.55 0.5 16V2C0.5 1.45 0.695667 0.979 1.087 0.587C1.479 0.195667 1.95 0 2.5 0H16.5C17.05 0 17.521 0.195667 17.913 0.587C18.3043 0.979 18.5 1.45 18.5 2V4.5H16.5V2H2.5V16H16.5V13.5H18.5V16C18.5 16.55 18.3043 17.021 17.913 17.413C17.521 17.8043 17.05 18 16.5 18H2.5ZM10.5 14C9.95 14 9.47933 13.8043 9.088 13.413C8.696 13.021 8.5 12.55 8.5 12V6C8.5 5.45 8.696 4.979 9.088 4.587C9.47933 4.19567 9.95 4 10.5 4H17.5C18.05 4 18.521 4.19567 18.913 4.587C19.3043 4.979 19.5 5.45 19.5 6V12C19.5 12.55 19.3043 13.021 18.913 13.413C18.521 13.8043 18.05 14 17.5 14H10.5ZM17.5 12V6H10.5V12H17.5Z" fill="white"/>
</svg>
