<svg width="20" height="21" viewBox="0 0 20 21" fill="none" xmlns="http://www.w3.org/2000/svg">
<path d="M10 20.3125C8.61667 20.3125 7.31667 20.0498 6.1 19.5245C4.88333 18.9998 3.825 18.2875 2.925 17.3875C2.025 16.4875 1.31267 15.4292 0.788 14.2125C0.262667 12.9958 0 11.6958 0 10.3125C0 8.92917 0.262667 7.62917 0.788 6.4125C1.31267 5.19583 2.025 4.1375 2.925 3.2375C3.825 2.3375 4.88333 1.62483 6.1 1.0995C7.31667 0.574833 8.61667 0.3125 10 0.3125C11.3833 0.3125 12.6833 0.574833 13.9 1.0995C15.1167 1.62483 16.175 2.3375 17.075 3.2375C17.975 4.1375 18.6873 5.19583 19.212 6.4125C19.7373 7.62917 20 8.92917 20 10.3125C20 11.6958 19.7373 12.9958 19.212 14.2125C18.6873 15.4292 17.975 16.4875 17.075 17.3875C16.175 18.2875 15.1167 18.9998 13.9 19.5245C12.6833 20.0498 11.3833 20.3125 10 20.3125ZM9 18.2625V16.3125C8.45 16.3125 7.97933 16.1168 7.588 15.7255C7.196 15.3335 7 14.8625 7 14.3125V13.3125L2.2 8.5125C2.15 8.8125 2.104 9.1125 2.062 9.4125C2.02067 9.7125 2 10.0125 2 10.3125C2 12.3292 2.66267 14.0958 3.988 15.6125C5.31267 17.1292 6.98333 18.0125 9 18.2625ZM15.9 15.7125C16.2333 15.3458 16.5333 14.9498 16.8 14.5245C17.0667 14.0998 17.2877 13.6582 17.463 13.1995C17.6377 12.7415 17.771 12.2708 17.863 11.7875C17.9543 11.3042 18 10.8125 18 10.3125C18 8.67917 17.546 7.1875 16.638 5.8375C15.7293 4.4875 14.5167 3.5125 13 2.9125V3.3125C13 3.8625 12.8043 4.33317 12.413 4.7245C12.021 5.1165 11.55 5.3125 11 5.3125H9V7.3125C9 7.59583 8.90433 7.83317 8.713 8.0245C8.521 8.2165 8.28333 8.3125 8 8.3125H6V10.3125H12C12.2833 10.3125 12.521 10.4082 12.713 10.5995C12.9043 10.7915 13 11.0292 13 11.3125V14.3125H14C14.4333 14.3125 14.825 14.4415 15.175 14.6995C15.525 14.9582 15.7667 15.2958 15.9 15.7125Z" fill="#705CE9"/>
</svg>
