<svg width="37" height="37" viewBox="0 0 37 37" fill="none" xmlns="http://www.w3.org/2000/svg">
<path d="M36.7505 18.3605C36.7452 14.6543 35.62 11.0362 33.5224 7.98068C31.4248 4.92514 28.4528 2.57481 24.9961 1.2379C21.5393 -0.0990033 17.7593 -0.360068 14.1516 0.488925C10.5439 1.33792 7.277 3.25734 4.77927 5.9955L4.72713 6.05435C4.66155 6.12666 4.59765 6.20067 4.53207 6.27466C3.23146 7.76691 2.18087 9.45978 1.42104 11.2876C1.26426 11.6637 1.20281 12.0727 1.24215 12.4782C1.28148 12.8838 1.42038 13.2733 1.64651 13.6123C1.87264 13.9512 2.17899 14.2291 2.53835 14.4211C2.8977 14.6132 3.29893 14.7134 3.70638 14.7131H3.98721C4.4753 14.7188 4.95381 14.5776 5.3605 14.3076C5.7672 14.0377 6.08324 13.6516 6.26751 13.1996C6.92799 11.6376 7.88514 10.2184 9.08594 9.02076C9.1532 8.95181 9.22383 8.88455 9.29446 8.81729L9.37013 8.74329L9.4828 8.63903L9.65097 8.49104L9.67955 8.46583C10.745 7.52239 11.9563 6.75796 13.2665 6.20234L13.3607 6.1603C16.5825 4.83012 20.2 4.83012 23.4219 6.1603L23.5127 6.20065C24.6171 6.66956 25.6524 7.2868 26.5901 8.03533L26.654 8.08578L26.7919 8.20012C26.8491 8.24721 26.9062 8.29429 26.96 8.34306L27.0155 8.39015L27.2325 8.58354C28.3327 9.58273 29.2561 10.7608 29.9635 12.0679C30.1676 12.4449 30.2704 12.8685 30.2617 13.2971C30.2529 13.7258 30.133 14.1449 29.9136 14.5132C29.6943 14.8816 29.383 15.1867 29.0103 15.3986C28.6375 15.6105 28.2162 15.722 27.7874 15.7221H27.4914C27.0495 15.7286 26.6143 15.6137 26.2332 15.3898C25.8522 15.1659 25.5399 14.8417 25.3305 14.4524C24.4741 12.9155 23.1317 11.7063 21.5139 11.0145C19.8962 10.3227 18.0946 10.1874 16.3916 10.6298C14.6887 11.0723 13.1808 12.0674 12.1044 13.4592C11.028 14.851 10.444 16.5607 10.444 18.3202C10.444 20.0797 11.028 21.7894 12.1044 23.1812C13.1808 24.573 14.6887 25.5681 16.3916 26.0106C18.0946 26.453 19.8962 26.3178 21.5139 25.6259C23.1317 24.9341 24.4741 23.7249 25.3305 22.188C25.5402 21.799 25.8525 21.475 26.2335 21.2511C26.6145 21.0273 27.0496 20.9122 27.4914 20.9184H27.7874C28.2162 20.9188 28.6376 21.0305 29.0102 21.2427C29.3829 21.4548 29.6941 21.76 29.9134 22.1285C30.1327 22.4969 30.2526 22.916 30.2614 23.3447C30.2702 23.7734 30.1675 24.1971 29.9635 24.5742C28.5396 27.2042 26.2644 29.2724 23.511 30.4398C23.0593 30.6244 22.6735 30.9406 22.4036 31.3472C22.1337 31.7538 21.9923 32.2321 21.9975 32.7201V33.0093C21.9979 33.4166 22.0986 33.8175 22.2907 34.1766C22.4829 34.5357 22.7606 34.842 23.0992 35.0682C23.4379 35.2945 23.8271 35.4338 24.2324 35.4739C24.6377 35.514 25.0466 35.4536 25.423 35.298C28.7169 33.9307 31.5414 31.6342 33.552 28.6886C35.5626 25.7431 36.6722 22.2759 36.7455 18.7103C36.7455 18.6666 36.7455 18.6246 36.7455 18.5825C36.7489 18.5035 36.7505 18.4312 36.7505 18.3605Z" fill="#FFBD3C"/>
<path d="M18.4661 31.4961C17.9541 31.4958 17.4536 31.6473 17.0278 31.9314C16.6019 32.2156 16.27 32.6197 16.0738 33.0926C15.8777 33.5655 15.8262 34.0858 15.9259 34.588C16.0255 35.0901 16.2719 35.5514 16.6338 35.9136C16.9956 36.2757 17.4568 36.5223 17.9589 36.6223C18.4609 36.7223 18.9814 36.6711 19.4544 36.4753C19.9274 36.2795 20.3317 35.9478 20.6161 35.5221C20.9006 35.0965 21.0524 34.5961 21.0524 34.0841C21.0524 33.398 20.78 32.74 20.295 32.2547C19.81 31.7694 19.1522 31.4965 18.4661 31.4961Z" fill="#FFBD3C"/>
<path d="M14.7765 32.8292C14.7765 32.3173 14.6247 31.8169 14.3403 31.3912C14.0558 30.9656 13.6515 30.6339 13.1785 30.438C12.7055 30.2422 12.1851 30.1911 11.683 30.2911C11.1809 30.3911 10.7198 30.6377 10.3579 30.9998C9.99601 31.362 9.74966 31.8232 9.64999 32.3254C9.55032 32.8275 9.60181 33.3479 9.79795 33.8208C9.99409 34.2937 10.3261 34.6978 10.7519 34.982C11.1777 35.2661 11.6782 35.4176 12.1902 35.4173C12.8763 35.4169 13.5341 35.144 14.0191 34.6587C14.5041 34.1734 14.7765 33.5153 14.7765 32.8292Z" fill="#FFBD3C"/>
<path d="M9.56011 29.2218C9.56011 28.71 9.40833 28.2096 9.12395 27.784C8.83957 27.3584 8.43537 27.0267 7.96247 26.8308C7.48957 26.6349 6.9692 26.5837 6.46717 26.6835C5.96514 26.7834 5.504 27.0299 5.14205 27.3918C4.78011 27.7538 4.53362 28.2149 4.43376 28.7169C4.3339 29.219 4.38515 29.7393 4.58104 30.2122C4.77692 30.6851 5.10863 31.0893 5.53424 31.3737C5.95984 31.6581 6.46021 31.8099 6.97207 31.8099C7.65846 31.8099 8.31674 31.5372 8.80209 31.0518C9.28744 30.5665 9.56011 29.9082 9.56011 29.2218Z" fill="#FFBD3C"/>
<path d="M6.30608 24.046C6.30608 23.5341 6.15425 23.0337 5.8698 22.608C5.58535 22.1824 5.18105 21.8507 4.70805 21.6548C4.23505 21.459 3.7146 21.4079 3.21252 21.5079C2.71045 21.6079 2.24931 21.8545 1.88743 22.2166C1.52555 22.5788 1.2792 23.04 1.17953 23.5422C1.07986 24.0443 1.13135 24.5647 1.32749 25.0376C1.52363 25.5105 1.85561 25.9146 2.28143 26.1987C2.70725 26.4829 3.20779 26.6344 3.71973 26.6341C4.40582 26.6337 5.06367 26.3608 5.54866 25.8755C6.03364 25.3902 6.30608 24.7321 6.30608 24.046Z" fill="#FFBD3C"/>
<path d="M5.17608 18.0695C5.17608 17.5576 5.02429 17.0573 4.73991 16.6317C4.45553 16.2061 4.05134 15.8743 3.57844 15.6784C3.10554 15.4826 2.58517 15.4313 2.08314 15.5312C1.58111 15.631 1.11996 15.8775 0.75802 16.2395C0.396077 16.6014 0.14959 17.0625 0.0497296 17.5646C-0.0501304 18.0666 0.00112119 18.587 0.197004 19.0599C0.392886 19.5328 0.724601 19.937 1.1502 20.2214C1.5758 20.5057 2.07617 20.6575 2.58804 20.6575C3.27429 20.6571 3.93231 20.3843 4.41756 19.899C4.90282 19.4138 5.17563 18.7557 5.17608 18.0695Z" fill="#FFBD3C"/>
</svg>
